G75*
G70*
%OFA0B0*%
%FSLAX24Y24*%
%IPPOS*%
%LPD*%
%AMOC8*
5,1,8,0,0,1.08239X$1,22.5*
%
%ADD10C,0.0100*%
%ADD11C,0.0160*%
%ADD12C,0.0050*%
%ADD13C,0.0090*%
%ADD14C,0.0000*%
%ADD15C,0.0040*%
%ADD16R,0.0750X0.0500*%
%ADD17R,0.6000X0.1000*%
%ADD18R,0.0500X0.0250*%
%ADD19R,0.1000X0.1000*%
%ADD20R,0.1000X0.3000*%
D10*
X002638Y000643D02*
X002638Y039398D01*
X041393Y039398D01*
X041393Y000643D01*
X002638Y000643D01*
X038050Y028427D02*
X038050Y029327D01*
X038350Y029027D01*
X038651Y029327D01*
X038651Y028427D01*
X038971Y028126D02*
X039121Y028277D01*
X039121Y028577D01*
X039271Y028427D01*
X039421Y028427D01*
X039571Y028577D01*
X039571Y028877D01*
X039121Y028877D02*
X039121Y028577D01*
D11*
X037404Y028877D02*
X037406Y028950D01*
X037412Y029023D01*
X037422Y029095D01*
X037435Y029166D01*
X037453Y029237D01*
X037474Y029307D01*
X037500Y029375D01*
X037528Y029442D01*
X037561Y029507D01*
X037597Y029571D01*
X037636Y029632D01*
X037678Y029692D01*
X037724Y029748D01*
X037773Y029803D01*
X037824Y029854D01*
X037879Y029903D01*
X037935Y029949D01*
X037995Y029991D01*
X038056Y030030D01*
X038120Y030066D01*
X038185Y030099D01*
X038252Y030127D01*
X038320Y030153D01*
X038390Y030174D01*
X038461Y030192D01*
X038532Y030205D01*
X038604Y030215D01*
X038677Y030221D01*
X038750Y030223D01*
X038823Y030221D01*
X038896Y030215D01*
X038968Y030205D01*
X039039Y030192D01*
X039110Y030174D01*
X039180Y030153D01*
X039248Y030127D01*
X039315Y030099D01*
X039380Y030066D01*
X039444Y030030D01*
X039505Y029991D01*
X039565Y029949D01*
X039621Y029903D01*
X039676Y029854D01*
X039727Y029803D01*
X039776Y029748D01*
X039822Y029692D01*
X039864Y029632D01*
X039903Y029571D01*
X039939Y029507D01*
X039972Y029442D01*
X040000Y029375D01*
X040026Y029307D01*
X040047Y029237D01*
X040065Y029166D01*
X040078Y029095D01*
X040088Y029023D01*
X040094Y028950D01*
X040096Y028877D01*
X040094Y028804D01*
X040088Y028731D01*
X040078Y028659D01*
X040065Y028588D01*
X040047Y028517D01*
X040026Y028447D01*
X040000Y028379D01*
X039972Y028312D01*
X039939Y028247D01*
X039903Y028183D01*
X039864Y028122D01*
X039822Y028062D01*
X039776Y028006D01*
X039727Y027951D01*
X039676Y027900D01*
X039621Y027851D01*
X039565Y027805D01*
X039505Y027763D01*
X039444Y027724D01*
X039380Y027688D01*
X039315Y027655D01*
X039248Y027627D01*
X039180Y027601D01*
X039110Y027580D01*
X039039Y027562D01*
X038968Y027549D01*
X038896Y027539D01*
X038823Y027533D01*
X038750Y027531D01*
X038677Y027533D01*
X038604Y027539D01*
X038532Y027549D01*
X038461Y027562D01*
X038390Y027580D01*
X038320Y027601D01*
X038252Y027627D01*
X038185Y027655D01*
X038120Y027688D01*
X038056Y027724D01*
X037995Y027763D01*
X037935Y027805D01*
X037879Y027851D01*
X037824Y027900D01*
X037773Y027951D01*
X037724Y028006D01*
X037678Y028062D01*
X037636Y028122D01*
X037597Y028183D01*
X037561Y028247D01*
X037528Y028312D01*
X037500Y028379D01*
X037474Y028447D01*
X037453Y028517D01*
X037435Y028588D01*
X037422Y028659D01*
X037412Y028731D01*
X037406Y028804D01*
X037404Y028877D01*
D12*
X036650Y027912D02*
X036575Y027912D01*
X036500Y027837D01*
X036425Y027912D01*
X036350Y027912D01*
X036275Y027837D01*
X036275Y027687D01*
X036350Y027612D01*
X036350Y027452D02*
X036275Y027377D01*
X036275Y027227D01*
X036350Y027152D01*
X036650Y027452D01*
X036350Y027452D01*
X036650Y027452D02*
X036725Y027377D01*
X036725Y027227D01*
X036650Y027152D01*
X036350Y027152D01*
X036650Y027612D02*
X036725Y027687D01*
X036725Y027837D01*
X036650Y027912D01*
X036500Y027837D02*
X036500Y027762D01*
X035650Y030231D02*
X035350Y030231D01*
X035275Y030306D01*
X035275Y030456D01*
X035350Y030531D01*
X035650Y030231D01*
X035725Y030306D01*
X035725Y030456D01*
X035650Y030531D01*
X035350Y030531D01*
X035425Y030691D02*
X035275Y030841D01*
X035725Y030841D01*
X035725Y030691D02*
X035725Y030992D01*
X034725Y030916D02*
X034275Y030916D01*
X034500Y030691D01*
X034500Y030992D01*
X034350Y030531D02*
X034650Y030531D01*
X034725Y030456D01*
X034725Y030306D01*
X034650Y030231D01*
X034350Y030531D01*
X034275Y030456D01*
X034275Y030306D01*
X034350Y030231D01*
X034650Y030231D01*
X033725Y030306D02*
X033650Y030231D01*
X033350Y030531D01*
X033650Y030531D01*
X033725Y030456D01*
X033725Y030306D01*
X033650Y030231D02*
X033350Y030231D01*
X033275Y030306D01*
X033275Y030456D01*
X033350Y030531D01*
X033275Y030691D02*
X033275Y030992D01*
X033350Y030992D01*
X033650Y030691D01*
X033725Y030691D01*
X032725Y030766D02*
X032650Y030691D01*
X032350Y030992D01*
X032650Y030992D01*
X032725Y030916D01*
X032725Y030766D01*
X032650Y030691D02*
X032350Y030691D01*
X032275Y030766D01*
X032275Y030916D01*
X032350Y030992D01*
X032725Y030531D02*
X032725Y030231D01*
X032725Y030381D02*
X032275Y030381D01*
X032425Y030231D01*
X031725Y030231D02*
X031725Y030531D01*
X031725Y030381D02*
X031275Y030381D01*
X031425Y030231D01*
X031350Y030691D02*
X031275Y030766D01*
X031275Y030916D01*
X031350Y030992D01*
X031425Y030992D01*
X031500Y030916D01*
X031575Y030992D01*
X031650Y030992D01*
X031725Y030916D01*
X031725Y030766D01*
X031650Y030691D01*
X031500Y030841D02*
X031500Y030916D01*
X030725Y030916D02*
X030650Y030992D01*
X030575Y030992D01*
X030500Y030916D01*
X030500Y030691D01*
X030650Y030691D01*
X030725Y030766D01*
X030725Y030916D01*
X030500Y030691D02*
X030350Y030841D01*
X030275Y030992D01*
X029725Y030916D02*
X029650Y030992D01*
X029350Y030992D01*
X029275Y030916D01*
X029275Y030766D01*
X029350Y030691D01*
X029425Y030691D01*
X029500Y030766D01*
X029500Y030992D01*
X029725Y030916D02*
X029725Y030766D01*
X029650Y030691D01*
X029725Y030531D02*
X029725Y030231D01*
X029725Y030381D02*
X029275Y030381D01*
X029425Y030231D01*
X028725Y030231D02*
X028425Y030531D01*
X028350Y030531D01*
X028275Y030456D01*
X028275Y030306D01*
X028350Y030231D01*
X028725Y030231D02*
X028725Y030531D01*
X028725Y030691D02*
X028425Y030992D01*
X028350Y030992D01*
X028275Y030916D01*
X028275Y030766D01*
X028350Y030691D01*
X028725Y030691D02*
X028725Y030992D01*
X027725Y030916D02*
X027725Y030766D01*
X027650Y030691D01*
X027500Y030691D02*
X027425Y030841D01*
X027425Y030916D01*
X027500Y030992D01*
X027650Y030992D01*
X027725Y030916D01*
X027500Y030691D02*
X027275Y030691D01*
X027275Y030992D01*
X027350Y030531D02*
X027275Y030456D01*
X027275Y030306D01*
X027350Y030231D01*
X027350Y030531D02*
X027425Y030531D01*
X027725Y030231D01*
X027725Y030531D01*
X026725Y030531D02*
X026725Y030231D01*
X026425Y030531D01*
X026350Y030531D01*
X026275Y030456D01*
X026275Y030306D01*
X026350Y030231D01*
X026350Y030691D02*
X026425Y030691D01*
X026500Y030766D01*
X026500Y030916D01*
X026575Y030992D01*
X026650Y030992D01*
X026725Y030916D01*
X026725Y030766D01*
X026650Y030691D01*
X026575Y030691D01*
X026500Y030766D01*
X026500Y030916D02*
X026425Y030992D01*
X026350Y030992D01*
X026275Y030916D01*
X026275Y030766D01*
X026350Y030691D01*
X025725Y030691D02*
X025725Y030992D01*
X025725Y030841D02*
X025275Y030841D01*
X025425Y030691D01*
X025425Y030531D02*
X025500Y030456D01*
X025575Y030531D01*
X025650Y030531D01*
X025725Y030456D01*
X025725Y030306D01*
X025650Y030231D01*
X025500Y030381D02*
X025500Y030456D01*
X025425Y030531D02*
X025350Y030531D01*
X025275Y030456D01*
X025275Y030306D01*
X025350Y030231D01*
X024725Y030306D02*
X024725Y030456D01*
X024650Y030531D01*
X024575Y030531D01*
X024500Y030456D01*
X024500Y030381D01*
X024500Y030456D02*
X024425Y030531D01*
X024350Y030531D01*
X024275Y030456D01*
X024275Y030306D01*
X024350Y030231D01*
X024650Y030231D02*
X024725Y030306D01*
X024500Y030691D02*
X024500Y030992D01*
X024725Y030916D02*
X024275Y030916D01*
X024500Y030691D01*
X023725Y030691D02*
X023650Y030691D01*
X023350Y030992D01*
X023275Y030992D01*
X023275Y030691D01*
X023350Y030531D02*
X023275Y030456D01*
X023275Y030306D01*
X023350Y030231D01*
X023500Y030381D02*
X023500Y030456D01*
X023575Y030531D01*
X023650Y030531D01*
X023725Y030456D01*
X023725Y030306D01*
X023650Y030231D01*
X023500Y030456D02*
X023425Y030531D01*
X023350Y030531D01*
X022725Y030456D02*
X022275Y030456D01*
X022500Y030231D01*
X022500Y030531D01*
X022650Y030691D02*
X022350Y030691D01*
X022275Y030766D01*
X022275Y030916D01*
X022350Y030992D01*
X022650Y030691D01*
X022725Y030766D01*
X022725Y030916D01*
X022650Y030992D01*
X022350Y030992D01*
X021725Y030916D02*
X021725Y030766D01*
X021650Y030691D01*
X021500Y030841D02*
X021500Y030916D01*
X021575Y030992D01*
X021650Y030992D01*
X021725Y030916D01*
X021500Y030916D02*
X021425Y030992D01*
X021350Y030992D01*
X021275Y030916D01*
X021275Y030766D01*
X021350Y030691D01*
X021500Y030531D02*
X021500Y030231D01*
X021275Y030456D01*
X021725Y030456D01*
X020725Y030456D02*
X020275Y030456D01*
X020500Y030231D01*
X020500Y030531D01*
X020500Y030691D02*
X020500Y030916D01*
X020575Y030992D01*
X020650Y030992D01*
X020725Y030916D01*
X020725Y030766D01*
X020650Y030691D01*
X020500Y030691D01*
X020350Y030841D01*
X020275Y030992D01*
X019725Y030916D02*
X019650Y030992D01*
X019350Y030992D01*
X019275Y030916D01*
X019275Y030766D01*
X019350Y030691D01*
X019425Y030691D01*
X019500Y030766D01*
X019500Y030992D01*
X019725Y030916D02*
X019725Y030766D01*
X019650Y030691D01*
X019500Y030531D02*
X019500Y030231D01*
X019275Y030456D01*
X019725Y030456D01*
X018725Y030456D02*
X018725Y030306D01*
X018650Y030231D01*
X018500Y030231D02*
X018425Y030381D01*
X018425Y030456D01*
X018500Y030531D01*
X018650Y030531D01*
X018725Y030456D01*
X018725Y030691D02*
X018425Y030992D01*
X018350Y030992D01*
X018275Y030916D01*
X018275Y030766D01*
X018350Y030691D01*
X018275Y030531D02*
X018275Y030231D01*
X018500Y030231D01*
X018725Y030691D02*
X018725Y030992D01*
X017725Y030916D02*
X017725Y030766D01*
X017650Y030691D01*
X017500Y030691D02*
X017425Y030841D01*
X017425Y030916D01*
X017500Y030992D01*
X017650Y030992D01*
X017725Y030916D01*
X017500Y030691D02*
X017275Y030691D01*
X017275Y030992D01*
X017275Y030531D02*
X017275Y030231D01*
X017500Y030231D01*
X017425Y030381D01*
X017425Y030456D01*
X017500Y030531D01*
X017650Y030531D01*
X017725Y030456D01*
X017725Y030306D01*
X017650Y030231D01*
X016725Y030306D02*
X016650Y030231D01*
X016725Y030306D02*
X016725Y030456D01*
X016650Y030531D01*
X016500Y030531D01*
X016425Y030456D01*
X016425Y030381D01*
X016500Y030231D01*
X016275Y030231D01*
X016275Y030531D01*
X016350Y030691D02*
X016425Y030691D01*
X016500Y030766D01*
X016500Y030916D01*
X016575Y030992D01*
X016650Y030992D01*
X016725Y030916D01*
X016725Y030766D01*
X016650Y030691D01*
X016575Y030691D01*
X016500Y030766D01*
X016500Y030916D02*
X016425Y030992D01*
X016350Y030992D01*
X016275Y030916D01*
X016275Y030766D01*
X016350Y030691D01*
X015725Y030691D02*
X015725Y030992D01*
X015725Y030841D02*
X015275Y030841D01*
X015425Y030691D01*
X015575Y030531D02*
X015500Y030456D01*
X015500Y030231D01*
X015650Y030231D01*
X015725Y030306D01*
X015725Y030456D01*
X015650Y030531D01*
X015575Y030531D01*
X015350Y030381D02*
X015500Y030231D01*
X015350Y030381D02*
X015275Y030531D01*
X014725Y030456D02*
X014725Y030306D01*
X014650Y030231D01*
X014500Y030231D01*
X014500Y030456D01*
X014575Y030531D01*
X014650Y030531D01*
X014725Y030456D01*
X014500Y030231D02*
X014350Y030381D01*
X014275Y030531D01*
X014500Y030691D02*
X014500Y030992D01*
X014725Y030916D02*
X014275Y030916D01*
X014500Y030691D01*
X013725Y030691D02*
X013650Y030691D01*
X013350Y030992D01*
X013275Y030992D01*
X013275Y030691D01*
X013275Y030531D02*
X013350Y030381D01*
X013500Y030231D01*
X013500Y030456D01*
X013575Y030531D01*
X013650Y030531D01*
X013725Y030456D01*
X013725Y030306D01*
X013650Y030231D01*
X013500Y030231D01*
X012725Y030231D02*
X012650Y030231D01*
X012350Y030531D01*
X012275Y030531D01*
X012275Y030231D01*
X012350Y030691D02*
X012275Y030766D01*
X012275Y030916D01*
X012350Y030992D01*
X012650Y030691D01*
X012725Y030766D01*
X012725Y030916D01*
X012650Y030992D01*
X012350Y030992D01*
X012350Y030691D02*
X012650Y030691D01*
X011725Y030766D02*
X011650Y030691D01*
X011725Y030766D02*
X011725Y030916D01*
X011650Y030992D01*
X011575Y030992D01*
X011500Y030916D01*
X011500Y030841D01*
X011500Y030916D02*
X011425Y030992D01*
X011350Y030992D01*
X011275Y030916D01*
X011275Y030766D01*
X011350Y030691D01*
X011350Y030531D02*
X011650Y030231D01*
X011725Y030231D01*
X011275Y030231D02*
X011275Y030531D01*
X011350Y030531D01*
X010725Y030766D02*
X010650Y030691D01*
X010500Y030691D01*
X010500Y030916D01*
X010575Y030992D01*
X010650Y030992D01*
X010725Y030916D01*
X010725Y030766D01*
X010500Y030691D02*
X010350Y030841D01*
X010275Y030992D01*
X010275Y030531D02*
X010350Y030531D01*
X010650Y030231D01*
X010725Y030231D01*
X010275Y030231D02*
X010275Y030531D01*
X009725Y030766D02*
X009725Y030916D01*
X009650Y030992D01*
X009350Y030992D01*
X009275Y030916D01*
X009275Y030766D01*
X009350Y030691D01*
X009425Y030691D01*
X009500Y030766D01*
X009500Y030992D01*
X009725Y030766D02*
X009650Y030691D01*
X009350Y030531D02*
X009650Y030231D01*
X009725Y030231D01*
X009275Y030231D02*
X009275Y030531D01*
X009350Y030531D01*
X008725Y030456D02*
X008725Y030306D01*
X008650Y030231D01*
X008575Y030231D01*
X008500Y030306D01*
X008500Y030456D01*
X008575Y030531D01*
X008650Y030531D01*
X008725Y030456D01*
X008500Y030456D02*
X008425Y030531D01*
X008350Y030531D01*
X008275Y030456D01*
X008275Y030306D01*
X008350Y030231D01*
X008425Y030231D01*
X008500Y030306D01*
X008350Y030691D02*
X008275Y030766D01*
X008275Y030916D01*
X008350Y030992D01*
X008425Y030992D01*
X008725Y030691D01*
X008725Y030992D01*
X007725Y030916D02*
X007725Y030766D01*
X007650Y030691D01*
X007500Y030691D02*
X007425Y030841D01*
X007425Y030916D01*
X007500Y030992D01*
X007650Y030992D01*
X007725Y030916D01*
X007500Y030691D02*
X007275Y030691D01*
X007275Y030992D01*
X007350Y030531D02*
X007425Y030531D01*
X007500Y030456D01*
X007500Y030306D01*
X007425Y030231D01*
X007350Y030231D01*
X007275Y030306D01*
X007275Y030456D01*
X007350Y030531D01*
X007500Y030456D02*
X007575Y030531D01*
X007650Y030531D01*
X007725Y030456D01*
X007725Y030306D01*
X007650Y030231D01*
X007575Y030231D01*
X007500Y030306D01*
X006725Y030306D02*
X006725Y030456D01*
X006650Y030531D01*
X006575Y030531D01*
X006500Y030456D01*
X006500Y030306D01*
X006425Y030231D01*
X006350Y030231D01*
X006275Y030306D01*
X006275Y030456D01*
X006350Y030531D01*
X006425Y030531D01*
X006500Y030456D01*
X006500Y030306D02*
X006575Y030231D01*
X006650Y030231D01*
X006725Y030306D01*
X006650Y030691D02*
X006575Y030691D01*
X006500Y030766D01*
X006500Y030916D01*
X006575Y030992D01*
X006650Y030992D01*
X006725Y030916D01*
X006725Y030766D01*
X006650Y030691D01*
X006500Y030766D02*
X006425Y030691D01*
X006350Y030691D01*
X006275Y030766D01*
X006275Y030916D01*
X006350Y030992D01*
X006425Y030992D01*
X006500Y030916D01*
X005850Y030912D02*
X005400Y030912D01*
X005400Y030612D02*
X005850Y030912D01*
X005850Y030612D02*
X005400Y030612D01*
X005475Y030452D02*
X005400Y030377D01*
X005400Y030227D01*
X005475Y030152D01*
X005775Y030152D01*
X005850Y030227D01*
X005850Y030377D01*
X005775Y030452D01*
X005475Y030452D01*
X005475Y031770D02*
X005400Y031846D01*
X005400Y031996D01*
X005475Y032071D01*
X005775Y032071D01*
X005850Y031996D01*
X005850Y031846D01*
X005775Y031770D01*
X005475Y031770D01*
X005400Y032231D02*
X005400Y032531D01*
X005400Y032691D02*
X005400Y032992D01*
X005625Y032841D02*
X005625Y032691D01*
X005850Y032691D02*
X005400Y032691D01*
X005625Y032381D02*
X005625Y032231D01*
X005850Y032231D02*
X005400Y032231D01*
X006350Y034231D02*
X006425Y034231D01*
X006500Y034306D01*
X006500Y034456D01*
X006575Y034531D01*
X006650Y034531D01*
X006725Y034456D01*
X006725Y034306D01*
X006650Y034231D01*
X006575Y034231D01*
X006500Y034306D01*
X006500Y034456D02*
X006425Y034531D01*
X006350Y034531D01*
X006275Y034456D01*
X006275Y034306D01*
X006350Y034231D01*
X006350Y034691D02*
X006425Y034691D01*
X006500Y034766D01*
X006500Y034916D01*
X006575Y034992D01*
X006650Y034992D01*
X006725Y034916D01*
X006725Y034766D01*
X006650Y034691D01*
X006575Y034691D01*
X006500Y034766D01*
X006500Y034916D02*
X006425Y034992D01*
X006350Y034992D01*
X006275Y034916D01*
X006275Y034766D01*
X006350Y034691D01*
X005650Y034802D02*
X005350Y034802D01*
X005500Y034652D02*
X005500Y034952D01*
X005500Y035691D02*
X005500Y035992D01*
X005303Y036652D02*
X005303Y037102D01*
X005003Y037102D02*
X005303Y036652D01*
X005003Y036652D02*
X005003Y037102D01*
X004846Y037102D02*
X004696Y037102D01*
X004771Y037102D02*
X004771Y036652D01*
X004696Y036652D02*
X004846Y036652D01*
X004536Y036727D02*
X004461Y036652D01*
X004310Y036652D01*
X004235Y036727D01*
X004235Y037027D01*
X004310Y037102D01*
X004461Y037102D01*
X004536Y037027D01*
X004075Y037027D02*
X004000Y037102D01*
X003775Y037102D01*
X003775Y036652D01*
X004000Y036652D01*
X004075Y036727D01*
X004075Y037027D01*
X006275Y038306D02*
X006350Y038231D01*
X006425Y038231D01*
X006500Y038306D01*
X006500Y038531D01*
X006650Y038531D02*
X006350Y038531D01*
X006275Y038456D01*
X006275Y038306D01*
X006650Y038231D02*
X006725Y038306D01*
X006725Y038456D01*
X006650Y038531D01*
X006650Y038691D02*
X006350Y038992D01*
X006650Y038992D01*
X006725Y038916D01*
X006725Y038766D01*
X006650Y038691D01*
X006350Y038691D01*
X006275Y038766D01*
X006275Y038916D01*
X006350Y038992D01*
X007275Y034992D02*
X007275Y034691D01*
X007500Y034691D01*
X007425Y034841D01*
X007425Y034916D01*
X007500Y034992D01*
X007650Y034992D01*
X007725Y034916D01*
X007725Y034766D01*
X007650Y034691D01*
X007650Y034531D02*
X007725Y034456D01*
X007725Y034306D01*
X007650Y034231D01*
X007575Y034231D01*
X007500Y034306D01*
X007500Y034456D01*
X007575Y034531D01*
X007650Y034531D01*
X007500Y034456D02*
X007425Y034531D01*
X007350Y034531D01*
X007275Y034456D01*
X007275Y034306D01*
X007350Y034231D01*
X007425Y034231D01*
X007500Y034306D01*
X008275Y034306D02*
X008275Y034456D01*
X008350Y034531D01*
X008425Y034531D01*
X008500Y034456D01*
X008500Y034306D01*
X008425Y034231D01*
X008350Y034231D01*
X008275Y034306D01*
X008500Y034306D02*
X008575Y034231D01*
X008650Y034231D01*
X008725Y034306D01*
X008725Y034456D01*
X008650Y034531D01*
X008575Y034531D01*
X008500Y034456D01*
X008350Y034691D02*
X008275Y034766D01*
X008275Y034916D01*
X008350Y034992D01*
X008425Y034992D01*
X008725Y034691D01*
X008725Y034992D01*
X009275Y034916D02*
X009275Y034766D01*
X009350Y034691D01*
X009425Y034691D01*
X009500Y034766D01*
X009500Y034992D01*
X009650Y034992D02*
X009350Y034992D01*
X009275Y034916D01*
X009650Y034992D02*
X009725Y034916D01*
X009725Y034766D01*
X009650Y034691D01*
X009350Y034531D02*
X009650Y034231D01*
X009725Y034231D01*
X009275Y034231D02*
X009275Y034531D01*
X009350Y034531D01*
X010275Y034531D02*
X010350Y034531D01*
X010650Y034231D01*
X010725Y034231D01*
X010275Y034231D02*
X010275Y034531D01*
X010500Y034691D02*
X010350Y034841D01*
X010275Y034992D01*
X010500Y034916D02*
X010500Y034691D01*
X010650Y034691D01*
X010725Y034766D01*
X010725Y034916D01*
X010650Y034992D01*
X010575Y034992D01*
X010500Y034916D01*
X011275Y034916D02*
X011350Y034992D01*
X011425Y034992D01*
X011500Y034916D01*
X011575Y034992D01*
X011650Y034992D01*
X011725Y034916D01*
X011725Y034766D01*
X011650Y034691D01*
X011500Y034841D02*
X011500Y034916D01*
X011275Y034916D02*
X011275Y034766D01*
X011350Y034691D01*
X011350Y034531D02*
X011650Y034231D01*
X011725Y034231D01*
X011275Y034231D02*
X011275Y034531D01*
X011350Y034531D01*
X012275Y034531D02*
X012350Y034531D01*
X012650Y034231D01*
X012725Y034231D01*
X012275Y034231D02*
X012275Y034531D01*
X012350Y034691D02*
X012275Y034766D01*
X012275Y034916D01*
X012350Y034992D01*
X012650Y034691D01*
X012725Y034766D01*
X012725Y034916D01*
X012650Y034992D01*
X012350Y034992D01*
X012350Y034691D02*
X012650Y034691D01*
X013275Y034691D02*
X013275Y034992D01*
X013350Y034992D01*
X013650Y034691D01*
X013725Y034691D01*
X013650Y034531D02*
X013575Y034531D01*
X013500Y034456D01*
X013500Y034231D01*
X013650Y034231D01*
X013725Y034306D01*
X013725Y034456D01*
X013650Y034531D01*
X013350Y034381D02*
X013500Y034231D01*
X013350Y034381D02*
X013275Y034531D01*
X014275Y034531D02*
X014350Y034381D01*
X014500Y034231D01*
X014500Y034456D01*
X014575Y034531D01*
X014650Y034531D01*
X014725Y034456D01*
X014725Y034306D01*
X014650Y034231D01*
X014500Y034231D01*
X014500Y034691D02*
X014500Y034992D01*
X014725Y034916D02*
X014275Y034916D01*
X014500Y034691D01*
X015275Y034841D02*
X015725Y034841D01*
X015725Y034691D02*
X015725Y034992D01*
X015425Y034691D02*
X015275Y034841D01*
X015275Y034531D02*
X015350Y034381D01*
X015500Y034231D01*
X015500Y034456D01*
X015575Y034531D01*
X015650Y034531D01*
X015725Y034456D01*
X015725Y034306D01*
X015650Y034231D01*
X015500Y034231D01*
X016275Y034231D02*
X016500Y034231D01*
X016425Y034381D01*
X016425Y034456D01*
X016500Y034531D01*
X016650Y034531D01*
X016725Y034456D01*
X016725Y034306D01*
X016650Y034231D01*
X016275Y034231D02*
X016275Y034531D01*
X016350Y034691D02*
X016425Y034691D01*
X016500Y034766D01*
X016500Y034916D01*
X016575Y034992D01*
X016650Y034992D01*
X016725Y034916D01*
X016725Y034766D01*
X016650Y034691D01*
X016575Y034691D01*
X016500Y034766D01*
X016500Y034916D02*
X016425Y034992D01*
X016350Y034992D01*
X016275Y034916D01*
X016275Y034766D01*
X016350Y034691D01*
X017275Y034691D02*
X017500Y034691D01*
X017425Y034841D01*
X017425Y034916D01*
X017500Y034992D01*
X017650Y034992D01*
X017725Y034916D01*
X017725Y034766D01*
X017650Y034691D01*
X017650Y034531D02*
X017500Y034531D01*
X017425Y034456D01*
X017425Y034381D01*
X017500Y034231D01*
X017275Y034231D01*
X017275Y034531D01*
X017275Y034691D02*
X017275Y034992D01*
X017650Y034531D02*
X017725Y034456D01*
X017725Y034306D01*
X017650Y034231D01*
X018275Y034231D02*
X018500Y034231D01*
X018425Y034381D01*
X018425Y034456D01*
X018500Y034531D01*
X018650Y034531D01*
X018725Y034456D01*
X018725Y034306D01*
X018650Y034231D01*
X018275Y034231D02*
X018275Y034531D01*
X018350Y034691D02*
X018275Y034766D01*
X018275Y034916D01*
X018350Y034992D01*
X018425Y034992D01*
X018725Y034691D01*
X018725Y034992D01*
X019275Y034916D02*
X019275Y034766D01*
X019350Y034691D01*
X019425Y034691D01*
X019500Y034766D01*
X019500Y034992D01*
X019650Y034992D02*
X019350Y034992D01*
X019275Y034916D01*
X019650Y034992D02*
X019725Y034916D01*
X019725Y034766D01*
X019650Y034691D01*
X019500Y034531D02*
X019500Y034231D01*
X019275Y034456D01*
X019725Y034456D01*
X020275Y034456D02*
X020500Y034231D01*
X020500Y034531D01*
X020500Y034691D02*
X020350Y034841D01*
X020275Y034992D01*
X020500Y034916D02*
X020500Y034691D01*
X020650Y034691D01*
X020725Y034766D01*
X020725Y034916D01*
X020650Y034992D01*
X020575Y034992D01*
X020500Y034916D01*
X020725Y034456D02*
X020275Y034456D01*
X021275Y034456D02*
X021500Y034231D01*
X021500Y034531D01*
X021650Y034691D02*
X021725Y034766D01*
X021725Y034916D01*
X021650Y034992D01*
X021575Y034992D01*
X021500Y034916D01*
X021500Y034841D01*
X021500Y034916D02*
X021425Y034992D01*
X021350Y034992D01*
X021275Y034916D01*
X021275Y034766D01*
X021350Y034691D01*
X021275Y034456D02*
X021725Y034456D01*
X022275Y034456D02*
X022500Y034231D01*
X022500Y034531D01*
X022650Y034691D02*
X022350Y034691D01*
X022275Y034766D01*
X022275Y034916D01*
X022350Y034992D01*
X022650Y034691D01*
X022725Y034766D01*
X022725Y034916D01*
X022650Y034992D01*
X022350Y034992D01*
X022275Y034456D02*
X022725Y034456D01*
X023275Y034456D02*
X023350Y034531D01*
X023425Y034531D01*
X023500Y034456D01*
X023575Y034531D01*
X023650Y034531D01*
X023725Y034456D01*
X023725Y034306D01*
X023650Y034231D01*
X023500Y034381D02*
X023500Y034456D01*
X023275Y034456D02*
X023275Y034306D01*
X023350Y034231D01*
X023275Y034691D02*
X023275Y034992D01*
X023350Y034992D01*
X023650Y034691D01*
X023725Y034691D01*
X024275Y034916D02*
X024500Y034691D01*
X024500Y034992D01*
X024725Y034916D02*
X024275Y034916D01*
X024350Y034531D02*
X024425Y034531D01*
X024500Y034456D01*
X024575Y034531D01*
X024650Y034531D01*
X024725Y034456D01*
X024725Y034306D01*
X024650Y034231D01*
X024500Y034381D02*
X024500Y034456D01*
X024350Y034531D02*
X024275Y034456D01*
X024275Y034306D01*
X024350Y034231D01*
X025275Y034306D02*
X025275Y034456D01*
X025350Y034531D01*
X025425Y034531D01*
X025500Y034456D01*
X025575Y034531D01*
X025650Y034531D01*
X025725Y034456D01*
X025725Y034306D01*
X025650Y034231D01*
X025500Y034381D02*
X025500Y034456D01*
X025425Y034691D02*
X025275Y034841D01*
X025725Y034841D01*
X025725Y034691D02*
X025725Y034992D01*
X026275Y034916D02*
X026350Y034992D01*
X026425Y034992D01*
X026500Y034916D01*
X026500Y034766D01*
X026425Y034691D01*
X026350Y034691D01*
X026275Y034766D01*
X026275Y034916D01*
X026500Y034916D02*
X026575Y034992D01*
X026650Y034992D01*
X026725Y034916D01*
X026725Y034766D01*
X026650Y034691D01*
X026575Y034691D01*
X026500Y034766D01*
X026425Y034531D02*
X026350Y034531D01*
X026275Y034456D01*
X026275Y034306D01*
X026350Y034231D01*
X026425Y034531D02*
X026725Y034231D01*
X026725Y034531D01*
X027275Y034456D02*
X027275Y034306D01*
X027350Y034231D01*
X027275Y034456D02*
X027350Y034531D01*
X027425Y034531D01*
X027725Y034231D01*
X027725Y034531D01*
X027650Y034691D02*
X027725Y034766D01*
X027725Y034916D01*
X027650Y034992D01*
X027500Y034992D01*
X027425Y034916D01*
X027425Y034841D01*
X027500Y034691D01*
X027275Y034691D01*
X027275Y034992D01*
X028275Y034916D02*
X028275Y034766D01*
X028350Y034691D01*
X028350Y034531D02*
X028275Y034456D01*
X028275Y034306D01*
X028350Y034231D01*
X028350Y034531D02*
X028425Y034531D01*
X028725Y034231D01*
X028725Y034531D01*
X028725Y034691D02*
X028425Y034992D01*
X028350Y034992D01*
X028275Y034916D01*
X028725Y034992D02*
X028725Y034691D01*
X029275Y034766D02*
X029350Y034691D01*
X029425Y034691D01*
X029500Y034766D01*
X029500Y034992D01*
X029650Y034992D02*
X029350Y034992D01*
X029275Y034916D01*
X029275Y034766D01*
X029650Y034691D02*
X029725Y034766D01*
X029725Y034916D01*
X029650Y034992D01*
X030275Y034992D02*
X030350Y034841D01*
X030500Y034691D01*
X030500Y034916D01*
X030575Y034992D01*
X030650Y034992D01*
X030725Y034916D01*
X030725Y034766D01*
X030650Y034691D01*
X030500Y034691D01*
X030725Y034531D02*
X030725Y034231D01*
X030725Y034381D02*
X030275Y034381D01*
X030425Y034231D01*
X029725Y034231D02*
X029725Y034531D01*
X029725Y034381D02*
X029275Y034381D01*
X029425Y034231D01*
X031275Y034381D02*
X031725Y034381D01*
X031725Y034231D02*
X031725Y034531D01*
X031650Y034691D02*
X031725Y034766D01*
X031725Y034916D01*
X031650Y034992D01*
X031575Y034992D01*
X031500Y034916D01*
X031500Y034841D01*
X031500Y034916D02*
X031425Y034992D01*
X031350Y034992D01*
X031275Y034916D01*
X031275Y034766D01*
X031350Y034691D01*
X031275Y034381D02*
X031425Y034231D01*
X032275Y034381D02*
X032725Y034381D01*
X032725Y034231D02*
X032725Y034531D01*
X032650Y034691D02*
X032350Y034691D01*
X032275Y034766D01*
X032275Y034916D01*
X032350Y034992D01*
X032650Y034691D01*
X032725Y034766D01*
X032725Y034916D01*
X032650Y034992D01*
X032350Y034992D01*
X032275Y034381D02*
X032425Y034231D01*
X033275Y034306D02*
X033275Y034456D01*
X033350Y034531D01*
X033650Y034231D01*
X033725Y034306D01*
X033725Y034456D01*
X033650Y034531D01*
X033350Y034531D01*
X033275Y034691D02*
X033275Y034992D01*
X033350Y034992D01*
X033650Y034691D01*
X033725Y034691D01*
X033650Y034231D02*
X033350Y034231D01*
X033275Y034306D01*
X034275Y034306D02*
X034275Y034456D01*
X034350Y034531D01*
X034650Y034231D01*
X034725Y034306D01*
X034725Y034456D01*
X034650Y034531D01*
X034350Y034531D01*
X034500Y034691D02*
X034500Y034992D01*
X034725Y034916D02*
X034275Y034916D01*
X034500Y034691D01*
X034275Y034306D02*
X034350Y034231D01*
X034650Y034231D01*
X035275Y034306D02*
X035275Y034456D01*
X035350Y034531D01*
X035650Y034231D01*
X035725Y034306D01*
X035725Y034456D01*
X035650Y034531D01*
X035350Y034531D01*
X035425Y034691D02*
X035275Y034841D01*
X035725Y034841D01*
X035725Y034691D02*
X035725Y034992D01*
X036350Y034802D02*
X036650Y034802D01*
X036500Y034652D02*
X036500Y034952D01*
X035650Y034231D02*
X035350Y034231D01*
X035275Y034306D01*
X037084Y032527D02*
X037084Y032227D01*
X036933Y032377D02*
X037234Y032377D01*
X037394Y032527D02*
X037469Y032602D01*
X037619Y032602D01*
X037694Y032527D01*
X037694Y032452D01*
X037619Y032377D01*
X037694Y032302D01*
X037694Y032227D01*
X037619Y032152D01*
X037469Y032152D01*
X037394Y032227D01*
X037544Y032377D02*
X037619Y032377D01*
X037854Y032302D02*
X038004Y032152D01*
X038154Y032302D01*
X038154Y032602D01*
X038315Y032527D02*
X038390Y032602D01*
X038540Y032602D01*
X038615Y032527D01*
X038615Y032452D01*
X038540Y032377D01*
X038615Y032302D01*
X038615Y032227D01*
X038540Y032152D01*
X038390Y032152D01*
X038315Y032227D01*
X038465Y032377D02*
X038540Y032377D01*
X038540Y031602D02*
X038615Y031527D01*
X038615Y031452D01*
X038540Y031377D01*
X038390Y031377D01*
X038315Y031452D01*
X038315Y031527D01*
X038390Y031602D01*
X038540Y031602D01*
X038540Y031377D02*
X038615Y031302D01*
X038615Y031227D01*
X038540Y031152D01*
X038390Y031152D01*
X038315Y031227D01*
X038315Y031302D01*
X038390Y031377D01*
X038154Y031302D02*
X038004Y031152D01*
X037854Y031302D01*
X037854Y031602D01*
X038154Y031602D02*
X038154Y031302D01*
X037694Y031152D02*
X037394Y031152D01*
X037544Y031152D02*
X037544Y031602D01*
X037394Y031452D01*
X037234Y031377D02*
X036933Y031377D01*
X037084Y031527D02*
X037084Y031227D01*
X037854Y032302D02*
X037854Y032602D01*
X037929Y033152D02*
X037854Y033227D01*
X037929Y033152D02*
X038079Y033152D01*
X038154Y033227D01*
X038154Y033377D01*
X038079Y033452D01*
X038004Y033452D01*
X037854Y033377D01*
X037854Y033602D01*
X038154Y033602D01*
X038315Y033602D02*
X038315Y033302D01*
X038465Y033152D01*
X038615Y033302D01*
X038615Y033602D01*
X038615Y034152D02*
X038615Y034602D01*
X038315Y034602D02*
X038315Y034152D01*
X038158Y034152D02*
X038008Y034152D01*
X038083Y034152D02*
X038083Y034602D01*
X038008Y034602D02*
X038158Y034602D01*
X038315Y034602D02*
X038615Y034152D01*
X037848Y034302D02*
X037848Y034602D01*
X037848Y034302D02*
X037697Y034152D01*
X037547Y034302D01*
X037547Y034602D01*
X037544Y033527D02*
X037544Y033227D01*
X037394Y033377D02*
X037694Y033377D01*
X035650Y038231D02*
X035350Y038231D01*
X035275Y038306D01*
X035275Y038456D01*
X035350Y038531D01*
X035650Y038231D01*
X035725Y038306D01*
X035725Y038456D01*
X035650Y038531D01*
X035350Y038531D01*
X035350Y038691D02*
X035275Y038766D01*
X035275Y038916D01*
X035350Y038992D01*
X035425Y038992D01*
X035500Y038916D01*
X035575Y038992D01*
X035650Y038992D01*
X035725Y038916D01*
X035725Y038766D01*
X035650Y038691D01*
X035500Y038841D02*
X035500Y038916D01*
X036350Y038552D02*
X036650Y038552D01*
X036500Y038402D02*
X036500Y038702D01*
X037425Y038627D02*
X037725Y038627D01*
X030725Y030531D02*
X030725Y030231D01*
X030725Y030381D02*
X030275Y030381D01*
X030425Y030231D01*
X025350Y034231D02*
X025275Y034306D01*
X021500Y038231D02*
X021500Y038531D01*
X021500Y038691D02*
X021425Y038841D01*
X021425Y038916D01*
X021500Y038992D01*
X021650Y038992D01*
X021725Y038916D01*
X021725Y038766D01*
X021650Y038691D01*
X021500Y038691D02*
X021275Y038691D01*
X021275Y038992D01*
X021275Y038456D02*
X021500Y038231D01*
X021725Y038456D02*
X021275Y038456D01*
X005725Y027837D02*
X005725Y027687D01*
X005650Y027612D01*
X005350Y027912D01*
X005650Y027912D01*
X005725Y027837D01*
X005650Y027612D02*
X005350Y027612D01*
X005275Y027687D01*
X005275Y027837D01*
X005350Y027912D01*
X005350Y027452D02*
X005275Y027377D01*
X005275Y027227D01*
X005350Y027152D01*
X005425Y027152D01*
X005500Y027227D01*
X005500Y027452D01*
X005650Y027452D02*
X005350Y027452D01*
X005650Y027452D02*
X005725Y027377D01*
X005725Y027227D01*
X005650Y027152D01*
X003725Y026492D02*
X003575Y026341D01*
X003575Y026416D02*
X003575Y026191D01*
X003725Y026191D02*
X003275Y026191D01*
X003275Y026416D01*
X003350Y026492D01*
X003500Y026492D01*
X003575Y026416D01*
X003725Y026031D02*
X003275Y026031D01*
X003275Y025731D02*
X003725Y025731D01*
X003575Y025881D01*
X003725Y026031D01*
X003500Y025571D02*
X003575Y025496D01*
X003575Y025270D01*
X003725Y025270D02*
X003275Y025270D01*
X003275Y025496D01*
X003350Y025571D01*
X003500Y025571D01*
X010275Y012352D02*
X010275Y012052D01*
X010425Y011902D01*
X010575Y012052D01*
X010575Y012352D01*
X010735Y012352D02*
X010886Y012352D01*
X010810Y012352D02*
X010810Y011902D01*
X010735Y011902D02*
X010886Y011902D01*
X011042Y011902D02*
X011042Y012352D01*
X011343Y011902D01*
X011343Y012352D01*
X011421Y011352D02*
X011196Y011352D01*
X011196Y010902D01*
X011421Y010902D01*
X011496Y010977D01*
X011496Y011277D01*
X011421Y011352D01*
X011036Y011352D02*
X011036Y010902D01*
X010735Y011352D01*
X010735Y010902D01*
X010575Y010977D02*
X010500Y010902D01*
X010350Y010902D01*
X010275Y010977D01*
X010275Y011277D01*
X010350Y011352D01*
X010500Y011352D01*
X010575Y011277D01*
X010575Y011127D02*
X010425Y011127D01*
X010575Y011127D02*
X010575Y010977D01*
X010475Y009623D02*
X010475Y009322D01*
X010175Y009623D01*
X010100Y009623D01*
X010025Y009548D01*
X010025Y009398D01*
X010100Y009322D01*
X010100Y009162D02*
X010025Y009087D01*
X010025Y008937D01*
X010100Y008862D01*
X010175Y008862D01*
X010250Y008937D01*
X010250Y009087D01*
X010325Y009162D01*
X010400Y009162D01*
X010475Y009087D01*
X010475Y008937D01*
X010400Y008862D01*
X010400Y008702D02*
X010100Y008702D01*
X010025Y008627D01*
X010025Y008402D01*
X010475Y008402D01*
X010475Y008627D01*
X010400Y008702D01*
X011025Y008627D02*
X011025Y008402D01*
X011475Y008402D01*
X011475Y008627D01*
X011400Y008702D01*
X011100Y008702D01*
X011025Y008627D01*
X011100Y008862D02*
X011175Y008862D01*
X011250Y008937D01*
X011250Y009087D01*
X011325Y009162D01*
X011400Y009162D01*
X011475Y009087D01*
X011475Y008937D01*
X011400Y008862D01*
X011100Y008862D02*
X011025Y008937D01*
X011025Y009087D01*
X011100Y009162D01*
X011100Y009322D02*
X011025Y009398D01*
X011025Y009548D01*
X011100Y009623D01*
X011175Y009623D01*
X011250Y009548D01*
X011325Y009623D01*
X011400Y009623D01*
X011475Y009548D01*
X011475Y009398D01*
X011400Y009322D01*
X011250Y009473D02*
X011250Y009548D01*
X012025Y009548D02*
X012250Y009322D01*
X012250Y009623D01*
X012475Y009548D02*
X012025Y009548D01*
X012100Y009162D02*
X012025Y009087D01*
X012025Y008937D01*
X012100Y008862D01*
X012175Y008862D01*
X012250Y008937D01*
X012250Y009087D01*
X012325Y009162D01*
X012400Y009162D01*
X012475Y009087D01*
X012475Y008937D01*
X012400Y008862D01*
X012400Y008702D02*
X012100Y008702D01*
X012025Y008627D01*
X012025Y008402D01*
X012475Y008402D01*
X012475Y008627D01*
X012400Y008702D01*
X013025Y008627D02*
X013025Y008402D01*
X013475Y008402D01*
X013325Y008402D02*
X013325Y008627D01*
X013250Y008702D01*
X013100Y008702D01*
X013025Y008627D01*
X013100Y008862D02*
X013400Y008862D01*
X013475Y008937D01*
X013475Y009087D01*
X013400Y009162D01*
X013100Y009162D01*
X013025Y009087D01*
X013025Y008937D01*
X013100Y008862D01*
X013025Y009322D02*
X013025Y009623D01*
X013025Y009473D02*
X013475Y009473D01*
X013475Y009783D02*
X013475Y010083D01*
X013475Y009933D02*
X013025Y009933D01*
X013175Y009783D01*
X014025Y009783D02*
X014325Y010083D01*
X014400Y010083D01*
X014475Y010008D01*
X014475Y009858D01*
X014400Y009783D01*
X014475Y009623D02*
X014475Y009322D01*
X014475Y009473D02*
X014025Y009473D01*
X014025Y009783D02*
X014025Y010083D01*
X014100Y009162D02*
X014400Y009162D01*
X014475Y009087D01*
X014475Y008937D01*
X014400Y008862D01*
X014100Y008862D01*
X014025Y008937D01*
X014025Y009087D01*
X014100Y009162D01*
X014250Y008702D02*
X014175Y008627D01*
X014175Y008402D01*
X014025Y008402D02*
X014475Y008402D01*
X014475Y008627D01*
X014400Y008702D01*
X014250Y008702D01*
X015025Y008862D02*
X015475Y008862D01*
X015475Y009162D01*
X015475Y009322D02*
X015025Y009322D01*
X015025Y009548D01*
X015100Y009623D01*
X015400Y009623D01*
X015475Y009548D01*
X015475Y009322D01*
X015250Y009012D02*
X015250Y008862D01*
X015025Y008862D02*
X015025Y009162D01*
X015475Y008702D02*
X015475Y008402D01*
X015025Y008402D01*
X016025Y008402D02*
X016475Y008402D01*
X016475Y008702D01*
X016475Y008862D02*
X016025Y008862D01*
X016025Y009162D01*
X016025Y009322D02*
X016025Y009548D01*
X016100Y009623D01*
X016400Y009623D01*
X016475Y009548D01*
X016475Y009322D01*
X016025Y009322D01*
X016250Y009012D02*
X016250Y008862D01*
X016475Y008862D02*
X016475Y009162D01*
X017025Y009162D02*
X017025Y008862D01*
X017475Y008862D01*
X017475Y009162D01*
X017475Y009322D02*
X017025Y009322D01*
X017025Y009548D01*
X017100Y009623D01*
X017400Y009623D01*
X017475Y009548D01*
X017475Y009322D01*
X017250Y009012D02*
X017250Y008862D01*
X017475Y008702D02*
X017475Y008402D01*
X017025Y008402D01*
X018025Y008402D02*
X018475Y008402D01*
X018475Y008702D01*
X018475Y008862D02*
X018025Y008862D01*
X018025Y009162D01*
X018025Y009322D02*
X018025Y009548D01*
X018100Y009623D01*
X018400Y009623D01*
X018475Y009548D01*
X018475Y009322D01*
X018025Y009322D01*
X018250Y009012D02*
X018250Y008862D01*
X018475Y008862D02*
X018475Y009162D01*
X019025Y009162D02*
X019025Y008862D01*
X019475Y008862D01*
X019475Y009162D01*
X019475Y009322D02*
X019025Y009322D01*
X019025Y009548D01*
X019100Y009623D01*
X019400Y009623D01*
X019475Y009548D01*
X019475Y009322D01*
X019250Y009012D02*
X019250Y008862D01*
X019475Y008702D02*
X019475Y008402D01*
X019025Y008402D01*
X020025Y008402D02*
X020475Y008402D01*
X020475Y008702D01*
X020475Y008862D02*
X020025Y008862D01*
X020025Y009162D01*
X020025Y009322D02*
X020025Y009548D01*
X020100Y009623D01*
X020400Y009623D01*
X020475Y009548D01*
X020475Y009322D01*
X020025Y009322D01*
X020250Y009012D02*
X020250Y008862D01*
X020475Y008862D02*
X020475Y009162D01*
X021025Y009162D02*
X021025Y008862D01*
X021475Y008862D01*
X021475Y009162D01*
X021475Y009322D02*
X021025Y009322D01*
X021025Y009548D01*
X021100Y009623D01*
X021400Y009623D01*
X021475Y009548D01*
X021475Y009322D01*
X021250Y009012D02*
X021250Y008862D01*
X021475Y008702D02*
X021475Y008402D01*
X021025Y008402D01*
X022025Y008402D02*
X022475Y008402D01*
X022475Y008702D01*
X022475Y008862D02*
X022025Y008862D01*
X022025Y009162D01*
X022025Y009322D02*
X022025Y009548D01*
X022100Y009623D01*
X022400Y009623D01*
X022475Y009548D01*
X022475Y009322D01*
X022025Y009322D01*
X022250Y009012D02*
X022250Y008862D01*
X022475Y008862D02*
X022475Y009162D01*
X023025Y009162D02*
X023025Y008862D01*
X023025Y009012D02*
X023475Y009012D01*
X023475Y009322D02*
X023475Y009623D01*
X023475Y009473D02*
X023025Y009473D01*
X023175Y009322D01*
X023175Y008702D02*
X023250Y008627D01*
X023250Y008402D01*
X023250Y008627D02*
X023325Y008702D01*
X023400Y008702D01*
X023475Y008627D01*
X023475Y008402D01*
X023025Y008402D01*
X023025Y008627D01*
X023100Y008702D01*
X023175Y008702D01*
X024025Y008627D02*
X024025Y008402D01*
X024475Y008402D01*
X024475Y008627D01*
X024400Y008702D01*
X024325Y008702D01*
X024250Y008627D01*
X024250Y008402D01*
X024250Y008627D02*
X024175Y008702D01*
X024100Y008702D01*
X024025Y008627D01*
X024025Y008862D02*
X024025Y009162D01*
X024025Y009012D02*
X024475Y009012D01*
X024475Y009322D02*
X024175Y009623D01*
X024100Y009623D01*
X024025Y009548D01*
X024025Y009398D01*
X024100Y009322D01*
X024475Y009322D02*
X024475Y009623D01*
X025025Y009548D02*
X025100Y009623D01*
X025175Y009623D01*
X025250Y009548D01*
X025325Y009623D01*
X025400Y009623D01*
X025475Y009548D01*
X025475Y009398D01*
X025400Y009322D01*
X025250Y009473D02*
X025250Y009548D01*
X025025Y009548D02*
X025025Y009398D01*
X025100Y009322D01*
X025025Y009162D02*
X025025Y008862D01*
X025025Y009012D02*
X025475Y009012D01*
X025400Y008702D02*
X025475Y008627D01*
X025475Y008402D01*
X025025Y008402D01*
X025025Y008627D01*
X025100Y008702D01*
X025175Y008702D01*
X025250Y008627D01*
X025250Y008402D01*
X025250Y008627D02*
X025325Y008702D01*
X025400Y008702D01*
X026025Y008627D02*
X026025Y008402D01*
X026475Y008402D01*
X026475Y008627D01*
X026400Y008702D01*
X026325Y008702D01*
X026250Y008627D01*
X026250Y008402D01*
X026250Y008627D02*
X026175Y008702D01*
X026100Y008702D01*
X026025Y008627D01*
X026025Y008862D02*
X026025Y009162D01*
X026025Y009012D02*
X026475Y009012D01*
X026250Y009322D02*
X026250Y009623D01*
X026475Y009548D02*
X026025Y009548D01*
X026250Y009322D01*
X027025Y009322D02*
X027250Y009322D01*
X027175Y009473D01*
X027175Y009548D01*
X027250Y009623D01*
X027400Y009623D01*
X027475Y009548D01*
X027475Y009398D01*
X027400Y009322D01*
X027475Y009012D02*
X027025Y009012D01*
X027025Y008862D02*
X027025Y009162D01*
X027025Y009322D02*
X027025Y009623D01*
X027100Y008702D02*
X027025Y008627D01*
X027025Y008402D01*
X027475Y008402D01*
X027475Y008627D01*
X027400Y008702D01*
X027325Y008702D01*
X027250Y008627D01*
X027250Y008402D01*
X027250Y008627D02*
X027175Y008702D01*
X027100Y008702D01*
X028025Y008627D02*
X028025Y008402D01*
X028475Y008402D01*
X028475Y008627D01*
X028400Y008702D01*
X028325Y008702D01*
X028250Y008627D01*
X028250Y008402D01*
X028250Y008627D02*
X028175Y008702D01*
X028100Y008702D01*
X028025Y008627D01*
X028025Y008862D02*
X028025Y009162D01*
X028025Y009012D02*
X028475Y009012D01*
X028400Y009322D02*
X028250Y009322D01*
X028250Y009548D01*
X028325Y009623D01*
X028400Y009623D01*
X028475Y009548D01*
X028475Y009398D01*
X028400Y009322D01*
X028250Y009322D02*
X028100Y009473D01*
X028025Y009623D01*
X029025Y009623D02*
X029100Y009623D01*
X029400Y009322D01*
X029475Y009322D01*
X029475Y009012D02*
X029025Y009012D01*
X029025Y008862D02*
X029025Y009162D01*
X029025Y009322D02*
X029025Y009623D01*
X029100Y008702D02*
X029175Y008702D01*
X029250Y008627D01*
X029250Y008402D01*
X029250Y008627D02*
X029325Y008702D01*
X029400Y008702D01*
X029475Y008627D01*
X029475Y008402D01*
X029025Y008402D01*
X029025Y008627D01*
X029100Y008702D01*
X030025Y008627D02*
X030025Y008402D01*
X030475Y008402D01*
X030475Y008627D01*
X030400Y008702D01*
X030325Y008702D01*
X030250Y008627D01*
X030250Y008402D01*
X030250Y008627D02*
X030175Y008702D01*
X030100Y008702D01*
X030025Y008627D01*
X030025Y008862D02*
X030025Y009162D01*
X030025Y009012D02*
X030475Y009012D01*
X030400Y009322D02*
X030325Y009322D01*
X030250Y009398D01*
X030250Y009548D01*
X030325Y009623D01*
X030400Y009623D01*
X030475Y009548D01*
X030475Y009398D01*
X030400Y009322D01*
X030250Y009398D02*
X030175Y009322D01*
X030100Y009322D01*
X030025Y009398D01*
X030025Y009548D01*
X030100Y009623D01*
X030175Y009623D01*
X030250Y009548D01*
X031025Y009623D02*
X031100Y009623D01*
X031400Y009322D01*
X031475Y009322D01*
X031475Y009623D01*
X031025Y009623D02*
X031025Y009322D01*
X031025Y009162D02*
X031400Y009162D01*
X031475Y009087D01*
X031475Y008937D01*
X031400Y008862D01*
X031025Y008862D01*
X031100Y008702D02*
X031175Y008702D01*
X031250Y008627D01*
X031250Y008402D01*
X031250Y008627D02*
X031325Y008702D01*
X031400Y008702D01*
X031475Y008627D01*
X031475Y008402D01*
X031025Y008402D01*
X031025Y008627D01*
X031100Y008702D01*
X032025Y008702D02*
X032325Y008702D01*
X032475Y008552D01*
X032325Y008402D01*
X032025Y008402D01*
X032100Y008862D02*
X032025Y008937D01*
X032025Y009087D01*
X032100Y009162D01*
X032100Y009322D02*
X032025Y009398D01*
X032025Y009548D01*
X032100Y009623D01*
X032400Y009623D02*
X032475Y009548D01*
X032475Y009398D01*
X032400Y009322D01*
X032100Y009322D01*
X032400Y009162D02*
X032475Y009087D01*
X032475Y008937D01*
X032400Y008862D01*
X032100Y008862D01*
X032719Y010902D02*
X032869Y010902D01*
X032944Y010977D01*
X032944Y011127D01*
X032794Y011127D01*
X032944Y011277D02*
X032869Y011352D01*
X032719Y011352D01*
X032644Y011277D01*
X032644Y010977D01*
X032719Y010902D01*
X033104Y010902D02*
X033104Y011352D01*
X033404Y010902D01*
X033404Y011352D01*
X033565Y011352D02*
X033790Y011352D01*
X033865Y011277D01*
X033865Y010977D01*
X033790Y010902D01*
X033565Y010902D01*
X033565Y011352D01*
X033640Y011902D02*
X033565Y011977D01*
X033565Y012052D01*
X033640Y012127D01*
X033790Y012127D01*
X033865Y012052D01*
X033865Y011977D01*
X033790Y011902D01*
X033640Y011902D01*
X033640Y012127D02*
X033565Y012202D01*
X033565Y012277D01*
X033640Y012352D01*
X033790Y012352D01*
X033865Y012277D01*
X033865Y012202D01*
X033790Y012127D01*
X033404Y012052D02*
X033404Y012352D01*
X033104Y012352D02*
X033104Y012052D01*
X033254Y011902D01*
X033404Y012052D01*
X032944Y011902D02*
X032644Y011902D01*
X032794Y011902D02*
X032794Y012352D01*
X032644Y012202D01*
X032484Y012127D02*
X032183Y012127D01*
X032334Y012277D02*
X032334Y011977D01*
X024365Y011977D02*
X024290Y011902D01*
X024140Y011902D01*
X024065Y011977D01*
X023904Y012052D02*
X023904Y012352D01*
X024065Y012277D02*
X024140Y012352D01*
X024290Y012352D01*
X024365Y012277D01*
X024365Y012202D01*
X024290Y012127D01*
X024365Y012052D01*
X024365Y011977D01*
X024290Y012127D02*
X024215Y012127D01*
X023904Y012052D02*
X023754Y011902D01*
X023604Y012052D01*
X023604Y012352D01*
X023444Y012277D02*
X023444Y012202D01*
X023369Y012127D01*
X023444Y012052D01*
X023444Y011977D01*
X023369Y011902D01*
X023219Y011902D01*
X023144Y011977D01*
X023294Y012127D02*
X023369Y012127D01*
X023444Y012277D02*
X023369Y012352D01*
X023219Y012352D01*
X023144Y012277D01*
X022984Y012127D02*
X022683Y012127D01*
X022834Y012277D02*
X022834Y011977D01*
X023219Y011352D02*
X023144Y011277D01*
X023144Y010977D01*
X023219Y010902D01*
X023369Y010902D01*
X023444Y010977D01*
X023444Y011127D01*
X023294Y011127D01*
X023444Y011277D02*
X023369Y011352D01*
X023219Y011352D01*
X023604Y011352D02*
X023604Y010902D01*
X023904Y010902D02*
X023604Y011352D01*
X023904Y011352D02*
X023904Y010902D01*
X024065Y010902D02*
X024290Y010902D01*
X024365Y010977D01*
X024365Y011277D01*
X024290Y011352D01*
X024065Y011352D01*
X024065Y010902D01*
X022475Y010008D02*
X022475Y009858D01*
X022400Y009783D01*
X022325Y009783D01*
X022250Y009858D01*
X022250Y010008D01*
X022325Y010083D01*
X022400Y010083D01*
X022475Y010008D01*
X022250Y010008D02*
X022175Y010083D01*
X022100Y010083D01*
X022025Y010008D01*
X022025Y009858D01*
X022100Y009783D01*
X022175Y009783D01*
X022250Y009858D01*
X021475Y009783D02*
X021400Y009783D01*
X021100Y010083D01*
X021025Y010083D01*
X021025Y009783D01*
X020475Y009858D02*
X020475Y010008D01*
X020400Y010083D01*
X020325Y010083D01*
X020250Y010008D01*
X020250Y009783D01*
X020400Y009783D01*
X020475Y009858D01*
X020250Y009783D02*
X020100Y009933D01*
X020025Y010083D01*
X019475Y010008D02*
X019475Y009858D01*
X019400Y009783D01*
X019250Y009783D02*
X019175Y009933D01*
X019175Y010008D01*
X019250Y010083D01*
X019400Y010083D01*
X019475Y010008D01*
X019250Y009783D02*
X019025Y009783D01*
X019025Y010083D01*
X018475Y010008D02*
X018025Y010008D01*
X018250Y009783D01*
X018250Y010083D01*
X017475Y010008D02*
X017475Y009858D01*
X017400Y009783D01*
X017250Y009933D02*
X017250Y010008D01*
X017325Y010083D01*
X017400Y010083D01*
X017475Y010008D01*
X017250Y010008D02*
X017175Y010083D01*
X017100Y010083D01*
X017025Y010008D01*
X017025Y009858D01*
X017100Y009783D01*
X016475Y009783D02*
X016175Y010083D01*
X016100Y010083D01*
X016025Y010008D01*
X016025Y009858D01*
X016100Y009783D01*
X016475Y009783D02*
X016475Y010083D01*
X015475Y010083D02*
X015475Y009783D01*
X015475Y009933D02*
X015025Y009933D01*
X015175Y009783D01*
X019775Y010977D02*
X019850Y010902D01*
X020000Y010902D01*
X020075Y010977D01*
X020075Y011127D01*
X019925Y011127D01*
X019775Y011277D02*
X019775Y010977D01*
X019775Y011277D02*
X019850Y011352D01*
X020000Y011352D01*
X020075Y011277D01*
X020235Y011352D02*
X020536Y010902D01*
X020536Y011352D01*
X020696Y011352D02*
X020921Y011352D01*
X020996Y011277D01*
X020996Y010977D01*
X020921Y010902D01*
X020696Y010902D01*
X020696Y011352D01*
X020235Y011352D02*
X020235Y010902D01*
X020310Y011902D02*
X020235Y011977D01*
X020310Y011902D02*
X020461Y011902D01*
X020536Y011977D01*
X020536Y012127D01*
X020461Y012202D01*
X020386Y012202D01*
X020235Y012127D01*
X020235Y012352D01*
X020536Y012352D01*
X020696Y012352D02*
X020696Y012052D01*
X020846Y011902D01*
X020996Y012052D01*
X020996Y012352D01*
X020075Y012127D02*
X019775Y012127D01*
X019925Y012277D02*
X019925Y011977D01*
X009475Y009623D02*
X009475Y009322D01*
X009475Y009473D02*
X009025Y009473D01*
X009175Y009322D01*
X009100Y009162D02*
X009025Y009087D01*
X009025Y008937D01*
X009100Y008862D01*
X009175Y008862D01*
X009250Y008937D01*
X009250Y009087D01*
X009325Y009162D01*
X009400Y009162D01*
X009475Y009087D01*
X009475Y008937D01*
X009400Y008862D01*
X009400Y008702D02*
X009100Y008702D01*
X009025Y008627D01*
X009025Y008402D01*
X009475Y008402D01*
X009475Y008627D01*
X009400Y008702D01*
D13*
X023295Y005692D02*
X023295Y004922D01*
X023552Y005435D02*
X023809Y005692D01*
X023809Y004922D01*
X024087Y005050D02*
X024215Y004922D01*
X024601Y004922D01*
X024601Y005435D01*
X024879Y005692D02*
X025007Y005692D01*
X025007Y004922D01*
X024879Y004922D02*
X025136Y004922D01*
X025535Y005050D02*
X025664Y004922D01*
X025535Y005050D02*
X025535Y005564D01*
X025407Y005435D02*
X025664Y005435D01*
X025935Y005435D02*
X026063Y005435D01*
X026063Y004922D01*
X025935Y004922D02*
X026191Y004922D01*
X026463Y004922D02*
X026463Y005692D01*
X026719Y005435D01*
X026976Y005692D01*
X026976Y004922D01*
X027254Y004922D02*
X027511Y004922D01*
X027383Y004922D02*
X027383Y005435D01*
X027254Y005435D01*
X027383Y005692D02*
X027383Y005821D01*
X027782Y005307D02*
X027782Y005050D01*
X027911Y004922D01*
X028296Y004922D01*
X028574Y004922D02*
X028574Y005435D01*
X028574Y005179D02*
X028831Y005435D01*
X028960Y005435D01*
X029234Y005307D02*
X029234Y005050D01*
X029363Y004922D01*
X029619Y004922D01*
X029748Y005050D01*
X029748Y005307D01*
X029619Y005435D01*
X029363Y005435D01*
X029234Y005307D01*
X028296Y005435D02*
X027911Y005435D01*
X027782Y005307D01*
X026063Y005692D02*
X026063Y005821D01*
X024087Y005435D02*
X024087Y005050D01*
X023552Y005435D02*
X023295Y005692D01*
X030818Y005692D02*
X031332Y005692D01*
X031075Y005692D02*
X031075Y004922D01*
X031610Y004922D02*
X031610Y005435D01*
X031610Y005179D02*
X031867Y005435D01*
X031995Y005435D01*
X032398Y005435D02*
X032655Y005435D01*
X032783Y005307D01*
X032783Y004922D01*
X032398Y004922D01*
X032270Y005050D01*
X032398Y005179D01*
X032783Y005179D01*
X033061Y005435D02*
X033190Y005435D01*
X033190Y004922D01*
X033318Y004922D02*
X033061Y004922D01*
X033589Y004922D02*
X033589Y005435D01*
X033975Y005435D01*
X034103Y005307D01*
X034103Y004922D01*
X034381Y005050D02*
X034381Y005307D01*
X034510Y005435D01*
X034767Y005435D01*
X034895Y005307D01*
X034895Y005179D01*
X034381Y005179D01*
X034381Y005050D02*
X034510Y004922D01*
X034767Y004922D01*
X035173Y004922D02*
X035173Y005435D01*
X035173Y005179D02*
X035430Y005435D01*
X035558Y005435D01*
X033190Y005692D02*
X033190Y005821D01*
D14*
X039532Y001874D02*
X039534Y001924D01*
X039540Y001974D01*
X039550Y002023D01*
X039564Y002071D01*
X039581Y002118D01*
X039602Y002163D01*
X039627Y002207D01*
X039655Y002248D01*
X039687Y002287D01*
X039721Y002324D01*
X039758Y002358D01*
X039798Y002388D01*
X039840Y002415D01*
X039884Y002439D01*
X039930Y002460D01*
X039977Y002476D01*
X040025Y002489D01*
X040075Y002498D01*
X040124Y002503D01*
X040175Y002504D01*
X040225Y002501D01*
X040274Y002494D01*
X040323Y002483D01*
X040371Y002468D01*
X040417Y002450D01*
X040462Y002428D01*
X040505Y002402D01*
X040546Y002373D01*
X040585Y002341D01*
X040621Y002306D01*
X040653Y002268D01*
X040683Y002228D01*
X040710Y002185D01*
X040733Y002141D01*
X040752Y002095D01*
X040768Y002047D01*
X040780Y001998D01*
X040788Y001949D01*
X040792Y001899D01*
X040792Y001849D01*
X040788Y001799D01*
X040780Y001750D01*
X040768Y001701D01*
X040752Y001653D01*
X040733Y001607D01*
X040710Y001563D01*
X040683Y001520D01*
X040653Y001480D01*
X040621Y001442D01*
X040585Y001407D01*
X040546Y001375D01*
X040505Y001346D01*
X040462Y001320D01*
X040417Y001298D01*
X040371Y001280D01*
X040323Y001265D01*
X040274Y001254D01*
X040225Y001247D01*
X040175Y001244D01*
X040124Y001245D01*
X040075Y001250D01*
X040025Y001259D01*
X039977Y001272D01*
X039930Y001288D01*
X039884Y001309D01*
X039840Y001333D01*
X039798Y001360D01*
X039758Y001390D01*
X039721Y001424D01*
X039687Y001461D01*
X039655Y001500D01*
X039627Y001541D01*
X039602Y001585D01*
X039581Y001630D01*
X039564Y001677D01*
X039550Y001725D01*
X039540Y001774D01*
X039534Y001824D01*
X039532Y001874D01*
X003238Y001874D02*
X003240Y001924D01*
X003246Y001974D01*
X003256Y002023D01*
X003270Y002071D01*
X003287Y002118D01*
X003308Y002163D01*
X003333Y002207D01*
X003361Y002248D01*
X003393Y002287D01*
X003427Y002324D01*
X003464Y002358D01*
X003504Y002388D01*
X003546Y002415D01*
X003590Y002439D01*
X003636Y002460D01*
X003683Y002476D01*
X003731Y002489D01*
X003781Y002498D01*
X003830Y002503D01*
X003881Y002504D01*
X003931Y002501D01*
X003980Y002494D01*
X004029Y002483D01*
X004077Y002468D01*
X004123Y002450D01*
X004168Y002428D01*
X004211Y002402D01*
X004252Y002373D01*
X004291Y002341D01*
X004327Y002306D01*
X004359Y002268D01*
X004389Y002228D01*
X004416Y002185D01*
X004439Y002141D01*
X004458Y002095D01*
X004474Y002047D01*
X004486Y001998D01*
X004494Y001949D01*
X004498Y001899D01*
X004498Y001849D01*
X004494Y001799D01*
X004486Y001750D01*
X004474Y001701D01*
X004458Y001653D01*
X004439Y001607D01*
X004416Y001563D01*
X004389Y001520D01*
X004359Y001480D01*
X004327Y001442D01*
X004291Y001407D01*
X004252Y001375D01*
X004211Y001346D01*
X004168Y001320D01*
X004123Y001298D01*
X004077Y001280D01*
X004029Y001265D01*
X003980Y001254D01*
X003931Y001247D01*
X003881Y001244D01*
X003830Y001245D01*
X003781Y001250D01*
X003731Y001259D01*
X003683Y001272D01*
X003636Y001288D01*
X003590Y001309D01*
X003546Y001333D01*
X003504Y001360D01*
X003464Y001390D01*
X003427Y001424D01*
X003393Y001461D01*
X003361Y001500D01*
X003333Y001541D01*
X003308Y001585D01*
X003287Y001630D01*
X003270Y001677D01*
X003256Y001725D01*
X003246Y001774D01*
X003240Y001824D01*
X003238Y001874D01*
X003238Y038168D02*
X003240Y038218D01*
X003246Y038268D01*
X003256Y038317D01*
X003270Y038365D01*
X003287Y038412D01*
X003308Y038457D01*
X003333Y038501D01*
X003361Y038542D01*
X003393Y038581D01*
X003427Y038618D01*
X003464Y038652D01*
X003504Y038682D01*
X003546Y038709D01*
X003590Y038733D01*
X003636Y038754D01*
X003683Y038770D01*
X003731Y038783D01*
X003781Y038792D01*
X003830Y038797D01*
X003881Y038798D01*
X003931Y038795D01*
X003980Y038788D01*
X004029Y038777D01*
X004077Y038762D01*
X004123Y038744D01*
X004168Y038722D01*
X004211Y038696D01*
X004252Y038667D01*
X004291Y038635D01*
X004327Y038600D01*
X004359Y038562D01*
X004389Y038522D01*
X004416Y038479D01*
X004439Y038435D01*
X004458Y038389D01*
X004474Y038341D01*
X004486Y038292D01*
X004494Y038243D01*
X004498Y038193D01*
X004498Y038143D01*
X004494Y038093D01*
X004486Y038044D01*
X004474Y037995D01*
X004458Y037947D01*
X004439Y037901D01*
X004416Y037857D01*
X004389Y037814D01*
X004359Y037774D01*
X004327Y037736D01*
X004291Y037701D01*
X004252Y037669D01*
X004211Y037640D01*
X004168Y037614D01*
X004123Y037592D01*
X004077Y037574D01*
X004029Y037559D01*
X003980Y037548D01*
X003931Y037541D01*
X003881Y037538D01*
X003830Y037539D01*
X003781Y037544D01*
X003731Y037553D01*
X003683Y037566D01*
X003636Y037582D01*
X003590Y037603D01*
X003546Y037627D01*
X003504Y037654D01*
X003464Y037684D01*
X003427Y037718D01*
X003393Y037755D01*
X003361Y037794D01*
X003333Y037835D01*
X003308Y037879D01*
X003287Y037924D01*
X003270Y037971D01*
X003256Y038019D01*
X003246Y038068D01*
X003240Y038118D01*
X003238Y038168D01*
X039532Y038168D02*
X039534Y038218D01*
X039540Y038268D01*
X039550Y038317D01*
X039564Y038365D01*
X039581Y038412D01*
X039602Y038457D01*
X039627Y038501D01*
X039655Y038542D01*
X039687Y038581D01*
X039721Y038618D01*
X039758Y038652D01*
X039798Y038682D01*
X039840Y038709D01*
X039884Y038733D01*
X039930Y038754D01*
X039977Y038770D01*
X040025Y038783D01*
X040075Y038792D01*
X040124Y038797D01*
X040175Y038798D01*
X040225Y038795D01*
X040274Y038788D01*
X040323Y038777D01*
X040371Y038762D01*
X040417Y038744D01*
X040462Y038722D01*
X040505Y038696D01*
X040546Y038667D01*
X040585Y038635D01*
X040621Y038600D01*
X040653Y038562D01*
X040683Y038522D01*
X040710Y038479D01*
X040733Y038435D01*
X040752Y038389D01*
X040768Y038341D01*
X040780Y038292D01*
X040788Y038243D01*
X040792Y038193D01*
X040792Y038143D01*
X040788Y038093D01*
X040780Y038044D01*
X040768Y037995D01*
X040752Y037947D01*
X040733Y037901D01*
X040710Y037857D01*
X040683Y037814D01*
X040653Y037774D01*
X040621Y037736D01*
X040585Y037701D01*
X040546Y037669D01*
X040505Y037640D01*
X040462Y037614D01*
X040417Y037592D01*
X040371Y037574D01*
X040323Y037559D01*
X040274Y037548D01*
X040225Y037541D01*
X040175Y037538D01*
X040124Y037539D01*
X040075Y037544D01*
X040025Y037553D01*
X039977Y037566D01*
X039930Y037582D01*
X039884Y037603D01*
X039840Y037627D01*
X039798Y037654D01*
X039758Y037684D01*
X039721Y037718D01*
X039687Y037755D01*
X039655Y037794D01*
X039627Y037835D01*
X039602Y037879D01*
X039581Y037924D01*
X039564Y037971D01*
X039550Y038019D01*
X039540Y038068D01*
X039534Y038118D01*
X039532Y038168D01*
D15*
X038000Y038127D02*
X038000Y035127D01*
X036000Y035127D01*
X036000Y038127D01*
X038000Y038127D01*
X036000Y038127D02*
X006000Y038127D01*
X006000Y035127D01*
X036000Y035127D01*
X039000Y034877D02*
X039000Y030877D01*
X041000Y030877D01*
X041000Y034877D01*
X039000Y034877D01*
X036000Y030127D02*
X036000Y027127D01*
X006000Y027127D01*
X006000Y030127D01*
X036000Y030127D01*
X040250Y026877D02*
X040250Y012877D01*
X022250Y012877D01*
X022250Y026877D01*
X040250Y026877D01*
X040250Y012627D02*
X034250Y012627D01*
X034250Y010627D01*
X040250Y010627D01*
X040250Y012627D01*
X039750Y008877D02*
X039750Y008377D01*
X039250Y008627D02*
X039252Y008671D01*
X039258Y008715D01*
X039268Y008758D01*
X039281Y008800D01*
X039298Y008841D01*
X039319Y008880D01*
X039343Y008917D01*
X039370Y008952D01*
X039400Y008984D01*
X039433Y009014D01*
X039469Y009040D01*
X039506Y009064D01*
X039546Y009083D01*
X039587Y009100D01*
X039630Y009112D01*
X039673Y009121D01*
X039717Y009126D01*
X039761Y009127D01*
X039805Y009124D01*
X039849Y009117D01*
X039892Y009106D01*
X039934Y009092D01*
X039974Y009074D01*
X040013Y009052D01*
X040049Y009028D01*
X040083Y009000D01*
X040115Y008969D01*
X040144Y008935D01*
X040170Y008899D01*
X040192Y008861D01*
X040211Y008821D01*
X040226Y008779D01*
X040238Y008737D01*
X040246Y008693D01*
X040250Y008649D01*
X040250Y008605D01*
X040246Y008561D01*
X040238Y008517D01*
X040226Y008475D01*
X040211Y008433D01*
X040192Y008393D01*
X040170Y008355D01*
X040144Y008319D01*
X040115Y008285D01*
X040083Y008254D01*
X040049Y008226D01*
X040013Y008202D01*
X039974Y008180D01*
X039934Y008162D01*
X039892Y008148D01*
X039849Y008137D01*
X039805Y008130D01*
X039761Y008127D01*
X039717Y008128D01*
X039673Y008133D01*
X039630Y008142D01*
X039587Y008154D01*
X039546Y008171D01*
X039506Y008190D01*
X039469Y008214D01*
X039433Y008240D01*
X039400Y008270D01*
X039370Y008302D01*
X039343Y008337D01*
X039319Y008374D01*
X039298Y008413D01*
X039281Y008454D01*
X039268Y008496D01*
X039258Y008539D01*
X039252Y008583D01*
X039250Y008627D01*
X039500Y008627D02*
X040000Y008627D01*
X037750Y007377D02*
X037752Y007421D01*
X037758Y007465D01*
X037768Y007508D01*
X037781Y007550D01*
X037798Y007591D01*
X037819Y007630D01*
X037843Y007667D01*
X037870Y007702D01*
X037900Y007734D01*
X037933Y007764D01*
X037969Y007790D01*
X038006Y007814D01*
X038046Y007833D01*
X038087Y007850D01*
X038130Y007862D01*
X038173Y007871D01*
X038217Y007876D01*
X038261Y007877D01*
X038305Y007874D01*
X038349Y007867D01*
X038392Y007856D01*
X038434Y007842D01*
X038474Y007824D01*
X038513Y007802D01*
X038549Y007778D01*
X038583Y007750D01*
X038615Y007719D01*
X038644Y007685D01*
X038670Y007649D01*
X038692Y007611D01*
X038711Y007571D01*
X038726Y007529D01*
X038738Y007487D01*
X038746Y007443D01*
X038750Y007399D01*
X038750Y007355D01*
X038746Y007311D01*
X038738Y007267D01*
X038726Y007225D01*
X038711Y007183D01*
X038692Y007143D01*
X038670Y007105D01*
X038644Y007069D01*
X038615Y007035D01*
X038583Y007004D01*
X038549Y006976D01*
X038513Y006952D01*
X038474Y006930D01*
X038434Y006912D01*
X038392Y006898D01*
X038349Y006887D01*
X038305Y006880D01*
X038261Y006877D01*
X038217Y006878D01*
X038173Y006883D01*
X038130Y006892D01*
X038087Y006904D01*
X038046Y006921D01*
X038006Y006940D01*
X037969Y006964D01*
X037933Y006990D01*
X037900Y007020D01*
X037870Y007052D01*
X037843Y007087D01*
X037819Y007124D01*
X037798Y007163D01*
X037781Y007204D01*
X037768Y007246D01*
X037758Y007289D01*
X037752Y007333D01*
X037750Y007377D01*
X035455Y007377D02*
X035458Y007514D01*
X035468Y007651D01*
X035485Y007787D01*
X035509Y007922D01*
X035539Y008056D01*
X035575Y008188D01*
X035618Y008319D01*
X035668Y008447D01*
X035723Y008572D01*
X035785Y008695D01*
X035853Y008814D01*
X035926Y008930D01*
X036005Y009042D01*
X036089Y009150D01*
X036179Y009254D01*
X036274Y009353D01*
X036373Y009448D01*
X036477Y009538D01*
X036585Y009622D01*
X036697Y009701D01*
X036813Y009774D01*
X036932Y009842D01*
X037055Y009904D01*
X037180Y009959D01*
X037308Y010009D01*
X037439Y010052D01*
X037571Y010088D01*
X037705Y010118D01*
X037840Y010142D01*
X037976Y010159D01*
X038113Y010169D01*
X038250Y010172D01*
X038387Y010169D01*
X038524Y010159D01*
X038660Y010142D01*
X038795Y010118D01*
X038929Y010088D01*
X039061Y010052D01*
X039192Y010009D01*
X039320Y009959D01*
X039445Y009904D01*
X039568Y009842D01*
X039687Y009774D01*
X039803Y009701D01*
X039915Y009622D01*
X040023Y009538D01*
X040127Y009448D01*
X040226Y009353D01*
X040321Y009254D01*
X040411Y009150D01*
X040495Y009042D01*
X040574Y008930D01*
X040647Y008814D01*
X040715Y008695D01*
X040777Y008572D01*
X040832Y008447D01*
X040882Y008319D01*
X040925Y008188D01*
X040961Y008056D01*
X040991Y007922D01*
X041015Y007787D01*
X041032Y007651D01*
X041042Y007514D01*
X041045Y007377D01*
X041042Y007240D01*
X041032Y007103D01*
X041015Y006967D01*
X040991Y006832D01*
X040961Y006698D01*
X040925Y006566D01*
X040882Y006435D01*
X040832Y006307D01*
X040777Y006182D01*
X040715Y006059D01*
X040647Y005940D01*
X040574Y005824D01*
X040495Y005712D01*
X040411Y005604D01*
X040321Y005500D01*
X040226Y005401D01*
X040127Y005306D01*
X040023Y005216D01*
X039915Y005132D01*
X039803Y005053D01*
X039687Y004980D01*
X039568Y004912D01*
X039445Y004850D01*
X039320Y004795D01*
X039192Y004745D01*
X039061Y004702D01*
X038929Y004666D01*
X038795Y004636D01*
X038660Y004612D01*
X038524Y004595D01*
X038387Y004585D01*
X038250Y004582D01*
X038113Y004585D01*
X037976Y004595D01*
X037840Y004612D01*
X037705Y004636D01*
X037571Y004666D01*
X037439Y004702D01*
X037308Y004745D01*
X037180Y004795D01*
X037055Y004850D01*
X036932Y004912D01*
X036813Y004980D01*
X036697Y005053D01*
X036585Y005132D01*
X036477Y005216D01*
X036373Y005306D01*
X036274Y005401D01*
X036179Y005500D01*
X036089Y005604D01*
X036005Y005712D01*
X035926Y005824D01*
X035853Y005940D01*
X035785Y006059D01*
X035723Y006182D01*
X035668Y006307D01*
X035618Y006435D01*
X035575Y006566D01*
X035539Y006698D01*
X035509Y006832D01*
X035485Y006967D01*
X035468Y007103D01*
X035458Y007240D01*
X035455Y007377D01*
X032750Y007127D02*
X032750Y008127D01*
X008750Y008127D01*
X008750Y007127D01*
X032750Y007127D01*
X032750Y003877D02*
X032750Y001377D01*
X035250Y001377D01*
X035250Y003877D01*
X032750Y003877D01*
X032250Y003877D02*
X032250Y001377D01*
X029750Y001377D01*
X029750Y003877D01*
X032250Y003877D01*
X030250Y002627D02*
X030252Y002681D01*
X030258Y002735D01*
X030268Y002788D01*
X030281Y002841D01*
X030298Y002892D01*
X030319Y002942D01*
X030344Y002990D01*
X030372Y003037D01*
X030403Y003081D01*
X030437Y003123D01*
X030474Y003162D01*
X030514Y003199D01*
X030557Y003232D01*
X030602Y003263D01*
X030649Y003290D01*
X030697Y003313D01*
X030748Y003333D01*
X030799Y003350D01*
X030852Y003362D01*
X030905Y003371D01*
X030959Y003376D01*
X031014Y003377D01*
X031068Y003374D01*
X031121Y003367D01*
X031174Y003356D01*
X031227Y003342D01*
X031278Y003324D01*
X031327Y003302D01*
X031375Y003277D01*
X031421Y003248D01*
X031465Y003216D01*
X031506Y003181D01*
X031544Y003143D01*
X031580Y003102D01*
X031613Y003059D01*
X031643Y003014D01*
X031669Y002966D01*
X031692Y002917D01*
X031711Y002866D01*
X031726Y002815D01*
X031738Y002762D01*
X031746Y002708D01*
X031750Y002654D01*
X031750Y002600D01*
X031746Y002546D01*
X031738Y002492D01*
X031726Y002439D01*
X031711Y002388D01*
X031692Y002337D01*
X031669Y002288D01*
X031643Y002240D01*
X031613Y002195D01*
X031580Y002152D01*
X031544Y002111D01*
X031506Y002073D01*
X031465Y002038D01*
X031421Y002006D01*
X031375Y001977D01*
X031327Y001952D01*
X031278Y001930D01*
X031227Y001912D01*
X031174Y001898D01*
X031121Y001887D01*
X031068Y001880D01*
X031014Y001877D01*
X030959Y001878D01*
X030905Y001883D01*
X030852Y001892D01*
X030799Y001904D01*
X030748Y001921D01*
X030697Y001941D01*
X030649Y001964D01*
X030602Y001991D01*
X030557Y002022D01*
X030514Y002055D01*
X030474Y002092D01*
X030437Y002131D01*
X030403Y002173D01*
X030372Y002217D01*
X030344Y002264D01*
X030319Y002312D01*
X030298Y002362D01*
X030281Y002413D01*
X030268Y002466D01*
X030258Y002519D01*
X030252Y002573D01*
X030250Y002627D01*
X029250Y003877D02*
X029250Y001377D01*
X026750Y001377D01*
X026750Y003877D01*
X029250Y003877D01*
X027250Y002627D02*
X027252Y002681D01*
X027258Y002735D01*
X027268Y002788D01*
X027281Y002841D01*
X027298Y002892D01*
X027319Y002942D01*
X027344Y002990D01*
X027372Y003037D01*
X027403Y003081D01*
X027437Y003123D01*
X027474Y003162D01*
X027514Y003199D01*
X027557Y003232D01*
X027602Y003263D01*
X027649Y003290D01*
X027697Y003313D01*
X027748Y003333D01*
X027799Y003350D01*
X027852Y003362D01*
X027905Y003371D01*
X027959Y003376D01*
X028014Y003377D01*
X028068Y003374D01*
X028121Y003367D01*
X028174Y003356D01*
X028227Y003342D01*
X028278Y003324D01*
X028327Y003302D01*
X028375Y003277D01*
X028421Y003248D01*
X028465Y003216D01*
X028506Y003181D01*
X028544Y003143D01*
X028580Y003102D01*
X028613Y003059D01*
X028643Y003014D01*
X028669Y002966D01*
X028692Y002917D01*
X028711Y002866D01*
X028726Y002815D01*
X028738Y002762D01*
X028746Y002708D01*
X028750Y002654D01*
X028750Y002600D01*
X028746Y002546D01*
X028738Y002492D01*
X028726Y002439D01*
X028711Y002388D01*
X028692Y002337D01*
X028669Y002288D01*
X028643Y002240D01*
X028613Y002195D01*
X028580Y002152D01*
X028544Y002111D01*
X028506Y002073D01*
X028465Y002038D01*
X028421Y002006D01*
X028375Y001977D01*
X028327Y001952D01*
X028278Y001930D01*
X028227Y001912D01*
X028174Y001898D01*
X028121Y001887D01*
X028068Y001880D01*
X028014Y001877D01*
X027959Y001878D01*
X027905Y001883D01*
X027852Y001892D01*
X027799Y001904D01*
X027748Y001921D01*
X027697Y001941D01*
X027649Y001964D01*
X027602Y001991D01*
X027557Y002022D01*
X027514Y002055D01*
X027474Y002092D01*
X027437Y002131D01*
X027403Y002173D01*
X027372Y002217D01*
X027344Y002264D01*
X027319Y002312D01*
X027298Y002362D01*
X027281Y002413D01*
X027268Y002466D01*
X027258Y002519D01*
X027252Y002573D01*
X027250Y002627D01*
X026250Y003877D02*
X026250Y001377D01*
X023750Y001377D01*
X023750Y003877D01*
X026250Y003877D01*
X024250Y002627D02*
X024252Y002681D01*
X024258Y002735D01*
X024268Y002788D01*
X024281Y002841D01*
X024298Y002892D01*
X024319Y002942D01*
X024344Y002990D01*
X024372Y003037D01*
X024403Y003081D01*
X024437Y003123D01*
X024474Y003162D01*
X024514Y003199D01*
X024557Y003232D01*
X024602Y003263D01*
X024649Y003290D01*
X024697Y003313D01*
X024748Y003333D01*
X024799Y003350D01*
X024852Y003362D01*
X024905Y003371D01*
X024959Y003376D01*
X025014Y003377D01*
X025068Y003374D01*
X025121Y003367D01*
X025174Y003356D01*
X025227Y003342D01*
X025278Y003324D01*
X025327Y003302D01*
X025375Y003277D01*
X025421Y003248D01*
X025465Y003216D01*
X025506Y003181D01*
X025544Y003143D01*
X025580Y003102D01*
X025613Y003059D01*
X025643Y003014D01*
X025669Y002966D01*
X025692Y002917D01*
X025711Y002866D01*
X025726Y002815D01*
X025738Y002762D01*
X025746Y002708D01*
X025750Y002654D01*
X025750Y002600D01*
X025746Y002546D01*
X025738Y002492D01*
X025726Y002439D01*
X025711Y002388D01*
X025692Y002337D01*
X025669Y002288D01*
X025643Y002240D01*
X025613Y002195D01*
X025580Y002152D01*
X025544Y002111D01*
X025506Y002073D01*
X025465Y002038D01*
X025421Y002006D01*
X025375Y001977D01*
X025327Y001952D01*
X025278Y001930D01*
X025227Y001912D01*
X025174Y001898D01*
X025121Y001887D01*
X025068Y001880D01*
X025014Y001877D01*
X024959Y001878D01*
X024905Y001883D01*
X024852Y001892D01*
X024799Y001904D01*
X024748Y001921D01*
X024697Y001941D01*
X024649Y001964D01*
X024602Y001991D01*
X024557Y002022D01*
X024514Y002055D01*
X024474Y002092D01*
X024437Y002131D01*
X024403Y002173D01*
X024372Y002217D01*
X024344Y002264D01*
X024319Y002312D01*
X024298Y002362D01*
X024281Y002413D01*
X024268Y002466D01*
X024258Y002519D01*
X024252Y002573D01*
X024250Y002627D01*
X023250Y003877D02*
X023250Y001377D01*
X020750Y001377D01*
X020750Y003877D01*
X023250Y003877D01*
X021250Y002627D02*
X021252Y002681D01*
X021258Y002735D01*
X021268Y002788D01*
X021281Y002841D01*
X021298Y002892D01*
X021319Y002942D01*
X021344Y002990D01*
X021372Y003037D01*
X021403Y003081D01*
X021437Y003123D01*
X021474Y003162D01*
X021514Y003199D01*
X021557Y003232D01*
X021602Y003263D01*
X021649Y003290D01*
X021697Y003313D01*
X021748Y003333D01*
X021799Y003350D01*
X021852Y003362D01*
X021905Y003371D01*
X021959Y003376D01*
X022014Y003377D01*
X022068Y003374D01*
X022121Y003367D01*
X022174Y003356D01*
X022227Y003342D01*
X022278Y003324D01*
X022327Y003302D01*
X022375Y003277D01*
X022421Y003248D01*
X022465Y003216D01*
X022506Y003181D01*
X022544Y003143D01*
X022580Y003102D01*
X022613Y003059D01*
X022643Y003014D01*
X022669Y002966D01*
X022692Y002917D01*
X022711Y002866D01*
X022726Y002815D01*
X022738Y002762D01*
X022746Y002708D01*
X022750Y002654D01*
X022750Y002600D01*
X022746Y002546D01*
X022738Y002492D01*
X022726Y002439D01*
X022711Y002388D01*
X022692Y002337D01*
X022669Y002288D01*
X022643Y002240D01*
X022613Y002195D01*
X022580Y002152D01*
X022544Y002111D01*
X022506Y002073D01*
X022465Y002038D01*
X022421Y002006D01*
X022375Y001977D01*
X022327Y001952D01*
X022278Y001930D01*
X022227Y001912D01*
X022174Y001898D01*
X022121Y001887D01*
X022068Y001880D01*
X022014Y001877D01*
X021959Y001878D01*
X021905Y001883D01*
X021852Y001892D01*
X021799Y001904D01*
X021748Y001921D01*
X021697Y001941D01*
X021649Y001964D01*
X021602Y001991D01*
X021557Y002022D01*
X021514Y002055D01*
X021474Y002092D01*
X021437Y002131D01*
X021403Y002173D01*
X021372Y002217D01*
X021344Y002264D01*
X021319Y002312D01*
X021298Y002362D01*
X021281Y002413D01*
X021268Y002466D01*
X021258Y002519D01*
X021252Y002573D01*
X021250Y002627D01*
X020250Y003877D02*
X020250Y001377D01*
X017750Y001377D01*
X017750Y003877D01*
X020250Y003877D01*
X018250Y002627D02*
X018252Y002681D01*
X018258Y002735D01*
X018268Y002788D01*
X018281Y002841D01*
X018298Y002892D01*
X018319Y002942D01*
X018344Y002990D01*
X018372Y003037D01*
X018403Y003081D01*
X018437Y003123D01*
X018474Y003162D01*
X018514Y003199D01*
X018557Y003232D01*
X018602Y003263D01*
X018649Y003290D01*
X018697Y003313D01*
X018748Y003333D01*
X018799Y003350D01*
X018852Y003362D01*
X018905Y003371D01*
X018959Y003376D01*
X019014Y003377D01*
X019068Y003374D01*
X019121Y003367D01*
X019174Y003356D01*
X019227Y003342D01*
X019278Y003324D01*
X019327Y003302D01*
X019375Y003277D01*
X019421Y003248D01*
X019465Y003216D01*
X019506Y003181D01*
X019544Y003143D01*
X019580Y003102D01*
X019613Y003059D01*
X019643Y003014D01*
X019669Y002966D01*
X019692Y002917D01*
X019711Y002866D01*
X019726Y002815D01*
X019738Y002762D01*
X019746Y002708D01*
X019750Y002654D01*
X019750Y002600D01*
X019746Y002546D01*
X019738Y002492D01*
X019726Y002439D01*
X019711Y002388D01*
X019692Y002337D01*
X019669Y002288D01*
X019643Y002240D01*
X019613Y002195D01*
X019580Y002152D01*
X019544Y002111D01*
X019506Y002073D01*
X019465Y002038D01*
X019421Y002006D01*
X019375Y001977D01*
X019327Y001952D01*
X019278Y001930D01*
X019227Y001912D01*
X019174Y001898D01*
X019121Y001887D01*
X019068Y001880D01*
X019014Y001877D01*
X018959Y001878D01*
X018905Y001883D01*
X018852Y001892D01*
X018799Y001904D01*
X018748Y001921D01*
X018697Y001941D01*
X018649Y001964D01*
X018602Y001991D01*
X018557Y002022D01*
X018514Y002055D01*
X018474Y002092D01*
X018437Y002131D01*
X018403Y002173D01*
X018372Y002217D01*
X018344Y002264D01*
X018319Y002312D01*
X018298Y002362D01*
X018281Y002413D01*
X018268Y002466D01*
X018258Y002519D01*
X018252Y002573D01*
X018250Y002627D01*
X017250Y003877D02*
X017250Y001377D01*
X014750Y001377D01*
X014750Y003877D01*
X017250Y003877D01*
X015250Y002627D02*
X015252Y002681D01*
X015258Y002735D01*
X015268Y002788D01*
X015281Y002841D01*
X015298Y002892D01*
X015319Y002942D01*
X015344Y002990D01*
X015372Y003037D01*
X015403Y003081D01*
X015437Y003123D01*
X015474Y003162D01*
X015514Y003199D01*
X015557Y003232D01*
X015602Y003263D01*
X015649Y003290D01*
X015697Y003313D01*
X015748Y003333D01*
X015799Y003350D01*
X015852Y003362D01*
X015905Y003371D01*
X015959Y003376D01*
X016014Y003377D01*
X016068Y003374D01*
X016121Y003367D01*
X016174Y003356D01*
X016227Y003342D01*
X016278Y003324D01*
X016327Y003302D01*
X016375Y003277D01*
X016421Y003248D01*
X016465Y003216D01*
X016506Y003181D01*
X016544Y003143D01*
X016580Y003102D01*
X016613Y003059D01*
X016643Y003014D01*
X016669Y002966D01*
X016692Y002917D01*
X016711Y002866D01*
X016726Y002815D01*
X016738Y002762D01*
X016746Y002708D01*
X016750Y002654D01*
X016750Y002600D01*
X016746Y002546D01*
X016738Y002492D01*
X016726Y002439D01*
X016711Y002388D01*
X016692Y002337D01*
X016669Y002288D01*
X016643Y002240D01*
X016613Y002195D01*
X016580Y002152D01*
X016544Y002111D01*
X016506Y002073D01*
X016465Y002038D01*
X016421Y002006D01*
X016375Y001977D01*
X016327Y001952D01*
X016278Y001930D01*
X016227Y001912D01*
X016174Y001898D01*
X016121Y001887D01*
X016068Y001880D01*
X016014Y001877D01*
X015959Y001878D01*
X015905Y001883D01*
X015852Y001892D01*
X015799Y001904D01*
X015748Y001921D01*
X015697Y001941D01*
X015649Y001964D01*
X015602Y001991D01*
X015557Y002022D01*
X015514Y002055D01*
X015474Y002092D01*
X015437Y002131D01*
X015403Y002173D01*
X015372Y002217D01*
X015344Y002264D01*
X015319Y002312D01*
X015298Y002362D01*
X015281Y002413D01*
X015268Y002466D01*
X015258Y002519D01*
X015252Y002573D01*
X015250Y002627D01*
X013250Y004127D02*
X013250Y001127D01*
X010250Y001127D01*
X010250Y004127D01*
X013250Y004127D01*
X011875Y003002D02*
X011875Y002752D01*
X012125Y002752D01*
X012125Y002502D01*
X011875Y002502D01*
X011875Y002252D01*
X011625Y002252D01*
X011625Y002502D01*
X011375Y002502D01*
X011375Y002752D01*
X011625Y002752D01*
X011625Y003002D01*
X011875Y003002D01*
X011000Y002627D02*
X011002Y002681D01*
X011008Y002735D01*
X011018Y002788D01*
X011031Y002841D01*
X011048Y002892D01*
X011069Y002942D01*
X011094Y002990D01*
X011122Y003037D01*
X011153Y003081D01*
X011187Y003123D01*
X011224Y003162D01*
X011264Y003199D01*
X011307Y003232D01*
X011352Y003263D01*
X011399Y003290D01*
X011447Y003313D01*
X011498Y003333D01*
X011549Y003350D01*
X011602Y003362D01*
X011655Y003371D01*
X011709Y003376D01*
X011764Y003377D01*
X011818Y003374D01*
X011871Y003367D01*
X011924Y003356D01*
X011977Y003342D01*
X012028Y003324D01*
X012077Y003302D01*
X012125Y003277D01*
X012171Y003248D01*
X012215Y003216D01*
X012256Y003181D01*
X012294Y003143D01*
X012330Y003102D01*
X012363Y003059D01*
X012393Y003014D01*
X012419Y002966D01*
X012442Y002917D01*
X012461Y002866D01*
X012476Y002815D01*
X012488Y002762D01*
X012496Y002708D01*
X012500Y002654D01*
X012500Y002600D01*
X012496Y002546D01*
X012488Y002492D01*
X012476Y002439D01*
X012461Y002388D01*
X012442Y002337D01*
X012419Y002288D01*
X012393Y002240D01*
X012363Y002195D01*
X012330Y002152D01*
X012294Y002111D01*
X012256Y002073D01*
X012215Y002038D01*
X012171Y002006D01*
X012125Y001977D01*
X012077Y001952D01*
X012028Y001930D01*
X011977Y001912D01*
X011924Y001898D01*
X011871Y001887D01*
X011818Y001880D01*
X011764Y001877D01*
X011709Y001878D01*
X011655Y001883D01*
X011602Y001892D01*
X011549Y001904D01*
X011498Y001921D01*
X011447Y001941D01*
X011399Y001964D01*
X011352Y001991D01*
X011307Y002022D01*
X011264Y002055D01*
X011224Y002092D01*
X011187Y002131D01*
X011153Y002173D01*
X011122Y002217D01*
X011094Y002264D01*
X011069Y002312D01*
X011048Y002362D01*
X011031Y002413D01*
X011018Y002466D01*
X011008Y002519D01*
X011002Y002573D01*
X011000Y002627D01*
X011250Y002627D02*
X011252Y002671D01*
X011258Y002715D01*
X011268Y002758D01*
X011281Y002800D01*
X011298Y002841D01*
X011319Y002880D01*
X011343Y002917D01*
X011370Y002952D01*
X011400Y002984D01*
X011433Y003014D01*
X011469Y003040D01*
X011506Y003064D01*
X011546Y003083D01*
X011587Y003100D01*
X011630Y003112D01*
X011673Y003121D01*
X011717Y003126D01*
X011761Y003127D01*
X011805Y003124D01*
X011849Y003117D01*
X011892Y003106D01*
X011934Y003092D01*
X011974Y003074D01*
X012013Y003052D01*
X012049Y003028D01*
X012083Y003000D01*
X012115Y002969D01*
X012144Y002935D01*
X012170Y002899D01*
X012192Y002861D01*
X012211Y002821D01*
X012226Y002779D01*
X012238Y002737D01*
X012246Y002693D01*
X012250Y002649D01*
X012250Y002605D01*
X012246Y002561D01*
X012238Y002517D01*
X012226Y002475D01*
X012211Y002433D01*
X012192Y002393D01*
X012170Y002355D01*
X012144Y002319D01*
X012115Y002285D01*
X012083Y002254D01*
X012049Y002226D01*
X012013Y002202D01*
X011974Y002180D01*
X011934Y002162D01*
X011892Y002148D01*
X011849Y002137D01*
X011805Y002130D01*
X011761Y002127D01*
X011717Y002128D01*
X011673Y002133D01*
X011630Y002142D01*
X011587Y002154D01*
X011546Y002171D01*
X011506Y002190D01*
X011469Y002214D01*
X011433Y002240D01*
X011400Y002270D01*
X011370Y002302D01*
X011343Y002337D01*
X011319Y002374D01*
X011298Y002413D01*
X011281Y002454D01*
X011268Y002496D01*
X011258Y002539D01*
X011252Y002583D01*
X011250Y002627D01*
X009250Y004127D02*
X009250Y001127D01*
X006250Y001127D01*
X006250Y004127D01*
X009250Y004127D01*
X008125Y002752D02*
X008125Y002502D01*
X007875Y002502D01*
X007875Y002252D01*
X007625Y002252D01*
X007625Y002502D01*
X007375Y002502D01*
X007375Y002752D01*
X007625Y002752D01*
X007625Y003002D01*
X007875Y003002D01*
X007875Y002752D01*
X008125Y002752D01*
X007000Y002627D02*
X007002Y002681D01*
X007008Y002735D01*
X007018Y002788D01*
X007031Y002841D01*
X007048Y002892D01*
X007069Y002942D01*
X007094Y002990D01*
X007122Y003037D01*
X007153Y003081D01*
X007187Y003123D01*
X007224Y003162D01*
X007264Y003199D01*
X007307Y003232D01*
X007352Y003263D01*
X007399Y003290D01*
X007447Y003313D01*
X007498Y003333D01*
X007549Y003350D01*
X007602Y003362D01*
X007655Y003371D01*
X007709Y003376D01*
X007764Y003377D01*
X007818Y003374D01*
X007871Y003367D01*
X007924Y003356D01*
X007977Y003342D01*
X008028Y003324D01*
X008077Y003302D01*
X008125Y003277D01*
X008171Y003248D01*
X008215Y003216D01*
X008256Y003181D01*
X008294Y003143D01*
X008330Y003102D01*
X008363Y003059D01*
X008393Y003014D01*
X008419Y002966D01*
X008442Y002917D01*
X008461Y002866D01*
X008476Y002815D01*
X008488Y002762D01*
X008496Y002708D01*
X008500Y002654D01*
X008500Y002600D01*
X008496Y002546D01*
X008488Y002492D01*
X008476Y002439D01*
X008461Y002388D01*
X008442Y002337D01*
X008419Y002288D01*
X008393Y002240D01*
X008363Y002195D01*
X008330Y002152D01*
X008294Y002111D01*
X008256Y002073D01*
X008215Y002038D01*
X008171Y002006D01*
X008125Y001977D01*
X008077Y001952D01*
X008028Y001930D01*
X007977Y001912D01*
X007924Y001898D01*
X007871Y001887D01*
X007818Y001880D01*
X007764Y001877D01*
X007709Y001878D01*
X007655Y001883D01*
X007602Y001892D01*
X007549Y001904D01*
X007498Y001921D01*
X007447Y001941D01*
X007399Y001964D01*
X007352Y001991D01*
X007307Y002022D01*
X007264Y002055D01*
X007224Y002092D01*
X007187Y002131D01*
X007153Y002173D01*
X007122Y002217D01*
X007094Y002264D01*
X007069Y002312D01*
X007048Y002362D01*
X007031Y002413D01*
X007018Y002466D01*
X007008Y002519D01*
X007002Y002573D01*
X007000Y002627D01*
X007250Y002627D02*
X007252Y002671D01*
X007258Y002715D01*
X007268Y002758D01*
X007281Y002800D01*
X007298Y002841D01*
X007319Y002880D01*
X007343Y002917D01*
X007370Y002952D01*
X007400Y002984D01*
X007433Y003014D01*
X007469Y003040D01*
X007506Y003064D01*
X007546Y003083D01*
X007587Y003100D01*
X007630Y003112D01*
X007673Y003121D01*
X007717Y003126D01*
X007761Y003127D01*
X007805Y003124D01*
X007849Y003117D01*
X007892Y003106D01*
X007934Y003092D01*
X007974Y003074D01*
X008013Y003052D01*
X008049Y003028D01*
X008083Y003000D01*
X008115Y002969D01*
X008144Y002935D01*
X008170Y002899D01*
X008192Y002861D01*
X008211Y002821D01*
X008226Y002779D01*
X008238Y002737D01*
X008246Y002693D01*
X008250Y002649D01*
X008250Y002605D01*
X008246Y002561D01*
X008238Y002517D01*
X008226Y002475D01*
X008211Y002433D01*
X008192Y002393D01*
X008170Y002355D01*
X008144Y002319D01*
X008115Y002285D01*
X008083Y002254D01*
X008049Y002226D01*
X008013Y002202D01*
X007974Y002180D01*
X007934Y002162D01*
X007892Y002148D01*
X007849Y002137D01*
X007805Y002130D01*
X007761Y002127D01*
X007717Y002128D01*
X007673Y002133D01*
X007630Y002142D01*
X007587Y002154D01*
X007546Y002171D01*
X007506Y002190D01*
X007469Y002214D01*
X007433Y002240D01*
X007400Y002270D01*
X007370Y002302D01*
X007343Y002337D01*
X007319Y002374D01*
X007298Y002413D01*
X007281Y002454D01*
X007268Y002496D01*
X007258Y002539D01*
X007252Y002583D01*
X007250Y002627D01*
X007750Y004877D02*
X007750Y009377D01*
X003750Y009377D01*
X003750Y004877D01*
X007750Y004877D01*
X006500Y005377D02*
X006500Y005877D01*
X005750Y005877D01*
X005750Y005377D01*
X006500Y005377D01*
X005750Y005377D02*
X005000Y005377D01*
X005000Y005877D01*
X005750Y005877D01*
X005750Y006377D02*
X005000Y006377D01*
X005000Y006877D01*
X005750Y006877D01*
X005750Y006377D01*
X006500Y006377D01*
X006500Y006877D01*
X005750Y006877D01*
X005750Y007377D02*
X005750Y007877D01*
X005000Y007877D01*
X005000Y007377D01*
X005750Y007377D01*
X006500Y007377D01*
X006500Y007877D01*
X005750Y007877D01*
X005750Y008377D02*
X005750Y008877D01*
X005000Y008877D01*
X005000Y008377D01*
X005750Y008377D01*
X006500Y008377D01*
X006500Y008877D01*
X005750Y008877D01*
X004000Y010627D02*
X004000Y012627D01*
X010000Y012627D01*
X010000Y010627D01*
X004000Y010627D01*
X004000Y012877D02*
X004000Y026877D01*
X022000Y026877D01*
X022000Y012877D01*
X004000Y012877D01*
X013500Y012627D02*
X013500Y010627D01*
X019500Y010627D01*
X019500Y012627D01*
X013500Y012627D01*
X014865Y006627D02*
X014867Y006632D01*
X014871Y006636D01*
X014876Y006637D01*
X014882Y006635D01*
X014885Y006630D01*
X014885Y006624D01*
X014882Y006619D01*
X014876Y006617D01*
X014871Y006618D01*
X014867Y006622D01*
X014865Y006627D01*
X015000Y006627D02*
X015000Y005627D01*
X015500Y005627D01*
X015500Y006627D01*
X015000Y006627D01*
X015865Y006627D02*
X015867Y006632D01*
X015871Y006636D01*
X015876Y006637D01*
X015882Y006635D01*
X015885Y006630D01*
X015885Y006624D01*
X015882Y006619D01*
X015876Y006617D01*
X015871Y006618D01*
X015867Y006622D01*
X015865Y006627D01*
X016000Y006627D02*
X016000Y005627D01*
X016500Y005627D01*
X016500Y006627D01*
X016000Y006627D01*
X016865Y006627D02*
X016867Y006632D01*
X016871Y006636D01*
X016876Y006637D01*
X016882Y006635D01*
X016885Y006630D01*
X016885Y006624D01*
X016882Y006619D01*
X016876Y006617D01*
X016871Y006618D01*
X016867Y006622D01*
X016865Y006627D01*
X017000Y006627D02*
X017000Y005627D01*
X017500Y005627D01*
X017500Y006627D01*
X017000Y006627D01*
X017865Y006627D02*
X017867Y006632D01*
X017871Y006636D01*
X017876Y006637D01*
X017882Y006635D01*
X017885Y006630D01*
X017885Y006624D01*
X017882Y006619D01*
X017876Y006617D01*
X017871Y006618D01*
X017867Y006622D01*
X017865Y006627D01*
X018000Y006627D02*
X018000Y005627D01*
X018500Y005627D01*
X018500Y006627D01*
X018000Y006627D01*
X018865Y006627D02*
X018867Y006632D01*
X018871Y006636D01*
X018876Y006637D01*
X018882Y006635D01*
X018885Y006630D01*
X018885Y006624D01*
X018882Y006619D01*
X018876Y006617D01*
X018871Y006618D01*
X018867Y006622D01*
X018865Y006627D01*
X019000Y006627D02*
X019000Y005627D01*
X019500Y005627D01*
X019500Y006627D01*
X019000Y006627D01*
X019865Y006627D02*
X019867Y006632D01*
X019871Y006636D01*
X019876Y006637D01*
X019882Y006635D01*
X019885Y006630D01*
X019885Y006624D01*
X019882Y006619D01*
X019876Y006617D01*
X019871Y006618D01*
X019867Y006622D01*
X019865Y006627D01*
X020000Y006627D02*
X020000Y005627D01*
X020500Y005627D01*
X020500Y006627D01*
X020000Y006627D01*
X020865Y006627D02*
X020867Y006632D01*
X020871Y006636D01*
X020876Y006637D01*
X020882Y006635D01*
X020885Y006630D01*
X020885Y006624D01*
X020882Y006619D01*
X020876Y006617D01*
X020871Y006618D01*
X020867Y006622D01*
X020865Y006627D01*
X021000Y006627D02*
X021000Y005627D01*
X021500Y005627D01*
X021500Y006627D01*
X021000Y006627D01*
X021865Y006627D02*
X021867Y006632D01*
X021871Y006636D01*
X021876Y006637D01*
X021882Y006635D01*
X021885Y006630D01*
X021885Y006624D01*
X021882Y006619D01*
X021876Y006617D01*
X021871Y006618D01*
X021867Y006622D01*
X021865Y006627D01*
X022000Y006627D02*
X022000Y005627D01*
X022500Y005627D01*
X022500Y006627D01*
X022000Y006627D01*
X024750Y010627D02*
X024750Y012627D01*
X030750Y012627D01*
X030750Y010627D01*
X024750Y010627D01*
X033250Y002627D02*
X033252Y002681D01*
X033258Y002735D01*
X033268Y002788D01*
X033281Y002841D01*
X033298Y002892D01*
X033319Y002942D01*
X033344Y002990D01*
X033372Y003037D01*
X033403Y003081D01*
X033437Y003123D01*
X033474Y003162D01*
X033514Y003199D01*
X033557Y003232D01*
X033602Y003263D01*
X033649Y003290D01*
X033697Y003313D01*
X033748Y003333D01*
X033799Y003350D01*
X033852Y003362D01*
X033905Y003371D01*
X033959Y003376D01*
X034014Y003377D01*
X034068Y003374D01*
X034121Y003367D01*
X034174Y003356D01*
X034227Y003342D01*
X034278Y003324D01*
X034327Y003302D01*
X034375Y003277D01*
X034421Y003248D01*
X034465Y003216D01*
X034506Y003181D01*
X034544Y003143D01*
X034580Y003102D01*
X034613Y003059D01*
X034643Y003014D01*
X034669Y002966D01*
X034692Y002917D01*
X034711Y002866D01*
X034726Y002815D01*
X034738Y002762D01*
X034746Y002708D01*
X034750Y002654D01*
X034750Y002600D01*
X034746Y002546D01*
X034738Y002492D01*
X034726Y002439D01*
X034711Y002388D01*
X034692Y002337D01*
X034669Y002288D01*
X034643Y002240D01*
X034613Y002195D01*
X034580Y002152D01*
X034544Y002111D01*
X034506Y002073D01*
X034465Y002038D01*
X034421Y002006D01*
X034375Y001977D01*
X034327Y001952D01*
X034278Y001930D01*
X034227Y001912D01*
X034174Y001898D01*
X034121Y001887D01*
X034068Y001880D01*
X034014Y001877D01*
X033959Y001878D01*
X033905Y001883D01*
X033852Y001892D01*
X033799Y001904D01*
X033748Y001921D01*
X033697Y001941D01*
X033649Y001964D01*
X033602Y001991D01*
X033557Y002022D01*
X033514Y002055D01*
X033474Y002092D01*
X033437Y002131D01*
X033403Y002173D01*
X033372Y002217D01*
X033344Y002264D01*
X033319Y002312D01*
X033298Y002362D01*
X033281Y002413D01*
X033268Y002466D01*
X033258Y002519D01*
X033252Y002573D01*
X033250Y002627D01*
X034000Y000377D02*
X034000Y000127D01*
X035750Y001377D02*
X035750Y003877D01*
X038250Y003877D01*
X038250Y001377D01*
X035750Y001377D01*
X037000Y000377D02*
X037000Y000127D01*
X036250Y002627D02*
X036252Y002681D01*
X036258Y002735D01*
X036268Y002788D01*
X036281Y002841D01*
X036298Y002892D01*
X036319Y002942D01*
X036344Y002990D01*
X036372Y003037D01*
X036403Y003081D01*
X036437Y003123D01*
X036474Y003162D01*
X036514Y003199D01*
X036557Y003232D01*
X036602Y003263D01*
X036649Y003290D01*
X036697Y003313D01*
X036748Y003333D01*
X036799Y003350D01*
X036852Y003362D01*
X036905Y003371D01*
X036959Y003376D01*
X037014Y003377D01*
X037068Y003374D01*
X037121Y003367D01*
X037174Y003356D01*
X037227Y003342D01*
X037278Y003324D01*
X037327Y003302D01*
X037375Y003277D01*
X037421Y003248D01*
X037465Y003216D01*
X037506Y003181D01*
X037544Y003143D01*
X037580Y003102D01*
X037613Y003059D01*
X037643Y003014D01*
X037669Y002966D01*
X037692Y002917D01*
X037711Y002866D01*
X037726Y002815D01*
X037738Y002762D01*
X037746Y002708D01*
X037750Y002654D01*
X037750Y002600D01*
X037746Y002546D01*
X037738Y002492D01*
X037726Y002439D01*
X037711Y002388D01*
X037692Y002337D01*
X037669Y002288D01*
X037643Y002240D01*
X037613Y002195D01*
X037580Y002152D01*
X037544Y002111D01*
X037506Y002073D01*
X037465Y002038D01*
X037421Y002006D01*
X037375Y001977D01*
X037327Y001952D01*
X037278Y001930D01*
X037227Y001912D01*
X037174Y001898D01*
X037121Y001887D01*
X037068Y001880D01*
X037014Y001877D01*
X036959Y001878D01*
X036905Y001883D01*
X036852Y001892D01*
X036799Y001904D01*
X036748Y001921D01*
X036697Y001941D01*
X036649Y001964D01*
X036602Y001991D01*
X036557Y002022D01*
X036514Y002055D01*
X036474Y002092D01*
X036437Y002131D01*
X036403Y002173D01*
X036372Y002217D01*
X036344Y002264D01*
X036319Y002312D01*
X036298Y002362D01*
X036281Y002413D01*
X036268Y002466D01*
X036258Y002519D01*
X036252Y002573D01*
X036250Y002627D01*
X031000Y000377D02*
X031000Y000127D01*
X028000Y000127D02*
X028000Y000377D01*
X025000Y000377D02*
X025000Y000127D01*
X022000Y000127D02*
X022000Y000377D01*
X019000Y000377D02*
X019000Y000127D01*
X007750Y000127D02*
X007750Y000377D01*
X003750Y023377D02*
X003250Y023377D01*
X003250Y024377D01*
X003750Y024377D01*
X003750Y023377D01*
X003115Y023377D02*
X003117Y023382D01*
X003121Y023386D01*
X003126Y023387D01*
X003132Y023385D01*
X003135Y023380D01*
X003135Y023374D01*
X003132Y023369D01*
X003126Y023367D01*
X003121Y023368D01*
X003117Y023372D01*
X003115Y023377D01*
X002750Y029377D02*
X002750Y033877D01*
X005250Y033877D01*
X005250Y029377D01*
X002750Y029377D01*
X003500Y030127D02*
X003500Y031877D01*
X004500Y031877D01*
X004500Y032877D01*
X003500Y032877D01*
X003500Y031877D01*
X004500Y031877D02*
X004500Y030127D01*
X003500Y030127D01*
X003500Y032877D02*
X003500Y033127D01*
X004500Y033127D01*
X004500Y032877D01*
X003750Y034377D02*
X003750Y036377D01*
X005250Y036377D01*
X005250Y034377D01*
X003750Y034377D01*
D16*
X005375Y008627D03*
X005375Y007627D03*
X005375Y006627D03*
X006125Y005627D03*
D17*
X007000Y011127D03*
X016500Y011127D03*
X027750Y011127D03*
X037250Y011127D03*
D18*
X022250Y006127D03*
X021250Y006127D03*
X020250Y006127D03*
X019250Y006127D03*
X018250Y006127D03*
X017250Y006127D03*
X016250Y006127D03*
X015250Y006127D03*
X003500Y023877D03*
D19*
X004000Y032377D03*
D20*
X037500Y036627D03*
M02*
