G75*
G70*
%OFA0B0*%
%FSLAX24Y24*%
%IPPOS*%
%LPD*%
%AMOC8*
5,1,8,0,0,1.08239X$1,22.5*
%
%ADD10C,0.0100*%
%ADD11C,0.0000*%
%ADD12C,0.0050*%
%ADD13C,0.0040*%
%ADD14R,0.1500X0.0250*%
%ADD15R,0.0500X0.2000*%
%ADD16R,0.1250X0.0750*%
D10*
X002638Y000643D02*
X002638Y039398D01*
X041393Y039398D01*
X041393Y000643D01*
X002638Y000643D01*
X021316Y032376D02*
X021467Y032376D01*
X021316Y032376D02*
X021166Y032527D01*
X021166Y033277D01*
X021166Y032677D02*
X021617Y032677D01*
X021767Y032827D01*
X021767Y033277D01*
X022087Y033127D02*
X022237Y033277D01*
X022688Y033277D01*
X022688Y033577D02*
X022688Y032677D01*
X022237Y032677D01*
X022087Y032827D01*
X022087Y033127D01*
X023929Y032827D02*
X024079Y032677D01*
X024379Y032677D01*
X024529Y032827D01*
X024529Y033427D01*
X024379Y033577D01*
X024079Y033577D01*
X023929Y033427D01*
X024849Y033427D02*
X025000Y033577D01*
X025300Y033577D01*
X025450Y033427D01*
X025450Y032827D01*
X025300Y032677D01*
X025000Y032677D01*
X024849Y032827D01*
X019925Y032677D02*
X019925Y033277D01*
X019475Y033277D01*
X019325Y033127D01*
X019325Y032677D01*
X019004Y032827D02*
X019004Y033127D01*
X018854Y033277D01*
X018404Y033277D01*
X018404Y032677D02*
X018854Y032677D01*
X019004Y032827D01*
X017163Y032677D02*
X016713Y032677D01*
X016562Y032827D01*
X016713Y032977D01*
X017013Y032977D01*
X017163Y033127D01*
X017013Y033277D01*
X016562Y033277D01*
X016092Y033277D02*
X015792Y033277D01*
X015642Y033127D01*
X015642Y032677D01*
X016092Y032677D01*
X016242Y032827D01*
X016092Y032977D01*
X015642Y032977D01*
D11*
X003238Y038168D02*
X003240Y038218D01*
X003246Y038268D01*
X003256Y038317D01*
X003270Y038365D01*
X003287Y038412D01*
X003308Y038457D01*
X003333Y038501D01*
X003361Y038542D01*
X003393Y038581D01*
X003427Y038618D01*
X003464Y038652D01*
X003504Y038682D01*
X003546Y038709D01*
X003590Y038733D01*
X003636Y038754D01*
X003683Y038770D01*
X003731Y038783D01*
X003781Y038792D01*
X003830Y038797D01*
X003881Y038798D01*
X003931Y038795D01*
X003980Y038788D01*
X004029Y038777D01*
X004077Y038762D01*
X004123Y038744D01*
X004168Y038722D01*
X004211Y038696D01*
X004252Y038667D01*
X004291Y038635D01*
X004327Y038600D01*
X004359Y038562D01*
X004389Y038522D01*
X004416Y038479D01*
X004439Y038435D01*
X004458Y038389D01*
X004474Y038341D01*
X004486Y038292D01*
X004494Y038243D01*
X004498Y038193D01*
X004498Y038143D01*
X004494Y038093D01*
X004486Y038044D01*
X004474Y037995D01*
X004458Y037947D01*
X004439Y037901D01*
X004416Y037857D01*
X004389Y037814D01*
X004359Y037774D01*
X004327Y037736D01*
X004291Y037701D01*
X004252Y037669D01*
X004211Y037640D01*
X004168Y037614D01*
X004123Y037592D01*
X004077Y037574D01*
X004029Y037559D01*
X003980Y037548D01*
X003931Y037541D01*
X003881Y037538D01*
X003830Y037539D01*
X003781Y037544D01*
X003731Y037553D01*
X003683Y037566D01*
X003636Y037582D01*
X003590Y037603D01*
X003546Y037627D01*
X003504Y037654D01*
X003464Y037684D01*
X003427Y037718D01*
X003393Y037755D01*
X003361Y037794D01*
X003333Y037835D01*
X003308Y037879D01*
X003287Y037924D01*
X003270Y037971D01*
X003256Y038019D01*
X003246Y038068D01*
X003240Y038118D01*
X003238Y038168D01*
X003238Y001874D02*
X003240Y001924D01*
X003246Y001974D01*
X003256Y002023D01*
X003270Y002071D01*
X003287Y002118D01*
X003308Y002163D01*
X003333Y002207D01*
X003361Y002248D01*
X003393Y002287D01*
X003427Y002324D01*
X003464Y002358D01*
X003504Y002388D01*
X003546Y002415D01*
X003590Y002439D01*
X003636Y002460D01*
X003683Y002476D01*
X003731Y002489D01*
X003781Y002498D01*
X003830Y002503D01*
X003881Y002504D01*
X003931Y002501D01*
X003980Y002494D01*
X004029Y002483D01*
X004077Y002468D01*
X004123Y002450D01*
X004168Y002428D01*
X004211Y002402D01*
X004252Y002373D01*
X004291Y002341D01*
X004327Y002306D01*
X004359Y002268D01*
X004389Y002228D01*
X004416Y002185D01*
X004439Y002141D01*
X004458Y002095D01*
X004474Y002047D01*
X004486Y001998D01*
X004494Y001949D01*
X004498Y001899D01*
X004498Y001849D01*
X004494Y001799D01*
X004486Y001750D01*
X004474Y001701D01*
X004458Y001653D01*
X004439Y001607D01*
X004416Y001563D01*
X004389Y001520D01*
X004359Y001480D01*
X004327Y001442D01*
X004291Y001407D01*
X004252Y001375D01*
X004211Y001346D01*
X004168Y001320D01*
X004123Y001298D01*
X004077Y001280D01*
X004029Y001265D01*
X003980Y001254D01*
X003931Y001247D01*
X003881Y001244D01*
X003830Y001245D01*
X003781Y001250D01*
X003731Y001259D01*
X003683Y001272D01*
X003636Y001288D01*
X003590Y001309D01*
X003546Y001333D01*
X003504Y001360D01*
X003464Y001390D01*
X003427Y001424D01*
X003393Y001461D01*
X003361Y001500D01*
X003333Y001541D01*
X003308Y001585D01*
X003287Y001630D01*
X003270Y001677D01*
X003256Y001725D01*
X003246Y001774D01*
X003240Y001824D01*
X003238Y001874D01*
X039532Y001874D02*
X039534Y001924D01*
X039540Y001974D01*
X039550Y002023D01*
X039564Y002071D01*
X039581Y002118D01*
X039602Y002163D01*
X039627Y002207D01*
X039655Y002248D01*
X039687Y002287D01*
X039721Y002324D01*
X039758Y002358D01*
X039798Y002388D01*
X039840Y002415D01*
X039884Y002439D01*
X039930Y002460D01*
X039977Y002476D01*
X040025Y002489D01*
X040075Y002498D01*
X040124Y002503D01*
X040175Y002504D01*
X040225Y002501D01*
X040274Y002494D01*
X040323Y002483D01*
X040371Y002468D01*
X040417Y002450D01*
X040462Y002428D01*
X040505Y002402D01*
X040546Y002373D01*
X040585Y002341D01*
X040621Y002306D01*
X040653Y002268D01*
X040683Y002228D01*
X040710Y002185D01*
X040733Y002141D01*
X040752Y002095D01*
X040768Y002047D01*
X040780Y001998D01*
X040788Y001949D01*
X040792Y001899D01*
X040792Y001849D01*
X040788Y001799D01*
X040780Y001750D01*
X040768Y001701D01*
X040752Y001653D01*
X040733Y001607D01*
X040710Y001563D01*
X040683Y001520D01*
X040653Y001480D01*
X040621Y001442D01*
X040585Y001407D01*
X040546Y001375D01*
X040505Y001346D01*
X040462Y001320D01*
X040417Y001298D01*
X040371Y001280D01*
X040323Y001265D01*
X040274Y001254D01*
X040225Y001247D01*
X040175Y001244D01*
X040124Y001245D01*
X040075Y001250D01*
X040025Y001259D01*
X039977Y001272D01*
X039930Y001288D01*
X039884Y001309D01*
X039840Y001333D01*
X039798Y001360D01*
X039758Y001390D01*
X039721Y001424D01*
X039687Y001461D01*
X039655Y001500D01*
X039627Y001541D01*
X039602Y001585D01*
X039581Y001630D01*
X039564Y001677D01*
X039550Y001725D01*
X039540Y001774D01*
X039534Y001824D01*
X039532Y001874D01*
X039532Y038168D02*
X039534Y038218D01*
X039540Y038268D01*
X039550Y038317D01*
X039564Y038365D01*
X039581Y038412D01*
X039602Y038457D01*
X039627Y038501D01*
X039655Y038542D01*
X039687Y038581D01*
X039721Y038618D01*
X039758Y038652D01*
X039798Y038682D01*
X039840Y038709D01*
X039884Y038733D01*
X039930Y038754D01*
X039977Y038770D01*
X040025Y038783D01*
X040075Y038792D01*
X040124Y038797D01*
X040175Y038798D01*
X040225Y038795D01*
X040274Y038788D01*
X040323Y038777D01*
X040371Y038762D01*
X040417Y038744D01*
X040462Y038722D01*
X040505Y038696D01*
X040546Y038667D01*
X040585Y038635D01*
X040621Y038600D01*
X040653Y038562D01*
X040683Y038522D01*
X040710Y038479D01*
X040733Y038435D01*
X040752Y038389D01*
X040768Y038341D01*
X040780Y038292D01*
X040788Y038243D01*
X040792Y038193D01*
X040792Y038143D01*
X040788Y038093D01*
X040780Y038044D01*
X040768Y037995D01*
X040752Y037947D01*
X040733Y037901D01*
X040710Y037857D01*
X040683Y037814D01*
X040653Y037774D01*
X040621Y037736D01*
X040585Y037701D01*
X040546Y037669D01*
X040505Y037640D01*
X040462Y037614D01*
X040417Y037592D01*
X040371Y037574D01*
X040323Y037559D01*
X040274Y037548D01*
X040225Y037541D01*
X040175Y037538D01*
X040124Y037539D01*
X040075Y037544D01*
X040025Y037553D01*
X039977Y037566D01*
X039930Y037582D01*
X039884Y037603D01*
X039840Y037627D01*
X039798Y037654D01*
X039758Y037684D01*
X039721Y037718D01*
X039687Y037755D01*
X039655Y037794D01*
X039627Y037835D01*
X039602Y037879D01*
X039581Y037924D01*
X039564Y037971D01*
X039550Y038019D01*
X039540Y038068D01*
X039534Y038118D01*
X039532Y038168D01*
D12*
X035725Y034841D02*
X035275Y034841D01*
X035275Y034691D02*
X035275Y034992D01*
X035575Y034691D02*
X035725Y034841D01*
X035650Y034531D02*
X035350Y034231D01*
X035275Y034306D01*
X035275Y034456D01*
X035350Y034531D01*
X035650Y034531D01*
X035725Y034456D01*
X035725Y034306D01*
X035650Y034231D01*
X035350Y034231D01*
X038525Y033416D02*
X038525Y033266D01*
X038600Y033191D01*
X038750Y033341D02*
X038750Y033416D01*
X038675Y033492D01*
X038600Y033492D01*
X038525Y033416D01*
X038750Y033416D02*
X038825Y033492D01*
X038900Y033492D01*
X038975Y033416D01*
X038975Y033266D01*
X038900Y033191D01*
X038900Y033031D02*
X038750Y033031D01*
X038675Y032956D01*
X038675Y032731D01*
X038525Y032731D02*
X038975Y032731D01*
X038975Y032956D01*
X038900Y033031D01*
X038975Y032571D02*
X038975Y032421D01*
X038975Y032496D02*
X038600Y032496D01*
X038525Y032421D01*
X038525Y032346D01*
X038600Y032270D01*
X038850Y019492D02*
X038925Y019492D01*
X039000Y019416D01*
X039000Y019266D01*
X038925Y019191D01*
X038850Y019191D01*
X038775Y019266D01*
X038775Y019416D01*
X038850Y019492D01*
X039000Y019416D02*
X039075Y019492D01*
X039150Y019492D01*
X039225Y019416D01*
X039225Y019266D01*
X039150Y019191D01*
X039075Y019191D01*
X039000Y019266D01*
X039150Y019036D02*
X039225Y019036D01*
X039225Y018961D01*
X039150Y018961D01*
X039150Y019036D01*
X039225Y018801D02*
X039225Y018501D01*
X039225Y018651D02*
X038775Y018651D01*
X038925Y018501D01*
X039000Y018341D02*
X039075Y018265D01*
X039075Y018040D01*
X039225Y018040D02*
X038775Y018040D01*
X038775Y018265D01*
X038850Y018341D01*
X039000Y018341D01*
X039075Y018190D02*
X039225Y018341D01*
X039075Y017880D02*
X038775Y017880D01*
X039075Y017880D02*
X039225Y017730D01*
X039075Y017580D01*
X038775Y017580D01*
X035825Y014277D02*
X035825Y013977D01*
X035975Y014127D02*
X035675Y014127D01*
X035515Y014277D02*
X035515Y013977D01*
X035440Y013902D01*
X035289Y013902D01*
X035214Y013977D01*
X035054Y013977D02*
X034979Y013902D01*
X034829Y013902D01*
X034754Y013977D01*
X034754Y014127D01*
X034829Y014202D01*
X034904Y014202D01*
X035054Y014127D01*
X035054Y014352D01*
X034754Y014352D01*
X035214Y014277D02*
X035289Y014352D01*
X035440Y014352D01*
X035515Y014277D01*
X035400Y010373D02*
X035325Y010373D01*
X035250Y010298D01*
X035175Y010373D01*
X035100Y010373D01*
X035025Y010298D01*
X035025Y010148D01*
X035100Y010072D01*
X035025Y009912D02*
X035025Y009612D01*
X035025Y009762D02*
X035475Y009762D01*
X035325Y009612D01*
X035250Y009452D02*
X035175Y009377D01*
X035175Y009152D01*
X035175Y009302D02*
X035025Y009452D01*
X035250Y009452D02*
X035400Y009452D01*
X035475Y009377D01*
X035475Y009152D01*
X035025Y009152D01*
X034725Y009152D02*
X034725Y009377D01*
X034650Y009452D01*
X034500Y009452D01*
X034425Y009377D01*
X034425Y009152D01*
X034425Y009302D02*
X034275Y009452D01*
X034275Y009612D02*
X034275Y009912D01*
X034275Y009762D02*
X034725Y009762D01*
X034575Y009612D01*
X034650Y010072D02*
X034725Y010148D01*
X034725Y010298D01*
X034650Y010373D01*
X034575Y010373D01*
X034275Y010072D01*
X034275Y010373D01*
X033975Y010223D02*
X033825Y010072D01*
X033975Y010223D02*
X033525Y010223D01*
X033525Y010373D02*
X033525Y010072D01*
X033525Y009912D02*
X033525Y009612D01*
X033525Y009762D02*
X033975Y009762D01*
X033825Y009612D01*
X033900Y009452D02*
X033750Y009452D01*
X033675Y009377D01*
X033675Y009152D01*
X033675Y009302D02*
X033525Y009452D01*
X033525Y009152D02*
X033975Y009152D01*
X033975Y009377D01*
X033900Y009452D01*
X034275Y009152D02*
X034725Y009152D01*
X034775Y008162D02*
X034775Y007862D01*
X034775Y008012D02*
X035225Y008012D01*
X035075Y007862D01*
X035150Y007702D02*
X034850Y007702D01*
X034775Y007627D01*
X034775Y007477D01*
X034850Y007402D01*
X035150Y007402D01*
X035225Y007477D01*
X035225Y007627D01*
X035150Y007702D01*
X034925Y007552D02*
X034775Y007702D01*
X035775Y009152D02*
X036225Y009152D01*
X036225Y009377D01*
X036150Y009452D01*
X036000Y009452D01*
X035925Y009377D01*
X035925Y009152D01*
X035925Y009302D02*
X035775Y009452D01*
X035775Y009612D02*
X035775Y009912D01*
X035775Y009762D02*
X036225Y009762D01*
X036075Y009612D01*
X036525Y009612D02*
X036525Y009912D01*
X036525Y009762D02*
X036975Y009762D01*
X036825Y009612D01*
X036750Y009452D02*
X036675Y009377D01*
X036675Y009152D01*
X036675Y009302D02*
X036525Y009452D01*
X036750Y009452D02*
X036900Y009452D01*
X036975Y009377D01*
X036975Y009152D01*
X036525Y009152D01*
X037275Y009152D02*
X037725Y009152D01*
X037725Y009377D01*
X037650Y009452D01*
X037500Y009452D01*
X037425Y009377D01*
X037425Y009152D01*
X037425Y009302D02*
X037275Y009452D01*
X037275Y009612D02*
X037275Y009912D01*
X037275Y009762D02*
X037725Y009762D01*
X037575Y009612D01*
X038025Y009612D02*
X038325Y009912D01*
X038400Y009912D01*
X038475Y009837D01*
X038475Y009687D01*
X038400Y009612D01*
X038400Y009452D02*
X038250Y009452D01*
X038175Y009377D01*
X038175Y009152D01*
X038175Y009302D02*
X038025Y009452D01*
X038025Y009612D02*
X038025Y009912D01*
X038250Y010072D02*
X038250Y010373D01*
X038025Y010298D02*
X038475Y010298D01*
X038250Y010072D01*
X037725Y010373D02*
X037650Y010223D01*
X037500Y010072D01*
X037500Y010298D01*
X037425Y010373D01*
X037350Y010373D01*
X037275Y010298D01*
X037275Y010148D01*
X037350Y010072D01*
X037500Y010072D01*
X036975Y010072D02*
X036975Y010373D01*
X036825Y010298D02*
X036750Y010373D01*
X036600Y010373D01*
X036525Y010298D01*
X036525Y010148D01*
X036600Y010072D01*
X036750Y010072D02*
X036825Y010223D01*
X036825Y010298D01*
X036750Y010072D02*
X036975Y010072D01*
X036225Y010298D02*
X036000Y010072D01*
X036000Y010373D01*
X035775Y010298D02*
X036225Y010298D01*
X035475Y010298D02*
X035400Y010373D01*
X035475Y010298D02*
X035475Y010148D01*
X035400Y010072D01*
X035250Y010223D02*
X035250Y010298D01*
X033225Y010298D02*
X033150Y010373D01*
X032850Y010072D01*
X032775Y010148D01*
X032775Y010298D01*
X032850Y010373D01*
X033150Y010373D01*
X033225Y010298D02*
X033225Y010148D01*
X033150Y010072D01*
X032850Y010072D01*
X032775Y009912D02*
X032775Y009612D01*
X032775Y009762D02*
X033225Y009762D01*
X033075Y009612D01*
X033000Y009452D02*
X032925Y009377D01*
X032925Y009152D01*
X032925Y009302D02*
X032775Y009452D01*
X033000Y009452D02*
X033150Y009452D01*
X033225Y009377D01*
X033225Y009152D01*
X032775Y009152D01*
X032475Y009152D02*
X032475Y009377D01*
X032400Y009452D01*
X032250Y009452D01*
X032175Y009377D01*
X032175Y009152D01*
X032175Y009302D02*
X032025Y009452D01*
X032100Y009612D02*
X032025Y009687D01*
X032025Y009837D01*
X032100Y009912D01*
X032400Y009912D01*
X032475Y009837D01*
X032475Y009687D01*
X032400Y009612D01*
X032325Y009612D01*
X032250Y009687D01*
X032250Y009912D01*
X032025Y009152D02*
X032475Y009152D01*
X038025Y009152D02*
X038475Y009152D01*
X038475Y009377D01*
X038400Y009452D01*
X038025Y007873D02*
X038025Y007572D01*
X038025Y007723D02*
X038475Y007723D01*
X038325Y007572D01*
X038250Y007412D02*
X038250Y007262D01*
X038250Y007412D02*
X038100Y007412D01*
X038025Y007337D01*
X038025Y007187D01*
X038100Y007112D01*
X038400Y007112D01*
X038475Y007187D01*
X038475Y007337D01*
X038400Y007412D01*
X038400Y006952D02*
X038475Y006877D01*
X038475Y006727D01*
X038400Y006652D01*
X038325Y006652D01*
X038250Y006727D01*
X038250Y006877D01*
X038175Y006952D01*
X038100Y006952D01*
X038025Y006877D01*
X038025Y006727D01*
X038100Y006652D01*
X037150Y002912D02*
X036850Y002912D01*
X036775Y002837D01*
X036775Y002687D01*
X036850Y002612D01*
X036850Y002452D02*
X036775Y002377D01*
X036775Y002227D01*
X036850Y002152D01*
X037000Y002227D02*
X037000Y002377D01*
X036925Y002452D01*
X036850Y002452D01*
X037000Y002227D02*
X037075Y002152D01*
X037150Y002152D01*
X037225Y002227D01*
X037225Y002377D01*
X037150Y002452D01*
X037150Y002612D02*
X037075Y002612D01*
X037000Y002687D01*
X037000Y002912D01*
X037150Y002912D02*
X037225Y002837D01*
X037225Y002687D01*
X037150Y002612D01*
X034225Y002687D02*
X034225Y002837D01*
X034150Y002912D01*
X034075Y002912D01*
X034000Y002837D01*
X034000Y002687D01*
X034075Y002612D01*
X034150Y002612D01*
X034225Y002687D01*
X034000Y002687D02*
X033925Y002612D01*
X033850Y002612D01*
X033775Y002687D01*
X033775Y002837D01*
X033850Y002912D01*
X033925Y002912D01*
X034000Y002837D01*
X033925Y002452D02*
X033850Y002452D01*
X033775Y002377D01*
X033775Y002227D01*
X033850Y002152D01*
X034000Y002227D02*
X034000Y002377D01*
X033925Y002452D01*
X034150Y002452D02*
X034225Y002377D01*
X034225Y002227D01*
X034150Y002152D01*
X034075Y002152D01*
X034000Y002227D01*
X031225Y002227D02*
X031150Y002152D01*
X031075Y002152D01*
X031000Y002227D01*
X031000Y002377D01*
X030925Y002452D01*
X030850Y002452D01*
X030775Y002377D01*
X030775Y002227D01*
X030850Y002152D01*
X031225Y002227D02*
X031225Y002377D01*
X031150Y002452D01*
X031225Y002612D02*
X031225Y002912D01*
X031150Y002912D01*
X030850Y002612D01*
X030775Y002612D01*
X028225Y002377D02*
X028225Y002227D01*
X028150Y002152D01*
X028075Y002152D01*
X028000Y002227D01*
X028000Y002377D01*
X027925Y002452D01*
X027850Y002452D01*
X027775Y002377D01*
X027775Y002227D01*
X027850Y002152D01*
X028150Y002452D02*
X028225Y002377D01*
X028000Y002612D02*
X027850Y002612D01*
X027775Y002687D01*
X027775Y002837D01*
X027850Y002912D01*
X027925Y002912D01*
X028000Y002837D01*
X028000Y002612D01*
X028150Y002762D01*
X028225Y002912D01*
X025225Y002912D02*
X025225Y002612D01*
X025000Y002612D01*
X025075Y002762D01*
X025075Y002837D01*
X025000Y002912D01*
X024850Y002912D01*
X024775Y002837D01*
X024775Y002687D01*
X024850Y002612D01*
X024850Y002452D02*
X024775Y002377D01*
X024775Y002227D01*
X024850Y002152D01*
X025000Y002227D02*
X025000Y002377D01*
X024925Y002452D01*
X024850Y002452D01*
X025000Y002227D02*
X025075Y002152D01*
X025150Y002152D01*
X025225Y002227D01*
X025225Y002377D01*
X025150Y002452D01*
X022225Y002377D02*
X022225Y002227D01*
X022150Y002152D01*
X022075Y002152D01*
X022000Y002227D01*
X022000Y002377D01*
X021925Y002452D01*
X021850Y002452D01*
X021775Y002377D01*
X021775Y002227D01*
X021850Y002152D01*
X022150Y002452D02*
X022225Y002377D01*
X022000Y002612D02*
X022000Y002912D01*
X021775Y002837D02*
X022225Y002837D01*
X022000Y002612D01*
X019225Y002687D02*
X019225Y002837D01*
X019150Y002912D01*
X019075Y002912D01*
X019000Y002837D01*
X018925Y002912D01*
X018850Y002912D01*
X018775Y002837D01*
X018775Y002687D01*
X018850Y002612D01*
X018850Y002452D02*
X018775Y002377D01*
X018775Y002227D01*
X018850Y002152D01*
X019000Y002227D02*
X019000Y002377D01*
X018925Y002452D01*
X018850Y002452D01*
X019000Y002227D02*
X019075Y002152D01*
X019150Y002152D01*
X019225Y002227D01*
X019225Y002377D01*
X019150Y002452D01*
X019150Y002612D02*
X019225Y002687D01*
X019000Y002762D02*
X019000Y002837D01*
X016225Y002837D02*
X016225Y002687D01*
X016150Y002612D01*
X016150Y002452D02*
X016225Y002377D01*
X016225Y002227D01*
X016150Y002152D01*
X016075Y002152D01*
X016000Y002227D01*
X016000Y002377D01*
X015925Y002452D01*
X015850Y002452D01*
X015775Y002377D01*
X015775Y002227D01*
X015850Y002152D01*
X015775Y002612D02*
X016075Y002912D01*
X016150Y002912D01*
X016225Y002837D01*
X015775Y002912D02*
X015775Y002612D01*
X012225Y002552D02*
X012000Y002552D01*
X011925Y002627D01*
X011925Y002777D01*
X012000Y002852D01*
X012225Y002852D01*
X012225Y002402D01*
X012075Y002552D02*
X011925Y002402D01*
X011765Y002402D02*
X011464Y002702D01*
X011464Y002777D01*
X011539Y002852D01*
X011690Y002852D01*
X011765Y002777D01*
X011765Y002402D02*
X011464Y002402D01*
X011304Y002477D02*
X011229Y002402D01*
X011079Y002402D01*
X011004Y002477D01*
X011004Y002552D01*
X011079Y002627D01*
X011154Y002627D01*
X011079Y002627D02*
X011004Y002702D01*
X011004Y002777D01*
X011079Y002852D01*
X011229Y002852D01*
X011304Y002777D01*
X008225Y002852D02*
X008225Y002402D01*
X008225Y002552D02*
X008000Y002552D01*
X007925Y002627D01*
X007925Y002777D01*
X008000Y002852D01*
X008225Y002852D01*
X008075Y002552D02*
X007925Y002402D01*
X007765Y002402D02*
X007464Y002702D01*
X007464Y002777D01*
X007539Y002852D01*
X007690Y002852D01*
X007765Y002777D01*
X007765Y002402D02*
X007464Y002402D01*
X007304Y002402D02*
X007004Y002702D01*
X007004Y002777D01*
X007079Y002852D01*
X007229Y002852D01*
X007304Y002777D01*
X007304Y002402D02*
X007004Y002402D01*
X005900Y006402D02*
X005825Y006402D01*
X005750Y006477D01*
X005750Y006627D01*
X005675Y006702D01*
X005600Y006702D01*
X005525Y006627D01*
X005525Y006477D01*
X005600Y006402D01*
X005900Y006402D02*
X005975Y006477D01*
X005975Y006627D01*
X005900Y006702D01*
X005975Y006862D02*
X005525Y006862D01*
X005675Y007012D01*
X005525Y007162D01*
X005975Y007162D01*
X005825Y007322D02*
X005975Y007473D01*
X005525Y007473D01*
X005525Y007623D02*
X005525Y007322D01*
X010275Y010152D02*
X010725Y010152D01*
X010725Y010377D01*
X010650Y010452D01*
X010500Y010452D01*
X010425Y010377D01*
X010425Y010152D01*
X010425Y010302D02*
X010275Y010452D01*
X010275Y010612D02*
X010575Y010912D01*
X010650Y010912D01*
X010725Y010837D01*
X010725Y010687D01*
X010650Y010612D01*
X010275Y010612D02*
X010275Y010912D01*
X010275Y011072D02*
X010275Y011373D01*
X010275Y011223D02*
X010725Y011223D01*
X010575Y011072D01*
X011025Y011148D02*
X011100Y011072D01*
X011400Y011373D01*
X011100Y011373D01*
X011025Y011298D01*
X011025Y011148D01*
X011100Y011072D02*
X011400Y011072D01*
X011475Y011148D01*
X011475Y011298D01*
X011400Y011373D01*
X011775Y011298D02*
X011850Y011373D01*
X012150Y011373D01*
X012225Y011298D01*
X012225Y011148D01*
X012150Y011072D01*
X012075Y011072D01*
X012000Y011148D01*
X012000Y011373D01*
X011775Y011298D02*
X011775Y011148D01*
X011850Y011072D01*
X011775Y010912D02*
X011775Y010612D01*
X011775Y010762D02*
X012225Y010762D01*
X012075Y010612D01*
X012000Y010452D02*
X011925Y010377D01*
X011925Y010152D01*
X011925Y010302D02*
X011775Y010452D01*
X012000Y010452D02*
X012150Y010452D01*
X012225Y010377D01*
X012225Y010152D01*
X011775Y010152D01*
X011475Y010152D02*
X011475Y010377D01*
X011400Y010452D01*
X011250Y010452D01*
X011175Y010377D01*
X011175Y010152D01*
X011175Y010302D02*
X011025Y010452D01*
X011025Y010612D02*
X011325Y010912D01*
X011400Y010912D01*
X011475Y010837D01*
X011475Y010687D01*
X011400Y010612D01*
X011025Y010612D02*
X011025Y010912D01*
X011025Y010152D02*
X011475Y010152D01*
X012525Y010152D02*
X012975Y010152D01*
X012975Y010377D01*
X012900Y010452D01*
X012750Y010452D01*
X012675Y010377D01*
X012675Y010152D01*
X012675Y010302D02*
X012525Y010452D01*
X012525Y010612D02*
X012525Y010912D01*
X012525Y010762D02*
X012975Y010762D01*
X012825Y010612D01*
X012825Y011072D02*
X012900Y011072D01*
X012975Y011148D01*
X012975Y011298D01*
X012900Y011373D01*
X012825Y011373D01*
X012750Y011298D01*
X012750Y011148D01*
X012825Y011072D01*
X012750Y011148D02*
X012675Y011072D01*
X012600Y011072D01*
X012525Y011148D01*
X012525Y011298D01*
X012600Y011373D01*
X012675Y011373D01*
X012750Y011298D01*
X014079Y013902D02*
X014229Y013902D01*
X014304Y013977D01*
X014464Y013977D02*
X014539Y013902D01*
X014690Y013902D01*
X014765Y013977D01*
X014765Y014277D01*
X014690Y014352D01*
X014539Y014352D01*
X014464Y014277D01*
X014304Y014277D02*
X014229Y014352D01*
X014079Y014352D01*
X014004Y014277D01*
X014004Y014202D01*
X014079Y014127D01*
X014004Y014052D01*
X014004Y013977D01*
X014079Y013902D01*
X014079Y014127D02*
X014154Y014127D01*
X014925Y014127D02*
X015225Y014127D01*
X015075Y014277D02*
X015075Y013977D01*
X018175Y017652D02*
X018025Y017802D01*
X018175Y017952D01*
X018475Y017952D01*
X018475Y018112D02*
X018475Y018337D01*
X018400Y018412D01*
X018250Y018412D01*
X018175Y018337D01*
X018175Y018112D01*
X018025Y018112D02*
X018475Y018112D01*
X018175Y018262D02*
X018025Y018412D01*
X018100Y018572D02*
X018025Y018648D01*
X018025Y018798D01*
X018100Y018873D01*
X018250Y018873D01*
X018325Y018798D01*
X018325Y018723D01*
X018250Y018572D01*
X018475Y018572D01*
X018475Y018873D01*
X018400Y019263D02*
X018100Y019263D01*
X018400Y019563D01*
X018100Y019563D01*
X018025Y019488D01*
X018025Y019338D01*
X018100Y019263D01*
X018100Y019108D02*
X018025Y019108D01*
X018025Y019033D01*
X018100Y019033D01*
X018100Y019108D01*
X018400Y019263D02*
X018475Y019338D01*
X018475Y019488D01*
X018400Y019563D01*
X018475Y017652D02*
X018175Y017652D01*
X012725Y018806D02*
X012650Y018731D01*
X012350Y018731D01*
X012275Y018806D01*
X012275Y018956D01*
X012350Y019031D01*
X012275Y019191D02*
X012575Y019492D01*
X012650Y019492D01*
X012725Y019416D01*
X012725Y019266D01*
X012650Y019191D01*
X012650Y019031D02*
X012725Y018956D01*
X012725Y018806D01*
X012500Y018571D02*
X012500Y018270D01*
X012650Y018421D02*
X012350Y018421D01*
X012275Y019191D02*
X012275Y019492D01*
X005475Y023902D02*
X005475Y024352D01*
X005250Y024352D01*
X005175Y024277D01*
X005175Y024127D01*
X005250Y024052D01*
X005475Y024052D01*
X005325Y024052D02*
X005175Y023902D01*
X005015Y023902D02*
X004714Y023902D01*
X004864Y023902D02*
X004864Y024352D01*
X005015Y024202D01*
X004554Y024352D02*
X004254Y024352D01*
X004254Y024277D01*
X004554Y023977D01*
X004554Y023902D01*
X004190Y027152D02*
X004039Y027152D01*
X003964Y027227D01*
X003804Y027152D02*
X003504Y027152D01*
X003654Y027152D02*
X003654Y027602D01*
X003804Y027452D01*
X003964Y027527D02*
X004039Y027602D01*
X004190Y027602D01*
X004265Y027527D01*
X004265Y027227D01*
X004190Y027152D01*
X004425Y027377D02*
X004725Y027377D01*
X004575Y027527D02*
X004575Y027227D01*
X005100Y031152D02*
X005025Y031227D01*
X005025Y031377D01*
X005100Y031452D01*
X005175Y031452D01*
X005250Y031377D01*
X005250Y031227D01*
X005325Y031152D01*
X005400Y031152D01*
X005475Y031227D01*
X005475Y031377D01*
X005400Y031452D01*
X005325Y031612D02*
X005475Y031762D01*
X005025Y031762D01*
X005025Y031612D02*
X005025Y031912D01*
X006350Y038231D02*
X006275Y038306D01*
X006275Y038456D01*
X006350Y038531D01*
X006650Y038531D01*
X006725Y038456D01*
X006725Y038306D01*
X006650Y038231D01*
X006575Y038231D01*
X006500Y038306D01*
X006500Y038531D01*
X006350Y038691D02*
X006650Y038992D01*
X006350Y038992D01*
X006275Y038916D01*
X006275Y038766D01*
X006350Y038691D01*
X006650Y038691D01*
X006725Y038766D01*
X006725Y038916D01*
X006650Y038992D01*
X016789Y032027D02*
X016789Y031952D01*
X016864Y031877D01*
X016789Y031802D01*
X016789Y031727D01*
X016864Y031652D01*
X017014Y031652D01*
X017089Y031727D01*
X017249Y031652D02*
X017549Y031652D01*
X017399Y031652D02*
X017399Y032102D01*
X017549Y031952D01*
X017709Y032027D02*
X017709Y031727D01*
X017785Y031652D01*
X017935Y031652D01*
X018010Y031727D01*
X017709Y032027D01*
X017785Y032102D01*
X017935Y032102D01*
X018010Y032027D01*
X018010Y031727D01*
X018170Y031652D02*
X018470Y031652D01*
X018170Y031952D01*
X018170Y032027D01*
X018245Y032102D01*
X018395Y032102D01*
X018470Y032027D01*
X019091Y031877D02*
X019391Y031877D01*
X020011Y032027D02*
X020312Y031727D01*
X020237Y031652D01*
X020086Y031652D01*
X020011Y031727D01*
X020011Y032027D01*
X020086Y032102D01*
X020237Y032102D01*
X020312Y032027D01*
X020312Y031727D01*
X020472Y031727D02*
X020547Y031652D01*
X020697Y031652D01*
X020772Y031727D01*
X020772Y031802D01*
X020697Y031877D01*
X020547Y031877D01*
X020472Y031802D01*
X020472Y031727D01*
X020547Y031877D02*
X020472Y031952D01*
X020472Y032027D01*
X020547Y032102D01*
X020697Y032102D01*
X020772Y032027D01*
X020772Y031952D01*
X020697Y031877D01*
X020929Y031952D02*
X021079Y031952D01*
X021004Y032027D02*
X021004Y031727D01*
X020929Y031652D01*
X021239Y031802D02*
X021539Y031802D01*
X021539Y031877D02*
X021464Y031952D01*
X021314Y031952D01*
X021239Y031877D01*
X021239Y031802D01*
X021314Y031652D02*
X021464Y031652D01*
X021539Y031727D01*
X021539Y031877D01*
X021700Y031877D02*
X021700Y031652D01*
X021700Y031877D02*
X021775Y031952D01*
X022000Y031952D01*
X022000Y031652D01*
X022160Y031727D02*
X022160Y031877D01*
X022235Y031952D01*
X022385Y031952D01*
X022460Y031877D01*
X022460Y031727D01*
X022385Y031652D01*
X022235Y031652D01*
X022160Y031727D01*
X022620Y031652D02*
X022845Y031652D01*
X022921Y031727D01*
X022921Y031877D01*
X022845Y031952D01*
X022620Y031952D01*
X022620Y031577D01*
X022695Y031502D01*
X022770Y031502D01*
X023081Y031652D02*
X023306Y031652D01*
X023381Y031727D01*
X023306Y031802D01*
X023081Y031802D01*
X023081Y031877D02*
X023081Y031652D01*
X023081Y031877D02*
X023156Y031952D01*
X023306Y031952D01*
X023539Y031952D02*
X023614Y031952D01*
X023765Y031802D01*
X023765Y031652D02*
X023765Y031952D01*
X023925Y031952D02*
X024150Y031952D01*
X024225Y031877D01*
X024225Y031727D01*
X024150Y031652D01*
X023925Y031652D01*
X023925Y032102D01*
X021500Y038231D02*
X021500Y038531D01*
X021500Y038691D02*
X021575Y038841D01*
X021575Y038916D01*
X021500Y038992D01*
X021350Y038992D01*
X021275Y038916D01*
X021275Y038766D01*
X021350Y038691D01*
X021500Y038691D02*
X021725Y038691D01*
X021725Y038992D01*
X021725Y038456D02*
X021275Y038456D01*
X021500Y038231D02*
X021725Y038456D01*
X017014Y032102D02*
X016864Y032102D01*
X016789Y032027D01*
X016864Y031877D02*
X016939Y031877D01*
X017089Y032027D02*
X017014Y032102D01*
X029350Y019563D02*
X029275Y019488D01*
X029275Y019338D01*
X029350Y019263D01*
X029350Y019108D02*
X029275Y019108D01*
X029275Y019033D01*
X029350Y019033D01*
X029350Y019108D01*
X029350Y018873D02*
X029275Y018798D01*
X029275Y018648D01*
X029350Y018572D01*
X029275Y018412D02*
X029425Y018262D01*
X029425Y018337D02*
X029425Y018112D01*
X029275Y018112D02*
X029725Y018112D01*
X029725Y018337D01*
X029650Y018412D01*
X029500Y018412D01*
X029425Y018337D01*
X029650Y018572D02*
X029725Y018648D01*
X029725Y018798D01*
X029650Y018873D01*
X029575Y018873D01*
X029500Y018798D01*
X029425Y018873D01*
X029350Y018873D01*
X029500Y018798D02*
X029500Y018723D01*
X029650Y019263D02*
X029725Y019338D01*
X029725Y019488D01*
X029650Y019563D01*
X029575Y019563D01*
X029500Y019488D01*
X029425Y019563D01*
X029350Y019563D01*
X029500Y019488D02*
X029500Y019413D01*
X029425Y017952D02*
X029725Y017952D01*
X029425Y017952D02*
X029275Y017802D01*
X029425Y017652D01*
X029725Y017652D01*
X026325Y014277D02*
X026325Y013977D01*
X026475Y014127D02*
X026175Y014127D01*
X026015Y014277D02*
X026015Y013977D01*
X025940Y013902D01*
X025789Y013902D01*
X025714Y013977D01*
X025554Y014127D02*
X025254Y014127D01*
X025329Y013902D02*
X025329Y014352D01*
X025554Y014127D01*
X025714Y014277D02*
X025789Y014352D01*
X025940Y014352D01*
X026015Y014277D01*
X020725Y009337D02*
X020725Y009187D01*
X020650Y009112D01*
X020575Y009112D01*
X020500Y009187D01*
X020500Y009337D01*
X020425Y009412D01*
X020350Y009412D01*
X020275Y009337D01*
X020275Y009187D01*
X020350Y009112D01*
X020425Y009112D01*
X020500Y009187D01*
X020500Y009337D02*
X020575Y009412D01*
X020650Y009412D01*
X020725Y009337D01*
X020650Y008952D02*
X020500Y008952D01*
X020425Y008877D01*
X020425Y008652D01*
X020425Y008802D02*
X020275Y008952D01*
X020275Y008652D02*
X020725Y008652D01*
X020725Y008877D01*
X020650Y008952D01*
X019975Y008877D02*
X019975Y008652D01*
X019525Y008652D01*
X019675Y008652D02*
X019675Y008877D01*
X019750Y008952D01*
X019900Y008952D01*
X019975Y008877D01*
X019975Y009112D02*
X019975Y009412D01*
X019900Y009412D01*
X019600Y009112D01*
X019525Y009112D01*
X019525Y008952D02*
X019675Y008802D01*
X019225Y008877D02*
X019150Y008952D01*
X019000Y008952D01*
X018925Y008877D01*
X018925Y008652D01*
X018925Y008802D02*
X018775Y008952D01*
X018850Y009112D02*
X018775Y009187D01*
X018775Y009337D01*
X018850Y009412D01*
X018925Y009412D01*
X019000Y009337D01*
X019000Y009112D01*
X018850Y009112D01*
X019000Y009112D02*
X019150Y009262D01*
X019225Y009412D01*
X019225Y008877D02*
X019225Y008652D01*
X018775Y008652D01*
X018475Y008652D02*
X018475Y008877D01*
X018400Y008952D01*
X018250Y008952D01*
X018175Y008877D01*
X018175Y008652D01*
X018175Y008802D02*
X018025Y008952D01*
X018100Y009112D02*
X018025Y009187D01*
X018025Y009337D01*
X018100Y009412D01*
X018250Y009412D01*
X018325Y009337D01*
X018325Y009262D01*
X018250Y009112D01*
X018475Y009112D01*
X018475Y009412D01*
X017725Y009337D02*
X017500Y009112D01*
X017500Y009412D01*
X017275Y009337D02*
X017725Y009337D01*
X017650Y008952D02*
X017500Y008952D01*
X017425Y008877D01*
X017425Y008652D01*
X017425Y008802D02*
X017275Y008952D01*
X017275Y008652D02*
X017725Y008652D01*
X017725Y008877D01*
X017650Y008952D01*
X018025Y008652D02*
X018475Y008652D01*
X016975Y008652D02*
X016975Y008877D01*
X016900Y008952D01*
X016750Y008952D01*
X016675Y008877D01*
X016675Y008652D01*
X016675Y008802D02*
X016525Y008952D01*
X016600Y009112D02*
X016525Y009187D01*
X016525Y009337D01*
X016600Y009412D01*
X016675Y009412D01*
X016750Y009337D01*
X016750Y009262D01*
X016750Y009337D02*
X016825Y009412D01*
X016900Y009412D01*
X016975Y009337D01*
X016975Y009187D01*
X016900Y009112D01*
X016975Y008652D02*
X016525Y008652D01*
X016225Y008652D02*
X016225Y008877D01*
X016150Y008952D01*
X016000Y008952D01*
X015925Y008877D01*
X015925Y008652D01*
X015925Y008802D02*
X015775Y008952D01*
X015775Y009112D02*
X016075Y009412D01*
X016150Y009412D01*
X016225Y009337D01*
X016225Y009187D01*
X016150Y009112D01*
X015775Y009112D02*
X015775Y009412D01*
X015475Y009262D02*
X015025Y009262D01*
X015025Y009112D02*
X015025Y009412D01*
X015325Y009112D02*
X015475Y009262D01*
X015400Y008952D02*
X015475Y008877D01*
X015475Y008652D01*
X015025Y008652D01*
X015175Y008652D02*
X015175Y008877D01*
X015250Y008952D01*
X015400Y008952D01*
X015175Y008802D02*
X015025Y008952D01*
X015775Y008652D02*
X016225Y008652D01*
D13*
X014875Y008502D02*
X014875Y009627D01*
X020875Y009627D01*
X020875Y008502D01*
X014875Y008502D01*
X013125Y010002D02*
X013125Y011502D01*
X010125Y011502D01*
X010125Y010002D01*
X013125Y010002D01*
X013000Y014627D02*
X013000Y016627D01*
X016000Y016627D01*
X016000Y014627D01*
X013000Y014627D01*
X015250Y017877D02*
X015250Y019377D01*
X017750Y019377D01*
X017750Y017877D01*
X015250Y017877D01*
X014500Y018127D02*
X013000Y018127D01*
X013000Y020127D01*
X014500Y020127D01*
X014500Y018127D01*
X024250Y016627D02*
X024250Y014627D01*
X027250Y014627D01*
X027250Y016627D01*
X024250Y016627D01*
X026500Y017877D02*
X026500Y019377D01*
X029000Y019377D01*
X029000Y017877D01*
X026500Y017877D01*
X033750Y016627D02*
X033750Y014627D01*
X036750Y014627D01*
X036750Y016627D01*
X033750Y016627D01*
X036000Y017877D02*
X036000Y019377D01*
X038500Y019377D01*
X038500Y017877D01*
X036000Y017877D01*
X038625Y010502D02*
X031875Y010502D01*
X031875Y009002D01*
X038625Y009002D01*
X038625Y010502D01*
X034500Y007877D02*
X034500Y007377D01*
X033500Y007377D01*
X033500Y007877D01*
X034500Y007877D01*
X034375Y007877D02*
X034375Y008002D01*
X034000Y007377D02*
X034000Y007252D01*
X033625Y007877D02*
X033625Y008002D01*
X025750Y031377D02*
X015250Y031377D01*
X015250Y033877D01*
X025750Y033877D01*
X025750Y031377D01*
D14*
X013750Y018252D03*
D15*
X015750Y015627D03*
X027000Y015627D03*
X036500Y015627D03*
D16*
X025125Y031752D03*
X015875Y031752D03*
M02*
