%
M48
M72
T01C0.0197
T02C0.0236
T03C0.0320
T04C0.0360
T05C0.0400
T06C0.0787
T07C0.1260
%
T01
X14250Y5127
X3500Y24877
X39000Y5377
T02
X34000Y19877
X24500Y19877
X7000Y23627
X15250Y5127
X16250Y5127
X17250Y5127
X18250Y5127
X19250Y5127
X20250Y5127
X21250Y5127
X22250Y5127
T03
X4250Y8627
X4250Y7627
X7250Y7627
X7250Y8627
X4250Y6627
X4250Y5627
X7250Y6627
X7250Y5627
X9250Y7627
X10250Y7627
X11250Y7627
X12250Y7627
X13250Y7627
X14250Y7627
X15250Y7627
X16250Y7627
X17250Y7627
X18250Y7627
X19250Y7627
X20250Y7627
X21250Y7627
X22250Y7627
X23250Y7627
X24250Y7627
X25250Y7627
X26250Y7627
X27250Y7627
X28250Y7627
X29250Y7627
X30250Y7627
X31250Y7627
X32250Y7627
X3500Y28127
X4500Y28127
T04
X9500Y11127
X9500Y12127
X8500Y11127
X8500Y12127
X7500Y11127
X7500Y12127
X6500Y11127
X6500Y12127
X5500Y11127
X5500Y12127
X4500Y11127
X4500Y12127
X19000Y11127
X19000Y12127
X18000Y11127
X18000Y12127
X17000Y11127
X17000Y12127
X16000Y11127
X16000Y12127
X15000Y11127
X15000Y12127
X14000Y11127
X14000Y12127
X30250Y11127
X30250Y12127
X29250Y11127
X29250Y12127
X28250Y11127
X28250Y12127
X27250Y11127
X27250Y12127
X26250Y11127
X26250Y12127
X25250Y11127
X25250Y12127
X39750Y11127
X39750Y12127
X38750Y11127
X38750Y12127
X37750Y11127
X37750Y12127
X36750Y11127
X36750Y12127
X35750Y11127
X35750Y12127
X34750Y11127
X34750Y12127
X26500Y27627
X26500Y28627
X26500Y29627
X27500Y27627
X27500Y28627
X27500Y29627
X28500Y27627
X28500Y28627
X28500Y29627
X29500Y27627
X29500Y28627
X29500Y29627
X30500Y27627
X30500Y28627
X30500Y29627
X31500Y27627
X31500Y28627
X31500Y29627
X32500Y27627
X32500Y28627
X32500Y29627
X33500Y27627
X33500Y28627
X33500Y29627
X34500Y27627
X34500Y28627
X34500Y29627
X35500Y27627
X35500Y28627
X35500Y29627
X16500Y27627
X16500Y28627
X16500Y29627
X17500Y27627
X17500Y28627
X17500Y29627
X18500Y27627
X18500Y28627
X18500Y29627
X19500Y27627
X19500Y28627
X19500Y29627
X20500Y27627
X20500Y28627
X20500Y29627
X21500Y27627
X21500Y28627
X21500Y29627
X22500Y27627
X22500Y28627
X22500Y29627
X23500Y27627
X23500Y28627
X23500Y29627
X24500Y27627
X24500Y28627
X24500Y29627
X25500Y27627
X25500Y28627
X25500Y29627
X6500Y27627
X6500Y28627
X6500Y29627
X7500Y27627
X7500Y28627
X7500Y29627
X8500Y27627
X8500Y28627
X8500Y29627
X9500Y27627
X9500Y28627
X9500Y29627
X10500Y27627
X10500Y28627
X10500Y29627
X11500Y27627
X11500Y28627
X11500Y29627
X12500Y27627
X12500Y28627
X12500Y29627
X13500Y27627
X13500Y28627
X13500Y29627
X14500Y27627
X14500Y28627
X14500Y29627
X15500Y27627
X15500Y28627
X15500Y29627
T05
X40500Y31377
X39500Y31377
X40500Y32377
X39500Y32377
X40500Y33377
X39500Y33377
X40500Y34377
X39500Y34377
X4500Y34877
X4500Y35877
X7750Y3627
X6750Y1627
X8750Y1627
X11750Y3627
X10750Y1627
X12750Y1627
X16890Y3907
X16890Y1347
X15110Y3907
X15110Y1347
X19890Y3907
X19890Y1347
X18110Y3907
X18110Y1347
X22890Y3907
X22890Y1347
X21110Y3907
X21110Y1347
X25890Y3907
X25890Y1347
X24110Y3907
X24110Y1347
X28890Y3907
X28890Y1347
X27110Y3907
X27110Y1347
X31890Y3907
X31890Y1347
X30110Y3907
X30110Y1347
X34890Y3907
X34890Y1347
X33110Y3907
X33110Y1347
X37890Y3907
X37890Y1347
X36110Y3907
X36110Y1347
X36750Y7377
X39750Y7377
X36500Y36627
X37500Y35627
X36500Y35627
X36500Y37627
X37500Y36627
X37500Y37627
X26500Y36627
X27500Y35627
X26500Y35627
X26500Y37627
X27500Y36627
X27500Y37627
X28500Y35627
X28500Y36627
X28500Y37627
X29500Y35627
X29500Y36627
X29500Y37627
X30500Y35627
X30500Y36627
X30500Y37627
X31500Y35627
X31500Y36627
X31500Y37627
X32500Y35627
X32500Y36627
X32500Y37627
X33500Y35627
X33500Y36627
X33500Y37627
X34500Y35627
X34500Y36627
X34500Y37627
X35500Y35627
X35500Y36627
X35500Y37627
X16500Y36627
X17500Y35627
X16500Y35627
X16500Y37627
X17500Y36627
X17500Y37627
X18500Y35627
X18500Y36627
X18500Y37627
X19500Y35627
X19500Y36627
X19500Y37627
X20500Y35627
X20500Y36627
X20500Y37627
X21500Y35627
X21500Y36627
X21500Y37627
X22500Y35627
X22500Y36627
X22500Y37627
X23500Y35627
X23500Y36627
X23500Y37627
X24500Y35627
X24500Y36627
X24500Y37627
X25500Y35627
X25500Y36627
X25500Y37627
X6500Y36627
X7500Y35627
X6500Y35627
X6500Y37627
X7500Y36627
X7500Y37627
X8500Y35627
X8500Y36627
X8500Y37627
X9500Y35627
X9500Y36627
X9500Y37627
X10500Y35627
X10500Y36627
X10500Y37627
X11500Y35627
X11500Y36627
X11500Y37627
X12500Y35627
X12500Y36627
X12500Y37627
X13500Y35627
X13500Y36627
X13500Y37627
X14500Y35627
X14500Y36627
X14500Y37627
X15500Y35627
X15500Y36627
X15500Y37627
T06
X4000Y33127
X4000Y31627
X4000Y30127
T07
X3868Y1874
X3868Y38168
X40162Y1874
X40162Y38168
M30
