G75*
G70*
%OFA0B0*%
%FSLAX24Y24*%
%IPPOS*%
%LPD*%
%AMOC8*
5,1,8,0,0,1.08239X$1,22.5*
%
%ADD10C,0.0100*%
%ADD11C,0.0160*%
%ADD12C,0.0000*%
%ADD13OC8,0.0600*%
%ADD14C,0.0600*%
%ADD15C,0.1181*%
%ADD16R,0.0591X0.0512*%
%ADD17C,0.0520*%
%ADD18C,0.0740*%
%ADD19OC8,0.1000*%
%ADD20R,0.0512X0.0591*%
%ADD21R,0.0394X0.0551*%
%ADD22C,0.0560*%
%ADD23OC8,0.0560*%
%ADD24R,0.0480X0.0880*%
%ADD25R,0.1417X0.0866*%
%ADD26OC8,0.0630*%
%ADD27C,0.0630*%
%ADD28R,0.1024X0.0945*%
%ADD29R,0.0945X0.0945*%
%ADD30C,0.0500*%
%ADD31C,0.0500*%
%ADD32C,0.0660*%
%ADD33C,0.0240*%
%ADD34C,0.0400*%
%ADD35C,0.0320*%
%ADD36C,0.0120*%
D10*
X002638Y000643D02*
X002638Y039398D01*
X041393Y039398D01*
X041393Y000643D01*
X002638Y000643D01*
X021779Y022876D02*
X021629Y023027D01*
X021629Y023327D01*
X021479Y023177D01*
X021329Y023177D01*
X021179Y023327D01*
X021179Y023627D01*
X021629Y023627D02*
X021629Y023327D01*
X022099Y023177D02*
X022099Y024077D01*
X022400Y023777D01*
X022700Y024077D01*
X022700Y023177D01*
D11*
X023471Y022884D02*
X041103Y022884D01*
X041103Y023042D02*
X023547Y023042D01*
X023592Y023136D02*
X023377Y022688D01*
X023377Y022688D01*
X023039Y022324D01*
X023039Y022324D01*
X023039Y022324D01*
X022609Y022076D01*
X022609Y022076D01*
X022125Y021965D01*
X022125Y021965D01*
X021629Y022002D01*
X021629Y022002D01*
X021167Y022184D01*
X021167Y022184D01*
X020779Y022493D01*
X020779Y022493D01*
X020779Y022493D01*
X020499Y022904D01*
X020499Y022904D01*
X020352Y023378D01*
X020352Y023875D01*
X020499Y024350D01*
X020499Y024350D01*
X020779Y024760D01*
X020779Y024760D01*
X021167Y025070D01*
X021167Y025070D01*
X021629Y025251D01*
X021629Y025251D01*
X022125Y025288D01*
X022125Y025288D01*
X022609Y025178D01*
X022609Y025178D01*
X023039Y024929D01*
X023039Y024929D01*
X023377Y024565D01*
X023377Y024565D01*
X023592Y024118D01*
X023592Y024118D01*
X023666Y023627D01*
X023592Y023136D01*
X023592Y023136D01*
X023602Y023201D02*
X041103Y023201D01*
X041103Y023359D02*
X023626Y023359D01*
X023650Y023518D02*
X041103Y023518D01*
X041103Y023676D02*
X023659Y023676D01*
X023635Y023835D02*
X041103Y023835D01*
X041103Y023993D02*
X023611Y023993D01*
X023576Y024152D02*
X041103Y024152D01*
X041103Y024310D02*
X023500Y024310D01*
X023423Y024469D02*
X041103Y024469D01*
X041103Y024627D02*
X023319Y024627D01*
X023172Y024786D02*
X041103Y024786D01*
X041103Y024944D02*
X023013Y024944D01*
X022739Y025103D02*
X041103Y025103D01*
X041103Y025261D02*
X022243Y025261D01*
X021763Y025261D02*
X006058Y025261D01*
X006165Y025154D02*
X005240Y026080D01*
X005240Y029474D01*
X005165Y029654D01*
X004831Y029989D01*
X004831Y030292D01*
X004704Y030597D01*
X004470Y030831D01*
X004360Y030877D01*
X004470Y030923D01*
X004704Y031156D01*
X004831Y031461D01*
X004831Y031792D01*
X004704Y032097D01*
X004490Y032311D01*
X004490Y032442D01*
X004704Y032656D01*
X004831Y032961D01*
X004831Y033292D01*
X004704Y033597D01*
X004490Y033811D01*
X004490Y034174D01*
X004653Y034337D01*
X004907Y034337D01*
X005106Y034419D01*
X005258Y034571D01*
X005340Y034769D01*
X005340Y034984D01*
X005258Y035183D01*
X005106Y035334D01*
X004921Y035411D01*
X004984Y035432D01*
X005052Y035466D01*
X005113Y035511D01*
X005166Y035564D01*
X005211Y035625D01*
X005245Y035692D01*
X005268Y035764D01*
X005280Y035839D01*
X005280Y035857D01*
X004520Y035857D01*
X004520Y035897D01*
X004480Y035897D01*
X004480Y036357D01*
X004162Y036357D01*
X004088Y036345D01*
X004016Y036321D01*
X003948Y036287D01*
X003887Y036243D01*
X003834Y036189D01*
X003789Y036128D01*
X003755Y036061D01*
X003732Y035989D01*
X003720Y035914D01*
X003720Y035897D01*
X004480Y035897D01*
X004480Y035857D01*
X003720Y035857D01*
X003720Y035839D01*
X003732Y035764D01*
X003755Y035692D01*
X003789Y035625D01*
X003834Y035564D01*
X003887Y035511D01*
X003948Y035466D01*
X004016Y035432D01*
X004079Y035411D01*
X003894Y035334D01*
X003742Y035183D01*
X003660Y034984D01*
X003660Y034769D01*
X003672Y034741D01*
X003585Y034654D01*
X003510Y034474D01*
X003510Y033811D01*
X003296Y033597D01*
X003169Y033292D01*
X003169Y032961D01*
X003296Y032656D01*
X003510Y032442D01*
X003510Y032311D01*
X003296Y032097D01*
X003169Y031792D01*
X003169Y031461D01*
X003296Y031156D01*
X003530Y030923D01*
X003640Y030877D01*
X003530Y030831D01*
X003296Y030597D01*
X003169Y030292D01*
X003169Y029961D01*
X003296Y029656D01*
X003530Y029423D01*
X003835Y029296D01*
X004138Y029296D01*
X004260Y029174D01*
X004260Y028628D01*
X004186Y028597D01*
X004029Y028441D01*
X003987Y028339D01*
X003705Y028622D01*
X003500Y028622D01*
X003295Y028622D01*
X003005Y028332D01*
X003005Y028127D01*
X003500Y028127D01*
X003500Y028622D01*
X003500Y028127D01*
X003500Y028127D01*
X003500Y028127D01*
X003005Y028127D01*
X003005Y027922D01*
X003295Y027632D01*
X003500Y027632D01*
X003705Y027632D01*
X003987Y027914D01*
X004029Y027812D01*
X004186Y027656D01*
X004260Y027625D01*
X004260Y025779D01*
X004335Y025599D01*
X004536Y025398D01*
X004500Y025383D01*
X004430Y025412D01*
X003822Y025412D01*
X003734Y025375D01*
X003667Y025308D01*
X003658Y025287D01*
X003588Y025317D01*
X003412Y025317D01*
X003251Y025250D01*
X003127Y025126D01*
X003060Y024964D01*
X003060Y024789D01*
X003127Y024627D01*
X002928Y024627D01*
X002928Y024469D02*
X003335Y024469D01*
X003412Y024437D02*
X003588Y024437D01*
X003658Y024466D01*
X003667Y024445D01*
X003734Y024378D01*
X003822Y024341D01*
X004430Y024341D01*
X004500Y024371D01*
X004570Y024341D01*
X005178Y024341D01*
X005266Y024378D01*
X005333Y024445D01*
X005370Y024534D01*
X005370Y024557D01*
X005377Y024557D01*
X005472Y024461D01*
X006437Y023497D01*
X006510Y023320D01*
X006510Y012647D01*
X006285Y012647D01*
X006255Y012617D01*
X005745Y012617D01*
X005715Y012647D01*
X005285Y012647D01*
X005255Y012617D01*
X004745Y012617D01*
X004715Y012647D01*
X004285Y012647D01*
X003980Y012342D01*
X003980Y011911D01*
X004285Y011607D01*
X004715Y011607D01*
X004745Y011637D01*
X005255Y011637D01*
X005285Y011607D01*
X005715Y011607D01*
X005745Y011637D01*
X006255Y011637D01*
X006285Y011607D01*
X006715Y011607D01*
X006745Y011637D01*
X007255Y011637D01*
X007285Y011607D01*
X007715Y011607D01*
X007745Y011637D01*
X008255Y011637D01*
X008285Y011607D01*
X008715Y011607D01*
X008745Y011637D01*
X009255Y011637D01*
X009285Y011607D01*
X009715Y011607D01*
X010020Y011911D01*
X010020Y012342D01*
X009715Y012647D01*
X009285Y012647D01*
X009255Y012617D01*
X008745Y012617D01*
X008715Y012647D01*
X008285Y012647D01*
X008255Y012617D01*
X007745Y012617D01*
X007715Y012647D01*
X007490Y012647D01*
X007490Y016887D01*
X015123Y016887D01*
X015147Y016831D01*
X015214Y016763D01*
X015302Y016727D01*
X015578Y016727D01*
X015664Y016723D01*
X015676Y016727D01*
X015878Y016727D01*
X015966Y016763D01*
X016010Y016807D01*
X016010Y016339D01*
X015200Y016339D01*
X015112Y016303D01*
X015045Y016235D01*
X015008Y016147D01*
X015008Y015106D01*
X015045Y015018D01*
X015112Y014951D01*
X015200Y014914D01*
X016010Y014914D01*
X016010Y012647D01*
X015785Y012647D01*
X015755Y012617D01*
X015245Y012617D01*
X015215Y012647D01*
X014785Y012647D01*
X014755Y012617D01*
X014245Y012617D01*
X014215Y012647D01*
X013785Y012647D01*
X013480Y012342D01*
X013480Y011911D01*
X013785Y011607D01*
X014215Y011607D01*
X014245Y011637D01*
X014755Y011637D01*
X014785Y011607D01*
X015215Y011607D01*
X015245Y011637D01*
X015755Y011637D01*
X015785Y011607D01*
X016215Y011607D01*
X016245Y011637D01*
X016755Y011637D01*
X016785Y011607D01*
X017215Y011607D01*
X017245Y011637D01*
X017755Y011637D01*
X017785Y011607D01*
X018215Y011607D01*
X018245Y011637D01*
X018755Y011637D01*
X018785Y011607D01*
X019215Y011607D01*
X019520Y011911D01*
X019520Y012342D01*
X019215Y012647D01*
X018785Y012647D01*
X018755Y012617D01*
X018245Y012617D01*
X018215Y012647D01*
X017785Y012647D01*
X017755Y012617D01*
X017245Y012617D01*
X017215Y012647D01*
X016990Y012647D01*
X016990Y019174D01*
X017256Y019174D01*
X017345Y019210D01*
X017412Y019278D01*
X017445Y019357D01*
X024266Y019357D01*
X024370Y019313D01*
X026350Y017334D01*
X026350Y017309D01*
X026360Y017285D01*
X026360Y016919D01*
X026397Y016831D01*
X026464Y016763D01*
X026552Y016727D01*
X027128Y016727D01*
X027216Y016763D01*
X027260Y016807D01*
X027260Y016339D01*
X026450Y016339D01*
X026362Y016303D01*
X026295Y016235D01*
X026258Y016147D01*
X026258Y015106D01*
X026295Y015018D01*
X026362Y014951D01*
X026450Y014914D01*
X027260Y014914D01*
X027260Y012647D01*
X027035Y012647D01*
X027005Y012617D01*
X026495Y012617D01*
X026465Y012647D01*
X026035Y012647D01*
X026005Y012617D01*
X025495Y012617D01*
X025465Y012647D01*
X025035Y012647D01*
X024730Y012342D01*
X024730Y011911D01*
X025035Y011607D01*
X025465Y011607D01*
X025495Y011637D01*
X026005Y011637D01*
X026035Y011607D01*
X026465Y011607D01*
X026495Y011637D01*
X027005Y011637D01*
X027035Y011607D01*
X027465Y011607D01*
X027495Y011637D01*
X028005Y011637D01*
X028035Y011607D01*
X028465Y011607D01*
X028495Y011637D01*
X029005Y011637D01*
X029035Y011607D01*
X029465Y011607D01*
X029495Y011637D01*
X030005Y011637D01*
X030035Y011607D01*
X030465Y011607D01*
X030770Y011911D01*
X030770Y012342D01*
X030465Y012647D01*
X030035Y012647D01*
X030005Y012617D01*
X029495Y012617D01*
X029465Y012647D01*
X029035Y012647D01*
X029005Y012617D01*
X028495Y012617D01*
X028465Y012647D01*
X028240Y012647D01*
X028240Y019174D01*
X028506Y019174D01*
X028595Y019210D01*
X028662Y019278D01*
X028695Y019357D01*
X033766Y019357D01*
X033870Y019313D01*
X035850Y017334D01*
X035850Y017309D01*
X035860Y017285D01*
X035860Y016919D01*
X035897Y016831D01*
X035964Y016763D01*
X036052Y016727D01*
X036628Y016727D01*
X036716Y016763D01*
X036760Y016807D01*
X036760Y016339D01*
X035950Y016339D01*
X035862Y016303D01*
X035795Y016235D01*
X035758Y016147D01*
X035758Y015106D01*
X035795Y015018D01*
X035862Y014951D01*
X035950Y014914D01*
X036760Y014914D01*
X036760Y012647D01*
X036535Y012647D01*
X036505Y012617D01*
X035995Y012617D01*
X035965Y012647D01*
X035535Y012647D01*
X035505Y012617D01*
X034995Y012617D01*
X034965Y012647D01*
X034535Y012647D01*
X034230Y012342D01*
X034230Y011911D01*
X034535Y011607D01*
X034965Y011607D01*
X034995Y011637D01*
X035505Y011637D01*
X035535Y011607D01*
X035965Y011607D01*
X035995Y011637D01*
X036505Y011637D01*
X036535Y011607D01*
X036965Y011607D01*
X036995Y011637D01*
X037505Y011637D01*
X037535Y011607D01*
X037965Y011607D01*
X037995Y011637D01*
X038505Y011637D01*
X038535Y011607D01*
X038965Y011607D01*
X038995Y011637D01*
X039505Y011637D01*
X039535Y011607D01*
X039965Y011607D01*
X040270Y011911D01*
X040270Y012342D01*
X039965Y012647D01*
X039535Y012647D01*
X039505Y012617D01*
X038995Y012617D01*
X038965Y012647D01*
X038535Y012647D01*
X038505Y012617D01*
X037995Y012617D01*
X037965Y012647D01*
X037740Y012647D01*
X037740Y019174D01*
X038006Y019174D01*
X038095Y019210D01*
X038162Y019278D01*
X038199Y019366D01*
X038199Y020328D01*
X038162Y020416D01*
X038095Y020483D01*
X038006Y020520D01*
X036494Y020520D01*
X036405Y020483D01*
X036338Y020416D01*
X036301Y020328D01*
X036301Y019366D01*
X036338Y019278D01*
X036405Y019210D01*
X036494Y019174D01*
X036760Y019174D01*
X036760Y018006D01*
X036716Y018050D01*
X036628Y018087D01*
X036483Y018087D01*
X034563Y020006D01*
X034483Y020200D01*
X034323Y020360D01*
X034113Y020447D01*
X033887Y020447D01*
X033677Y020360D01*
X033654Y020337D01*
X028695Y020337D01*
X028662Y020416D01*
X028595Y020483D01*
X028506Y020520D01*
X026994Y020520D01*
X026905Y020483D01*
X026838Y020416D01*
X026801Y020328D01*
X026801Y019366D01*
X026838Y019278D01*
X026905Y019210D01*
X026994Y019174D01*
X027260Y019174D01*
X027260Y018006D01*
X027216Y018050D01*
X027128Y018087D01*
X026983Y018087D01*
X025063Y020006D01*
X024983Y020200D01*
X024823Y020360D01*
X024613Y020447D01*
X024387Y020447D01*
X024177Y020360D01*
X024154Y020337D01*
X017445Y020337D01*
X017412Y020416D01*
X017345Y020483D01*
X017256Y020520D01*
X015744Y020520D01*
X015655Y020483D01*
X015588Y020416D01*
X015551Y020328D01*
X015551Y019366D01*
X015588Y019278D01*
X015655Y019210D01*
X015744Y019174D01*
X016010Y019174D01*
X016010Y018006D01*
X015966Y018050D01*
X015878Y018087D01*
X015302Y018087D01*
X015214Y018050D01*
X015147Y017983D01*
X015110Y017894D01*
X015110Y017867D01*
X014462Y017867D01*
X014462Y018663D01*
X014426Y018751D01*
X014358Y018818D01*
X014270Y018855D01*
X013230Y018855D01*
X013142Y018818D01*
X013074Y018751D01*
X013038Y018663D01*
X013038Y017867D01*
X007490Y017867D01*
X007490Y023320D01*
X007570Y023513D01*
X007570Y023740D01*
X007483Y023950D01*
X007323Y024110D01*
X007130Y024190D01*
X006165Y025154D01*
X006217Y025103D02*
X021251Y025103D01*
X021010Y024944D02*
X006375Y024944D01*
X006534Y024786D02*
X020811Y024786D01*
X020779Y024760D02*
X020779Y024760D01*
X020688Y024627D02*
X006692Y024627D01*
X006851Y024469D02*
X020580Y024469D01*
X020487Y024310D02*
X007009Y024310D01*
X007222Y024152D02*
X020438Y024152D01*
X020389Y023993D02*
X007440Y023993D01*
X007531Y023835D02*
X020352Y023835D01*
X020352Y023676D02*
X007570Y023676D01*
X007570Y023518D02*
X020352Y023518D01*
X020358Y023359D02*
X007506Y023359D01*
X007490Y023201D02*
X020407Y023201D01*
X020456Y023042D02*
X007490Y023042D01*
X007490Y022884D02*
X020512Y022884D01*
X020620Y022725D02*
X007490Y022725D01*
X007490Y022567D02*
X020729Y022567D01*
X020885Y022408D02*
X007490Y022408D01*
X007490Y022250D02*
X021084Y022250D01*
X021402Y022091D02*
X007490Y022091D01*
X007490Y021933D02*
X041103Y021933D01*
X041103Y022091D02*
X022636Y022091D01*
X022910Y022250D02*
X041103Y022250D01*
X041103Y022408D02*
X023117Y022408D01*
X023264Y022567D02*
X041103Y022567D01*
X041103Y022725D02*
X023395Y022725D01*
X020654Y023627D02*
X020656Y023700D01*
X020662Y023773D01*
X020672Y023845D01*
X020685Y023916D01*
X020703Y023987D01*
X020724Y024057D01*
X020750Y024125D01*
X020778Y024192D01*
X020811Y024257D01*
X020847Y024321D01*
X020886Y024382D01*
X020928Y024442D01*
X020974Y024498D01*
X021023Y024553D01*
X021074Y024604D01*
X021129Y024653D01*
X021185Y024699D01*
X021245Y024741D01*
X021306Y024780D01*
X021370Y024816D01*
X021435Y024849D01*
X021502Y024877D01*
X021570Y024903D01*
X021640Y024924D01*
X021711Y024942D01*
X021782Y024955D01*
X021854Y024965D01*
X021927Y024971D01*
X022000Y024973D01*
X022073Y024971D01*
X022146Y024965D01*
X022218Y024955D01*
X022289Y024942D01*
X022360Y024924D01*
X022430Y024903D01*
X022498Y024877D01*
X022565Y024849D01*
X022630Y024816D01*
X022694Y024780D01*
X022755Y024741D01*
X022815Y024699D01*
X022871Y024653D01*
X022926Y024604D01*
X022977Y024553D01*
X023026Y024498D01*
X023072Y024442D01*
X023114Y024382D01*
X023153Y024321D01*
X023189Y024257D01*
X023222Y024192D01*
X023250Y024125D01*
X023276Y024057D01*
X023297Y023987D01*
X023315Y023916D01*
X023328Y023845D01*
X023338Y023773D01*
X023344Y023700D01*
X023346Y023627D01*
X023344Y023554D01*
X023338Y023481D01*
X023328Y023409D01*
X023315Y023338D01*
X023297Y023267D01*
X023276Y023197D01*
X023250Y023129D01*
X023222Y023062D01*
X023189Y022997D01*
X023153Y022933D01*
X023114Y022872D01*
X023072Y022812D01*
X023026Y022756D01*
X022977Y022701D01*
X022926Y022650D01*
X022871Y022601D01*
X022815Y022555D01*
X022755Y022513D01*
X022694Y022474D01*
X022630Y022438D01*
X022565Y022405D01*
X022498Y022377D01*
X022430Y022351D01*
X022360Y022330D01*
X022289Y022312D01*
X022218Y022299D01*
X022146Y022289D01*
X022073Y022283D01*
X022000Y022281D01*
X021927Y022283D01*
X021854Y022289D01*
X021782Y022299D01*
X021711Y022312D01*
X021640Y022330D01*
X021570Y022351D01*
X021502Y022377D01*
X021435Y022405D01*
X021370Y022438D01*
X021306Y022474D01*
X021245Y022513D01*
X021185Y022555D01*
X021129Y022601D01*
X021074Y022650D01*
X021023Y022701D01*
X020974Y022756D01*
X020928Y022812D01*
X020886Y022872D01*
X020847Y022933D01*
X020811Y022997D01*
X020778Y023062D01*
X020750Y023129D01*
X020724Y023197D01*
X020703Y023267D01*
X020685Y023338D01*
X020672Y023409D01*
X020662Y023481D01*
X020656Y023554D01*
X020654Y023627D01*
X020715Y027107D02*
X020285Y027107D01*
X020000Y027391D01*
X019715Y027107D01*
X019285Y027107D01*
X019000Y027391D01*
X018715Y027107D01*
X018285Y027107D01*
X018000Y027391D01*
X017715Y027107D01*
X017285Y027107D01*
X017000Y027391D01*
X016715Y027107D01*
X016285Y027107D01*
X016000Y027391D01*
X015715Y027107D01*
X015285Y027107D01*
X015000Y027391D01*
X014715Y027107D01*
X014285Y027107D01*
X014000Y027391D01*
X013715Y027107D01*
X013285Y027107D01*
X013000Y027391D01*
X012715Y027107D01*
X012285Y027107D01*
X012000Y027391D01*
X011715Y027107D01*
X011285Y027107D01*
X011000Y027391D01*
X010715Y027107D01*
X010285Y027107D01*
X010000Y027391D01*
X009715Y027107D01*
X009285Y027107D01*
X009000Y027391D01*
X008715Y027107D01*
X008285Y027107D01*
X008000Y027391D01*
X007715Y027107D01*
X007285Y027107D01*
X007000Y027391D01*
X006715Y027107D01*
X006285Y027107D01*
X005980Y027411D01*
X005980Y027842D01*
X006265Y028127D01*
X005980Y028411D01*
X005980Y028694D01*
X005729Y028945D01*
X005680Y029063D01*
X005680Y036190D01*
X005729Y036308D01*
X005819Y036398D01*
X005960Y036539D01*
X005960Y036850D01*
X006236Y037127D01*
X005960Y037403D01*
X005960Y037850D01*
X006276Y038167D01*
X006724Y038167D01*
X007000Y037890D01*
X007276Y038167D01*
X007724Y038167D01*
X008000Y037890D01*
X008276Y038167D01*
X008724Y038167D01*
X009000Y037890D01*
X009276Y038167D01*
X009724Y038167D01*
X010000Y037890D01*
X010276Y038167D01*
X010724Y038167D01*
X011000Y037890D01*
X011276Y038167D01*
X011724Y038167D01*
X012000Y037890D01*
X012276Y038167D01*
X012724Y038167D01*
X013000Y037890D01*
X013276Y038167D01*
X013724Y038167D01*
X014000Y037890D01*
X014276Y038167D01*
X014724Y038167D01*
X015000Y037890D01*
X015276Y038167D01*
X015724Y038167D01*
X016000Y037890D01*
X016276Y038167D01*
X016724Y038167D01*
X017000Y037890D01*
X017276Y038167D01*
X017724Y038167D01*
X018000Y037890D01*
X018276Y038167D01*
X018724Y038167D01*
X019000Y037890D01*
X019276Y038167D01*
X019724Y038167D01*
X020000Y037890D01*
X020276Y038167D01*
X020724Y038167D01*
X021000Y037890D01*
X021276Y038167D01*
X021724Y038167D01*
X022000Y037890D01*
X022276Y038167D01*
X022724Y038167D01*
X023000Y037890D01*
X023276Y038167D01*
X023724Y038167D01*
X024000Y037890D01*
X024276Y038167D01*
X024724Y038167D01*
X025000Y037890D01*
X025276Y038167D01*
X025724Y038167D01*
X026000Y037890D01*
X026276Y038167D01*
X026724Y038167D01*
X027000Y037890D01*
X027276Y038167D01*
X027724Y038167D01*
X028000Y037890D01*
X028276Y038167D01*
X028724Y038167D01*
X029000Y037890D01*
X029276Y038167D01*
X029724Y038167D01*
X030000Y037890D01*
X030276Y038167D01*
X030724Y038167D01*
X031000Y037890D01*
X031276Y038167D01*
X031724Y038167D01*
X032000Y037890D01*
X032276Y038167D01*
X032724Y038167D01*
X033000Y037890D01*
X033276Y038167D01*
X033724Y038167D01*
X034000Y037890D01*
X034276Y038167D01*
X034724Y038167D01*
X035000Y037890D01*
X035276Y038167D01*
X035724Y038167D01*
X036000Y037890D01*
X036276Y038167D01*
X036724Y038167D01*
X037040Y037850D01*
X037040Y037845D01*
X037301Y038107D01*
X037480Y038107D01*
X037480Y037647D01*
X037520Y037647D01*
X037520Y038107D01*
X037699Y038107D01*
X037980Y037825D01*
X037980Y037647D01*
X037520Y037647D01*
X037520Y037607D01*
X037980Y037607D01*
X037980Y037428D01*
X037699Y037147D01*
X037520Y037147D01*
X037520Y037607D01*
X037480Y037607D01*
X037480Y037147D01*
X037301Y037147D01*
X037040Y037408D01*
X037040Y037403D01*
X036764Y037127D01*
X037040Y036850D01*
X037040Y036845D01*
X037301Y037107D01*
X037480Y037107D01*
X037480Y036647D01*
X037520Y036647D01*
X037520Y037107D01*
X037699Y037107D01*
X037980Y036825D01*
X037980Y036647D01*
X037520Y036647D01*
X037520Y036607D01*
X037980Y036607D01*
X037980Y036428D01*
X037699Y036147D01*
X037520Y036147D01*
X037520Y036607D01*
X037480Y036607D01*
X037480Y036147D01*
X037301Y036147D01*
X037040Y036408D01*
X037040Y036403D01*
X036764Y036127D01*
X037040Y035850D01*
X037040Y035845D01*
X037301Y036107D01*
X037480Y036107D01*
X037480Y035647D01*
X037520Y035647D01*
X037520Y036107D01*
X037699Y036107D01*
X037980Y035825D01*
X037980Y035647D01*
X037520Y035647D01*
X037520Y035607D01*
X037980Y035607D01*
X037980Y035428D01*
X037699Y035147D01*
X037520Y035147D01*
X037520Y035607D01*
X037480Y035607D01*
X037480Y035147D01*
X037301Y035147D01*
X037040Y035408D01*
X037040Y035403D01*
X036724Y035087D01*
X036276Y035087D01*
X036000Y035363D01*
X035820Y035183D01*
X035820Y030042D01*
X036020Y029842D01*
X036020Y029411D01*
X035735Y029127D01*
X036020Y028842D01*
X036020Y028411D01*
X035735Y028127D01*
X036020Y027842D01*
X036020Y027411D01*
X035715Y027107D01*
X035285Y027107D01*
X035000Y027391D01*
X034715Y027107D01*
X034285Y027107D01*
X034000Y027391D01*
X033715Y027107D01*
X033285Y027107D01*
X033000Y027391D01*
X032715Y027107D01*
X032285Y027107D01*
X032000Y027391D01*
X031715Y027107D01*
X031285Y027107D01*
X031000Y027391D01*
X030715Y027107D01*
X030285Y027107D01*
X030000Y027391D01*
X029715Y027107D01*
X029285Y027107D01*
X029000Y027391D01*
X028715Y027107D01*
X028285Y027107D01*
X028000Y027391D01*
X027715Y027107D01*
X027285Y027107D01*
X027000Y027391D01*
X026715Y027107D01*
X026285Y027107D01*
X026000Y027391D01*
X025715Y027107D01*
X025285Y027107D01*
X025000Y027391D01*
X024715Y027107D01*
X024285Y027107D01*
X024000Y027391D01*
X023715Y027107D01*
X023285Y027107D01*
X023000Y027391D01*
X022715Y027107D01*
X022285Y027107D01*
X022000Y027391D01*
X021715Y027107D01*
X021285Y027107D01*
X021000Y027391D01*
X020715Y027107D01*
X020772Y027163D02*
X021228Y027163D01*
X021070Y027322D02*
X020930Y027322D01*
X020228Y027163D02*
X019772Y027163D01*
X019930Y027322D02*
X020070Y027322D01*
X019228Y027163D02*
X018772Y027163D01*
X018930Y027322D02*
X019070Y027322D01*
X018228Y027163D02*
X017772Y027163D01*
X017930Y027322D02*
X018070Y027322D01*
X017228Y027163D02*
X016772Y027163D01*
X016930Y027322D02*
X017070Y027322D01*
X016228Y027163D02*
X015772Y027163D01*
X015930Y027322D02*
X016070Y027322D01*
X015228Y027163D02*
X014772Y027163D01*
X014930Y027322D02*
X015070Y027322D01*
X014228Y027163D02*
X013772Y027163D01*
X013930Y027322D02*
X014070Y027322D01*
X013228Y027163D02*
X012772Y027163D01*
X012930Y027322D02*
X013070Y027322D01*
X012228Y027163D02*
X011772Y027163D01*
X011930Y027322D02*
X012070Y027322D01*
X011228Y027163D02*
X010772Y027163D01*
X010930Y027322D02*
X011070Y027322D01*
X010228Y027163D02*
X009772Y027163D01*
X009930Y027322D02*
X010070Y027322D01*
X009228Y027163D02*
X008772Y027163D01*
X008930Y027322D02*
X009070Y027322D01*
X008228Y027163D02*
X007772Y027163D01*
X007930Y027322D02*
X008070Y027322D01*
X007228Y027163D02*
X006772Y027163D01*
X006930Y027322D02*
X007070Y027322D01*
X006228Y027163D02*
X005240Y027163D01*
X005240Y027005D02*
X041103Y027005D01*
X041103Y027163D02*
X035772Y027163D01*
X035930Y027322D02*
X041103Y027322D01*
X041103Y027480D02*
X036020Y027480D01*
X036020Y027639D02*
X041103Y027639D01*
X041103Y027797D02*
X036020Y027797D01*
X035906Y027956D02*
X041103Y027956D01*
X041103Y028114D02*
X035748Y028114D01*
X035881Y028273D02*
X041103Y028273D01*
X041103Y028431D02*
X036020Y028431D01*
X036020Y028590D02*
X041103Y028590D01*
X041103Y028748D02*
X036020Y028748D01*
X035955Y028907D02*
X041103Y028907D01*
X041103Y029065D02*
X035797Y029065D01*
X035832Y029224D02*
X041103Y029224D01*
X041103Y029382D02*
X035991Y029382D01*
X036020Y029541D02*
X041103Y029541D01*
X041103Y029699D02*
X036020Y029699D01*
X036004Y029858D02*
X041103Y029858D01*
X041103Y030016D02*
X035846Y030016D01*
X035820Y030175D02*
X041103Y030175D01*
X041103Y030333D02*
X035820Y030333D01*
X035820Y030492D02*
X041103Y030492D01*
X041103Y030650D02*
X035820Y030650D01*
X035820Y030809D02*
X041103Y030809D01*
X041103Y030967D02*
X040854Y030967D01*
X040724Y030837D02*
X041040Y031153D01*
X041040Y031600D01*
X040764Y031877D01*
X041040Y032153D01*
X041040Y032600D01*
X040764Y032877D01*
X041040Y033153D01*
X041040Y033600D01*
X040764Y033877D01*
X041040Y034153D01*
X041040Y034600D01*
X040724Y034917D01*
X040276Y034917D01*
X040000Y034640D01*
X039724Y034917D01*
X039276Y034917D01*
X038960Y034600D01*
X038960Y034153D01*
X039236Y033877D01*
X038960Y033600D01*
X038960Y033153D01*
X039236Y032877D01*
X038960Y032600D01*
X038960Y032153D01*
X039236Y031877D01*
X038960Y031600D01*
X038960Y031153D01*
X039276Y030837D01*
X039724Y030837D01*
X040000Y031113D01*
X040276Y030837D01*
X040724Y030837D01*
X041013Y031126D02*
X041103Y031126D01*
X041103Y031284D02*
X041040Y031284D01*
X041040Y031443D02*
X041103Y031443D01*
X041103Y031601D02*
X041039Y031601D01*
X041103Y031760D02*
X040881Y031760D01*
X040805Y031918D02*
X041103Y031918D01*
X041103Y032077D02*
X040964Y032077D01*
X041040Y032235D02*
X041103Y032235D01*
X041103Y032394D02*
X041040Y032394D01*
X041040Y032552D02*
X041103Y032552D01*
X041103Y032711D02*
X040930Y032711D01*
X040771Y032869D02*
X041103Y032869D01*
X041103Y033028D02*
X040915Y033028D01*
X041040Y033186D02*
X041103Y033186D01*
X041103Y033345D02*
X041040Y033345D01*
X041040Y033503D02*
X041103Y033503D01*
X041103Y033662D02*
X040979Y033662D01*
X041103Y033820D02*
X040820Y033820D01*
X040866Y033979D02*
X041103Y033979D01*
X041103Y034137D02*
X041024Y034137D01*
X041040Y034296D02*
X041103Y034296D01*
X041103Y034454D02*
X041040Y034454D01*
X041028Y034613D02*
X041103Y034613D01*
X041103Y034771D02*
X040869Y034771D01*
X041103Y034930D02*
X035820Y034930D01*
X035820Y035088D02*
X036275Y035088D01*
X036116Y035247D02*
X035884Y035247D01*
X035820Y034771D02*
X039131Y034771D01*
X038972Y034613D02*
X035820Y034613D01*
X035820Y034454D02*
X038960Y034454D01*
X038960Y034296D02*
X035820Y034296D01*
X035820Y034137D02*
X038976Y034137D01*
X039134Y033979D02*
X035820Y033979D01*
X035820Y033820D02*
X039180Y033820D01*
X039021Y033662D02*
X035820Y033662D01*
X035820Y033503D02*
X038960Y033503D01*
X038960Y033345D02*
X035820Y033345D01*
X035820Y033186D02*
X038960Y033186D01*
X039085Y033028D02*
X035820Y033028D01*
X035820Y032869D02*
X039229Y032869D01*
X039070Y032711D02*
X035820Y032711D01*
X035820Y032552D02*
X038960Y032552D01*
X038960Y032394D02*
X035820Y032394D01*
X035820Y032235D02*
X038960Y032235D01*
X039036Y032077D02*
X035820Y032077D01*
X035820Y031918D02*
X039195Y031918D01*
X039119Y031760D02*
X035820Y031760D01*
X035820Y031601D02*
X038961Y031601D01*
X038960Y031443D02*
X035820Y031443D01*
X035820Y031284D02*
X038960Y031284D01*
X038987Y031126D02*
X035820Y031126D01*
X035820Y030967D02*
X039146Y030967D01*
X039854Y030967D02*
X040146Y030967D01*
X040131Y034771D02*
X039869Y034771D01*
X041103Y035088D02*
X036725Y035088D01*
X036884Y035247D02*
X037201Y035247D01*
X037043Y035405D02*
X037040Y035405D01*
X037480Y035405D02*
X037520Y035405D01*
X037520Y035247D02*
X037480Y035247D01*
X037480Y035564D02*
X037520Y035564D01*
X037520Y035722D02*
X037480Y035722D01*
X037480Y035881D02*
X037520Y035881D01*
X037520Y036039D02*
X037480Y036039D01*
X037480Y036198D02*
X037520Y036198D01*
X037520Y036356D02*
X037480Y036356D01*
X037480Y036515D02*
X037520Y036515D01*
X037520Y036673D02*
X037480Y036673D01*
X037480Y036832D02*
X037520Y036832D01*
X037520Y036990D02*
X037480Y036990D01*
X037480Y037149D02*
X037520Y037149D01*
X037520Y037307D02*
X037480Y037307D01*
X037480Y037466D02*
X037520Y037466D01*
X037520Y037624D02*
X039476Y037624D01*
X039425Y037675D02*
X039670Y037431D01*
X039989Y037298D01*
X040335Y037298D01*
X040655Y037431D01*
X040900Y037675D01*
X041032Y037995D01*
X041032Y038341D01*
X040900Y038661D01*
X040655Y038906D01*
X040335Y039038D01*
X039989Y039038D01*
X039670Y038906D01*
X039425Y038661D01*
X039292Y038341D01*
X039292Y037995D01*
X039425Y037675D01*
X039380Y037783D02*
X037980Y037783D01*
X037864Y037941D02*
X039315Y037941D01*
X039292Y038100D02*
X037706Y038100D01*
X037520Y038100D02*
X037480Y038100D01*
X037480Y037941D02*
X037520Y037941D01*
X037520Y037783D02*
X037480Y037783D01*
X037294Y038100D02*
X036791Y038100D01*
X036949Y037941D02*
X037136Y037941D01*
X037141Y037307D02*
X036944Y037307D01*
X036786Y037149D02*
X037299Y037149D01*
X037185Y036990D02*
X036900Y036990D01*
X036993Y036356D02*
X037092Y036356D01*
X037250Y036198D02*
X036835Y036198D01*
X036851Y036039D02*
X037234Y036039D01*
X037075Y035881D02*
X037010Y035881D01*
X037766Y036039D02*
X041103Y036039D01*
X041103Y035881D02*
X037925Y035881D01*
X037980Y035722D02*
X041103Y035722D01*
X041103Y035564D02*
X037980Y035564D01*
X037957Y035405D02*
X041103Y035405D01*
X041103Y035247D02*
X037799Y035247D01*
X037750Y036198D02*
X041103Y036198D01*
X041103Y036356D02*
X037908Y036356D01*
X037980Y036515D02*
X041103Y036515D01*
X041103Y036673D02*
X037980Y036673D01*
X037974Y036832D02*
X041103Y036832D01*
X041103Y036990D02*
X037815Y036990D01*
X037701Y037149D02*
X041103Y037149D01*
X041103Y037307D02*
X040357Y037307D01*
X040690Y037466D02*
X041103Y037466D01*
X041103Y037624D02*
X040849Y037624D01*
X040944Y037783D02*
X041103Y037783D01*
X041103Y037941D02*
X041010Y037941D01*
X041032Y038100D02*
X041103Y038100D01*
X041103Y038258D02*
X041032Y038258D01*
X041001Y038417D02*
X041103Y038417D01*
X041103Y038575D02*
X040935Y038575D01*
X040827Y038734D02*
X041103Y038734D01*
X041103Y038892D02*
X040669Y038892D01*
X041103Y039051D02*
X002928Y039051D01*
X002928Y039108D02*
X041103Y039108D01*
X041103Y000933D01*
X038339Y000933D01*
X038407Y001001D01*
X038500Y001225D01*
X038500Y001468D01*
X038407Y001692D01*
X038236Y001864D01*
X038011Y001957D01*
X037769Y001957D01*
X037544Y001864D01*
X037373Y001692D01*
X037280Y001468D01*
X037280Y001225D01*
X037373Y001001D01*
X037441Y000933D01*
X036559Y000933D01*
X036627Y001001D01*
X036720Y001225D01*
X036720Y001468D01*
X036627Y001692D01*
X036456Y001864D01*
X036231Y001957D01*
X035989Y001957D01*
X035764Y001864D01*
X035593Y001692D01*
X035500Y001468D01*
X035407Y001692D01*
X035236Y001864D01*
X035011Y001957D01*
X034769Y001957D01*
X034544Y001864D01*
X034373Y001692D01*
X034280Y001468D01*
X034280Y001225D01*
X034373Y001001D01*
X034441Y000933D01*
X033559Y000933D01*
X033627Y001001D01*
X033720Y001225D01*
X033720Y001468D01*
X033627Y001692D01*
X033456Y001864D01*
X033231Y001957D01*
X032989Y001957D01*
X032764Y001864D01*
X032593Y001692D01*
X032500Y001468D01*
X032407Y001692D01*
X032236Y001864D01*
X032011Y001957D01*
X031769Y001957D01*
X031544Y001864D01*
X031373Y001692D01*
X031280Y001468D01*
X031280Y001225D01*
X031373Y001001D01*
X031441Y000933D01*
X030559Y000933D01*
X030627Y001001D01*
X030720Y001225D01*
X030720Y001468D01*
X030627Y001692D01*
X030456Y001864D01*
X030231Y001957D01*
X029989Y001957D01*
X029764Y001864D01*
X029593Y001692D01*
X029500Y001468D01*
X029407Y001692D01*
X029236Y001864D01*
X029011Y001957D01*
X028769Y001957D01*
X028544Y001864D01*
X028373Y001692D01*
X028280Y001468D01*
X028280Y001225D01*
X028373Y001001D01*
X028441Y000933D01*
X027559Y000933D01*
X027627Y001001D01*
X027720Y001225D01*
X027720Y001468D01*
X027627Y001692D01*
X027456Y001864D01*
X027231Y001957D01*
X026989Y001957D01*
X026764Y001864D01*
X026593Y001692D01*
X026500Y001468D01*
X026407Y001692D01*
X026236Y001864D01*
X026011Y001957D01*
X025769Y001957D01*
X025544Y001864D01*
X025373Y001692D01*
X025280Y001468D01*
X025280Y001225D01*
X025373Y001001D01*
X025441Y000933D01*
X024559Y000933D01*
X024627Y001001D01*
X024720Y001225D01*
X024720Y001468D01*
X024627Y001692D01*
X024456Y001864D01*
X024231Y001957D01*
X023989Y001957D01*
X023764Y001864D01*
X023593Y001692D01*
X023500Y001468D01*
X023407Y001692D01*
X023236Y001864D01*
X023011Y001957D01*
X022769Y001957D01*
X022544Y001864D01*
X022373Y001692D01*
X022280Y001468D01*
X022280Y001225D01*
X022373Y001001D01*
X022441Y000933D01*
X021559Y000933D01*
X021627Y001001D01*
X021720Y001225D01*
X021720Y001468D01*
X021627Y001692D01*
X021456Y001864D01*
X021231Y001957D01*
X020989Y001957D01*
X020764Y001864D01*
X020593Y001692D01*
X020500Y001468D01*
X020407Y001692D01*
X020236Y001864D01*
X020011Y001957D01*
X019769Y001957D01*
X019544Y001864D01*
X019373Y001692D01*
X019280Y001468D01*
X019280Y001225D01*
X019373Y001001D01*
X019441Y000933D01*
X018559Y000933D01*
X018627Y001001D01*
X018720Y001225D01*
X018720Y001468D01*
X018627Y001692D01*
X018456Y001864D01*
X018231Y001957D01*
X017989Y001957D01*
X017764Y001864D01*
X017593Y001692D01*
X017500Y001468D01*
X017407Y001692D01*
X017236Y001864D01*
X017011Y001957D01*
X016769Y001957D01*
X016544Y001864D01*
X016373Y001692D01*
X016280Y001468D01*
X016280Y001225D01*
X016373Y001001D01*
X016441Y000933D01*
X015559Y000933D01*
X015627Y001001D01*
X015720Y001225D01*
X015720Y001468D01*
X015627Y001692D01*
X015456Y001864D01*
X015231Y001957D01*
X014989Y001957D01*
X014764Y001864D01*
X014593Y001692D01*
X014500Y001468D01*
X014500Y001225D01*
X014593Y001001D01*
X014661Y000933D01*
X013120Y000933D01*
X013208Y001021D01*
X013290Y001219D01*
X013290Y002034D01*
X013210Y002227D01*
X015195Y002227D01*
X015219Y002220D01*
X015274Y002227D01*
X038580Y002227D01*
X038727Y002288D01*
X039227Y002788D01*
X039339Y002900D01*
X039400Y003047D01*
X039400Y005084D01*
X039415Y005099D01*
X039490Y005279D01*
X039490Y005358D01*
X040055Y005923D01*
X040110Y006055D01*
X040110Y006690D01*
X040490Y007070D01*
X040490Y007683D01*
X040057Y008117D01*
X039443Y008117D01*
X039010Y007683D01*
X039010Y007070D01*
X039390Y006690D01*
X039390Y006276D01*
X039000Y005886D01*
X038954Y005932D01*
X038822Y005987D01*
X033149Y005987D01*
X032610Y006526D01*
X032610Y007020D01*
X032674Y007083D01*
X032750Y007267D01*
X032750Y007986D01*
X032674Y008170D01*
X032577Y008267D01*
X032910Y008267D01*
X033189Y007987D01*
X033189Y007736D01*
X033226Y007648D01*
X033293Y007581D01*
X033381Y007544D01*
X033574Y007544D01*
X033563Y007517D01*
X033563Y006870D01*
X033600Y006782D01*
X033667Y006715D01*
X033755Y006678D01*
X034245Y006678D01*
X034333Y006715D01*
X034400Y006782D01*
X034437Y006870D01*
X034437Y006874D01*
X036207Y006874D01*
X036443Y006637D01*
X037057Y006637D01*
X037490Y007070D01*
X037490Y007683D01*
X037057Y008117D01*
X036443Y008117D01*
X036010Y007683D01*
X036010Y007514D01*
X034437Y007514D01*
X034437Y007517D01*
X034401Y007604D01*
X034595Y007604D01*
X034640Y007616D01*
X034681Y007640D01*
X034715Y007674D01*
X034739Y007715D01*
X034751Y007760D01*
X034751Y008041D01*
X034392Y008041D01*
X034392Y008078D01*
X034356Y008078D01*
X034356Y008515D01*
X034153Y008515D01*
X034108Y008503D01*
X034067Y008479D01*
X034036Y008448D01*
X034026Y008471D01*
X033959Y008539D01*
X033871Y008575D01*
X033620Y008575D01*
X033263Y008932D01*
X033131Y008987D01*
X031785Y008987D01*
X031785Y009056D01*
X031749Y009144D01*
X031714Y009179D01*
X031725Y009221D01*
X031725Y009453D01*
X031298Y009453D01*
X031298Y009549D01*
X031202Y009549D01*
X031202Y009937D01*
X030931Y009937D01*
X030885Y009924D01*
X030844Y009901D01*
X030811Y009867D01*
X030787Y009826D01*
X030775Y009780D01*
X030775Y009549D01*
X031202Y009549D01*
X031202Y009453D01*
X030775Y009453D01*
X030775Y009221D01*
X030786Y009179D01*
X030751Y009144D01*
X030750Y009141D01*
X030749Y009144D01*
X030714Y009179D01*
X030725Y009221D01*
X030725Y009453D01*
X030298Y009453D01*
X030298Y009549D01*
X030202Y009549D01*
X030202Y009937D01*
X029931Y009937D01*
X029885Y009924D01*
X029844Y009901D01*
X029811Y009867D01*
X029787Y009826D01*
X029775Y009780D01*
X029775Y009549D01*
X030202Y009549D01*
X030202Y009453D01*
X029775Y009453D01*
X029775Y009221D01*
X029786Y009179D01*
X029751Y009144D01*
X029750Y009141D01*
X029749Y009144D01*
X029714Y009179D01*
X029725Y009221D01*
X029725Y009453D01*
X029298Y009453D01*
X029298Y009549D01*
X029202Y009549D01*
X029202Y009937D01*
X028931Y009937D01*
X028885Y009924D01*
X028844Y009901D01*
X028811Y009867D01*
X028787Y009826D01*
X028775Y009780D01*
X028775Y009549D01*
X029202Y009549D01*
X029202Y009453D01*
X028775Y009453D01*
X028775Y009221D01*
X028786Y009179D01*
X028751Y009144D01*
X028750Y009141D01*
X028749Y009144D01*
X028714Y009179D01*
X028725Y009221D01*
X028725Y009453D01*
X028298Y009453D01*
X028298Y009549D01*
X028202Y009549D01*
X028202Y009937D01*
X027931Y009937D01*
X027885Y009924D01*
X027844Y009901D01*
X027811Y009867D01*
X027787Y009826D01*
X027775Y009780D01*
X027775Y009549D01*
X028202Y009549D01*
X028202Y009453D01*
X027775Y009453D01*
X027775Y009221D01*
X027786Y009179D01*
X027751Y009144D01*
X027750Y009141D01*
X027749Y009144D01*
X027714Y009179D01*
X027725Y009221D01*
X027725Y009453D01*
X027298Y009453D01*
X027298Y009549D01*
X027202Y009549D01*
X027202Y009937D01*
X026931Y009937D01*
X026885Y009924D01*
X026844Y009901D01*
X026811Y009867D01*
X026787Y009826D01*
X026775Y009780D01*
X026775Y009549D01*
X027202Y009549D01*
X027202Y009453D01*
X026775Y009453D01*
X026775Y009221D01*
X026786Y009179D01*
X026751Y009144D01*
X026750Y009141D01*
X026749Y009144D01*
X026714Y009179D01*
X026725Y009221D01*
X026725Y009453D01*
X026298Y009453D01*
X026298Y009549D01*
X026202Y009549D01*
X026202Y009937D01*
X025931Y009937D01*
X025885Y009924D01*
X025844Y009901D01*
X025811Y009867D01*
X025787Y009826D01*
X025775Y009780D01*
X025775Y009549D01*
X026202Y009549D01*
X026202Y009453D01*
X025775Y009453D01*
X025775Y009221D01*
X025786Y009179D01*
X025751Y009144D01*
X025750Y009141D01*
X025749Y009144D01*
X025714Y009179D01*
X025725Y009221D01*
X025725Y009453D01*
X025298Y009453D01*
X025298Y009549D01*
X025202Y009549D01*
X025202Y009937D01*
X024931Y009937D01*
X024885Y009924D01*
X024844Y009901D01*
X024811Y009867D01*
X024787Y009826D01*
X024775Y009780D01*
X024775Y009549D01*
X025202Y009549D01*
X025202Y009453D01*
X024775Y009453D01*
X024775Y009221D01*
X024786Y009179D01*
X024751Y009144D01*
X024750Y009141D01*
X024749Y009144D01*
X024714Y009179D01*
X024725Y009221D01*
X024725Y009453D01*
X024298Y009453D01*
X024298Y009549D01*
X024202Y009549D01*
X024202Y009937D01*
X023931Y009937D01*
X023885Y009924D01*
X023844Y009901D01*
X023811Y009867D01*
X023787Y009826D01*
X023775Y009780D01*
X023775Y009549D01*
X024202Y009549D01*
X024202Y009453D01*
X023775Y009453D01*
X023775Y009221D01*
X023786Y009179D01*
X023751Y009144D01*
X023750Y009141D01*
X023749Y009144D01*
X023714Y009179D01*
X023725Y009221D01*
X023725Y009453D01*
X023298Y009453D01*
X023298Y009549D01*
X023202Y009549D01*
X023202Y009937D01*
X022931Y009937D01*
X022885Y009924D01*
X022844Y009901D01*
X022811Y009867D01*
X022787Y009826D01*
X022775Y009780D01*
X022775Y009549D01*
X023202Y009549D01*
X023202Y009453D01*
X022775Y009453D01*
X022775Y009221D01*
X022786Y009179D01*
X022751Y009144D01*
X022715Y009056D01*
X022715Y008449D01*
X022751Y008361D01*
X022819Y008293D01*
X022890Y008264D01*
X022890Y008234D01*
X022826Y008170D01*
X022750Y007986D01*
X022674Y008170D01*
X022533Y008311D01*
X022349Y008387D01*
X022151Y008387D01*
X021967Y008311D01*
X021826Y008170D01*
X021750Y007986D01*
X021674Y008170D01*
X021533Y008311D01*
X021349Y008387D01*
X021151Y008387D01*
X020967Y008311D01*
X020826Y008170D01*
X020750Y007986D01*
X020674Y008170D01*
X020533Y008311D01*
X020349Y008387D01*
X020151Y008387D01*
X019967Y008311D01*
X019826Y008170D01*
X019750Y007986D01*
X019674Y008170D01*
X019533Y008311D01*
X019349Y008387D01*
X019151Y008387D01*
X018967Y008311D01*
X018826Y008170D01*
X018750Y007986D01*
X018674Y008170D01*
X018533Y008311D01*
X018349Y008387D01*
X018151Y008387D01*
X017967Y008311D01*
X017826Y008170D01*
X017750Y007986D01*
X017674Y008170D01*
X017533Y008311D01*
X017349Y008387D01*
X017151Y008387D01*
X016967Y008311D01*
X016826Y008170D01*
X016750Y007986D01*
X016674Y008170D01*
X016533Y008311D01*
X016349Y008387D01*
X016151Y008387D01*
X015967Y008311D01*
X015826Y008170D01*
X015750Y007986D01*
X015674Y008170D01*
X015533Y008311D01*
X015349Y008387D01*
X015151Y008387D01*
X014967Y008311D01*
X014826Y008170D01*
X014750Y007986D01*
X014674Y008170D01*
X014533Y008311D01*
X014349Y008387D01*
X014151Y008387D01*
X013967Y008311D01*
X013826Y008170D01*
X013750Y007986D01*
X013674Y008170D01*
X013533Y008311D01*
X013349Y008387D01*
X013151Y008387D01*
X012967Y008311D01*
X012826Y008170D01*
X012750Y007986D01*
X012750Y007267D01*
X012826Y007083D01*
X012930Y006980D01*
X012930Y006509D01*
X010367Y003947D01*
X008494Y003947D01*
X008356Y004084D01*
X008157Y004167D01*
X007343Y004167D01*
X007144Y004084D01*
X006992Y003933D01*
X006910Y003734D01*
X006910Y003519D01*
X006992Y003321D01*
X007144Y003169D01*
X007343Y003087D01*
X008157Y003087D01*
X008356Y003169D01*
X008494Y003307D01*
X010564Y003307D01*
X010681Y003355D01*
X010910Y003584D01*
X010910Y003519D01*
X010992Y003321D01*
X011144Y003169D01*
X011343Y003087D01*
X012157Y003087D01*
X012356Y003169D01*
X012508Y003321D01*
X012590Y003519D01*
X012590Y003734D01*
X012508Y003932D01*
X014431Y005855D01*
X014521Y005945D01*
X014570Y006063D01*
X014570Y006980D01*
X014674Y007083D01*
X014750Y007267D01*
X014750Y007986D01*
X014750Y007267D01*
X014826Y007083D01*
X014890Y007020D01*
X014890Y006990D01*
X014819Y006960D01*
X014751Y006893D01*
X014715Y006804D01*
X014715Y006197D01*
X014744Y006127D01*
X014715Y006056D01*
X014715Y005449D01*
X014751Y005361D01*
X014819Y005293D01*
X014839Y005285D01*
X014810Y005214D01*
X014810Y005039D01*
X014877Y004877D01*
X015001Y004754D01*
X015162Y004687D01*
X015338Y004687D01*
X015499Y004754D01*
X015623Y004877D01*
X015690Y005039D01*
X015690Y005214D01*
X015661Y005285D01*
X015681Y005293D01*
X015749Y005361D01*
X015750Y005364D01*
X015751Y005361D01*
X015819Y005293D01*
X015839Y005285D01*
X015810Y005214D01*
X015810Y005039D01*
X015877Y004877D01*
X016001Y004754D01*
X016162Y004687D01*
X016338Y004687D01*
X016499Y004754D01*
X016623Y004877D01*
X016690Y005039D01*
X016690Y005214D01*
X016661Y005285D01*
X016681Y005293D01*
X016749Y005361D01*
X016750Y005364D01*
X016751Y005361D01*
X016819Y005293D01*
X016839Y005285D01*
X016810Y005214D01*
X016810Y005039D01*
X016877Y004877D01*
X016914Y004840D01*
X016636Y004562D01*
X016590Y004451D01*
X016590Y004443D01*
X016544Y004424D01*
X016373Y004252D01*
X016280Y004028D01*
X016280Y003785D01*
X016373Y003561D01*
X016544Y003390D01*
X016769Y003297D01*
X017011Y003297D01*
X017236Y003390D01*
X017407Y003561D01*
X017500Y003785D01*
X017593Y003561D01*
X017710Y003444D01*
X017710Y003027D01*
X015510Y003027D01*
X015510Y003444D01*
X015627Y003561D01*
X015720Y003785D01*
X015720Y004028D01*
X015627Y004252D01*
X015456Y004424D01*
X015231Y004517D01*
X014989Y004517D01*
X014764Y004424D01*
X014593Y004252D01*
X014500Y004028D01*
X014500Y003785D01*
X014593Y003561D01*
X014710Y003444D01*
X014710Y003027D01*
X005916Y003027D01*
X004650Y004292D01*
X004650Y005143D01*
X004793Y005203D01*
X004934Y005343D01*
X005010Y005527D01*
X005010Y005726D01*
X004934Y005910D01*
X004793Y006051D01*
X004650Y006110D01*
X004650Y006143D01*
X004793Y006203D01*
X004934Y006343D01*
X005010Y006527D01*
X005010Y006726D01*
X004934Y006910D01*
X004793Y007051D01*
X004650Y007110D01*
X004650Y007143D01*
X004793Y007203D01*
X004934Y007343D01*
X005010Y007527D01*
X005010Y007726D01*
X004934Y007910D01*
X004793Y008051D01*
X004650Y008110D01*
X004650Y008143D01*
X006851Y008143D01*
X006891Y008127D02*
X007609Y008127D01*
X006891Y008127D01*
X006707Y008203D01*
X006566Y008343D01*
X006490Y008527D01*
X006490Y008726D01*
X006566Y008910D01*
X006707Y009051D01*
X006891Y009127D01*
X007609Y009127D01*
X007793Y009051D01*
X007897Y008947D01*
X008314Y008947D01*
X008431Y008898D01*
X008715Y008614D01*
X008715Y009056D01*
X008751Y009144D01*
X008786Y009179D01*
X008775Y009221D01*
X008775Y009453D01*
X009202Y009453D01*
X009202Y009549D01*
X009202Y009937D01*
X008931Y009937D01*
X008885Y009924D01*
X008844Y009901D01*
X008811Y009867D01*
X008787Y009826D01*
X008775Y009780D01*
X008775Y009549D01*
X009202Y009549D01*
X009298Y009549D01*
X009298Y009937D01*
X009569Y009937D01*
X009615Y009924D01*
X009656Y009901D01*
X009689Y009867D01*
X009713Y009826D01*
X009725Y009780D01*
X009725Y009549D01*
X009298Y009549D01*
X009298Y009453D01*
X009725Y009453D01*
X009725Y009221D01*
X009714Y009179D01*
X009749Y009144D01*
X009750Y009141D01*
X009751Y009144D01*
X009786Y009179D01*
X009775Y009221D01*
X009775Y009453D01*
X010202Y009453D01*
X010202Y009549D01*
X010202Y009937D01*
X009931Y009937D01*
X009885Y009924D01*
X009844Y009901D01*
X009811Y009867D01*
X009787Y009826D01*
X009775Y009780D01*
X009775Y009549D01*
X010202Y009549D01*
X010298Y009549D01*
X010298Y009937D01*
X010569Y009937D01*
X010615Y009924D01*
X010656Y009901D01*
X010689Y009867D01*
X010713Y009826D01*
X010725Y009780D01*
X010725Y009549D01*
X010298Y009549D01*
X010298Y009453D01*
X010725Y009453D01*
X010725Y009221D01*
X010714Y009179D01*
X010749Y009144D01*
X010750Y009141D01*
X010751Y009144D01*
X010786Y009179D01*
X010775Y009221D01*
X010775Y009453D01*
X011202Y009453D01*
X011202Y009549D01*
X011202Y009937D01*
X010931Y009937D01*
X010885Y009924D01*
X010844Y009901D01*
X010811Y009867D01*
X010787Y009826D01*
X010775Y009780D01*
X010775Y009549D01*
X011202Y009549D01*
X011298Y009549D01*
X011298Y009937D01*
X011569Y009937D01*
X011615Y009924D01*
X011656Y009901D01*
X011689Y009867D01*
X011713Y009826D01*
X011725Y009780D01*
X011725Y009549D01*
X011298Y009549D01*
X011298Y009453D01*
X011725Y009453D01*
X011725Y009221D01*
X011714Y009179D01*
X011749Y009144D01*
X011750Y009141D01*
X011751Y009144D01*
X011786Y009179D01*
X011775Y009221D01*
X011775Y009453D01*
X012202Y009453D01*
X012202Y009549D01*
X012202Y009937D01*
X011931Y009937D01*
X011885Y009924D01*
X011844Y009901D01*
X011811Y009867D01*
X011787Y009826D01*
X011775Y009780D01*
X011775Y009549D01*
X012202Y009549D01*
X012298Y009549D01*
X012298Y009937D01*
X012569Y009937D01*
X012615Y009924D01*
X012656Y009901D01*
X012689Y009867D01*
X012713Y009826D01*
X012725Y009780D01*
X012725Y009549D01*
X012298Y009549D01*
X012298Y009453D01*
X012725Y009453D01*
X012725Y009221D01*
X012714Y009179D01*
X012749Y009144D01*
X012785Y009056D01*
X012785Y008449D01*
X012749Y008361D01*
X012681Y008293D01*
X012610Y008264D01*
X012610Y008234D01*
X012674Y008170D01*
X012750Y007986D01*
X012750Y007267D01*
X012674Y007083D01*
X012533Y006943D01*
X012349Y006867D01*
X012193Y006867D01*
X010681Y005355D01*
X010564Y005307D01*
X007897Y005307D01*
X007793Y005203D01*
X007609Y005127D01*
X006891Y005127D01*
X006707Y005203D01*
X006566Y005343D01*
X006490Y005527D01*
X006490Y005726D01*
X006566Y005910D01*
X006707Y006051D01*
X006891Y006127D01*
X007609Y006127D01*
X006891Y006127D01*
X006707Y006203D01*
X006566Y006343D01*
X006490Y006527D01*
X006490Y006726D01*
X006566Y006910D01*
X006707Y007051D01*
X006891Y007127D01*
X007609Y007127D01*
X006891Y007127D01*
X006707Y007203D01*
X006566Y007343D01*
X006490Y007527D01*
X006490Y007726D01*
X006566Y007910D01*
X006707Y008051D01*
X006891Y008127D01*
X006641Y007985D02*
X004859Y007985D01*
X004969Y007826D02*
X006531Y007826D01*
X006490Y007668D02*
X005010Y007668D01*
X005003Y007509D02*
X006497Y007509D01*
X006563Y007351D02*
X004937Y007351D01*
X004768Y007192D02*
X006732Y007192D01*
X006690Y007034D02*
X004810Y007034D01*
X004948Y006875D02*
X006552Y006875D01*
X006490Y006717D02*
X005010Y006717D01*
X005010Y006558D02*
X006490Y006558D01*
X006543Y006400D02*
X004957Y006400D01*
X004832Y006241D02*
X006668Y006241D01*
X006784Y006083D02*
X004716Y006083D01*
X004920Y005924D02*
X006580Y005924D01*
X006506Y005766D02*
X004994Y005766D01*
X005010Y005607D02*
X006490Y005607D01*
X006523Y005449D02*
X004977Y005449D01*
X004881Y005290D02*
X006619Y005290D01*
X006878Y005132D02*
X004650Y005132D01*
X004650Y004973D02*
X011394Y004973D01*
X011235Y004815D02*
X004650Y004815D01*
X004650Y004656D02*
X011077Y004656D01*
X010918Y004498D02*
X004650Y004498D01*
X004650Y004339D02*
X010760Y004339D01*
X010601Y004181D02*
X004762Y004181D01*
X004920Y004022D02*
X007082Y004022D01*
X006964Y003864D02*
X005079Y003864D01*
X005237Y003705D02*
X006910Y003705D01*
X006910Y003547D02*
X005396Y003547D01*
X005554Y003388D02*
X006964Y003388D01*
X007083Y003230D02*
X005713Y003230D01*
X005871Y003071D02*
X014710Y003071D01*
X014710Y003230D02*
X012417Y003230D01*
X012536Y003388D02*
X014710Y003388D01*
X014607Y003547D02*
X012590Y003547D01*
X012590Y003705D02*
X014533Y003705D01*
X014500Y003864D02*
X012536Y003864D01*
X012598Y004022D02*
X014500Y004022D01*
X014563Y004181D02*
X012757Y004181D01*
X012915Y004339D02*
X014680Y004339D01*
X014943Y004498D02*
X013074Y004498D01*
X013232Y004656D02*
X016730Y004656D01*
X016609Y004498D02*
X015277Y004498D01*
X015540Y004339D02*
X016460Y004339D01*
X016343Y004181D02*
X015657Y004181D01*
X015720Y004022D02*
X016280Y004022D01*
X016280Y003864D02*
X015720Y003864D01*
X015687Y003705D02*
X016313Y003705D01*
X016387Y003547D02*
X015613Y003547D01*
X015510Y003388D02*
X016548Y003388D01*
X017232Y003388D02*
X017710Y003388D01*
X017710Y003230D02*
X015510Y003230D01*
X015510Y003071D02*
X017710Y003071D01*
X017607Y003547D02*
X017393Y003547D01*
X017467Y003705D02*
X017533Y003705D01*
X017500Y003785D02*
X017500Y004028D01*
X017593Y004252D01*
X017764Y004424D01*
X017832Y004452D01*
X017374Y004452D01*
X017291Y004368D01*
X017407Y004252D01*
X017500Y004028D01*
X017500Y003785D01*
X017500Y003864D02*
X017500Y003864D01*
X017500Y004022D02*
X017500Y004022D01*
X017437Y004181D02*
X017563Y004181D01*
X017680Y004339D02*
X017320Y004339D01*
X016889Y004815D02*
X016560Y004815D01*
X016663Y004973D02*
X016837Y004973D01*
X016810Y005132D02*
X016690Y005132D01*
X016674Y005290D02*
X016826Y005290D01*
X015940Y004815D02*
X015560Y004815D01*
X015663Y004973D02*
X015837Y004973D01*
X015810Y005132D02*
X015690Y005132D01*
X015674Y005290D02*
X015826Y005290D01*
X014826Y005290D02*
X013866Y005290D01*
X013708Y005132D02*
X014810Y005132D01*
X014837Y004973D02*
X013549Y004973D01*
X013391Y004815D02*
X014940Y004815D01*
X014715Y005449D02*
X014025Y005449D01*
X014183Y005607D02*
X014715Y005607D01*
X014715Y005766D02*
X014342Y005766D01*
X014500Y005924D02*
X014715Y005924D01*
X014726Y006083D02*
X014570Y006083D01*
X014570Y006241D02*
X014715Y006241D01*
X014715Y006400D02*
X014570Y006400D01*
X014570Y006558D02*
X014715Y006558D01*
X014715Y006717D02*
X014570Y006717D01*
X014570Y006875D02*
X014744Y006875D01*
X014624Y007034D02*
X014876Y007034D01*
X014781Y007192D02*
X014719Y007192D01*
X014750Y007351D02*
X014750Y007351D01*
X014750Y007509D02*
X014750Y007509D01*
X014750Y007668D02*
X014750Y007668D01*
X014750Y007826D02*
X014750Y007826D01*
X014750Y007985D02*
X014750Y007985D01*
X014685Y008143D02*
X014815Y008143D01*
X014958Y008302D02*
X014542Y008302D01*
X013958Y008302D02*
X013542Y008302D01*
X013685Y008143D02*
X013815Y008143D01*
X013750Y007986D02*
X013750Y007267D01*
X013674Y007083D01*
X013570Y006980D01*
X013570Y006313D01*
X013521Y006195D01*
X013431Y006105D01*
X011493Y004167D01*
X011837Y004167D01*
X013930Y006259D01*
X013930Y006980D01*
X013826Y007083D01*
X013750Y007267D01*
X013750Y007986D01*
X013750Y007985D02*
X013750Y007985D01*
X013750Y007826D02*
X013750Y007826D01*
X013750Y007668D02*
X013750Y007668D01*
X013750Y007509D02*
X013750Y007509D01*
X013750Y007351D02*
X013750Y007351D01*
X013719Y007192D02*
X013781Y007192D01*
X013876Y007034D02*
X013624Y007034D01*
X013570Y006875D02*
X013930Y006875D01*
X013930Y006717D02*
X013570Y006717D01*
X013570Y006558D02*
X013930Y006558D01*
X013930Y006400D02*
X013570Y006400D01*
X013540Y006241D02*
X013912Y006241D01*
X013753Y006083D02*
X013409Y006083D01*
X013250Y005924D02*
X013595Y005924D01*
X013436Y005766D02*
X013092Y005766D01*
X012933Y005607D02*
X013278Y005607D01*
X013119Y005449D02*
X012775Y005449D01*
X012616Y005290D02*
X012961Y005290D01*
X012802Y005132D02*
X012458Y005132D01*
X012299Y004973D02*
X012644Y004973D01*
X012485Y004815D02*
X012141Y004815D01*
X011982Y004656D02*
X012327Y004656D01*
X012168Y004498D02*
X011824Y004498D01*
X011665Y004339D02*
X012010Y004339D01*
X011851Y004181D02*
X011507Y004181D01*
X011750Y003627D02*
X014250Y006127D01*
X014250Y007627D01*
X013250Y007627D02*
X013250Y006377D01*
X010500Y003627D01*
X007750Y003627D01*
X008417Y003230D02*
X011083Y003230D01*
X010964Y003388D02*
X010714Y003388D01*
X010873Y003547D02*
X010910Y003547D01*
X010443Y004022D02*
X008418Y004022D01*
X007622Y005132D02*
X011552Y005132D01*
X011711Y005290D02*
X007881Y005290D01*
X007250Y005627D02*
X010500Y005627D01*
X012250Y007377D01*
X012250Y007627D01*
X012750Y007668D02*
X012750Y007668D01*
X012750Y007826D02*
X012750Y007826D01*
X012750Y007985D02*
X012750Y007985D01*
X012685Y008143D02*
X012815Y008143D01*
X012690Y008302D02*
X012958Y008302D01*
X012785Y008460D02*
X022715Y008460D01*
X022715Y008619D02*
X012785Y008619D01*
X012785Y008777D02*
X022715Y008777D01*
X022715Y008936D02*
X012785Y008936D01*
X012770Y009094D02*
X022730Y009094D01*
X022775Y009253D02*
X012725Y009253D01*
X012725Y009411D02*
X022775Y009411D01*
X022775Y009570D02*
X012725Y009570D01*
X012725Y009728D02*
X022775Y009728D01*
X022830Y009887D02*
X012670Y009887D01*
X012298Y009887D02*
X012202Y009887D01*
X012202Y009728D02*
X012298Y009728D01*
X012298Y009570D02*
X012202Y009570D01*
X011775Y009570D02*
X011725Y009570D01*
X011725Y009728D02*
X011775Y009728D01*
X011830Y009887D02*
X011670Y009887D01*
X011298Y009887D02*
X011202Y009887D01*
X011202Y009728D02*
X011298Y009728D01*
X011298Y009570D02*
X011202Y009570D01*
X010775Y009570D02*
X010725Y009570D01*
X010725Y009728D02*
X010775Y009728D01*
X010830Y009887D02*
X010670Y009887D01*
X010298Y009887D02*
X010202Y009887D01*
X010202Y009728D02*
X010298Y009728D01*
X010298Y009570D02*
X010202Y009570D01*
X009775Y009570D02*
X009725Y009570D01*
X009725Y009728D02*
X009775Y009728D01*
X009830Y009887D02*
X009670Y009887D01*
X009298Y009887D02*
X009202Y009887D01*
X009202Y009728D02*
X009298Y009728D01*
X009298Y009570D02*
X009202Y009570D01*
X008775Y009570D02*
X002928Y009570D01*
X002928Y009728D02*
X008775Y009728D01*
X008830Y009887D02*
X002928Y009887D01*
X002928Y010045D02*
X041103Y010045D01*
X041103Y009887D02*
X031670Y009887D01*
X031656Y009901D02*
X031615Y009924D01*
X031569Y009937D01*
X031298Y009937D01*
X031298Y009549D01*
X031725Y009549D01*
X031725Y009780D01*
X031713Y009826D01*
X031689Y009867D01*
X031656Y009901D01*
X031725Y009728D02*
X041103Y009728D01*
X041103Y009570D02*
X031725Y009570D01*
X031725Y009411D02*
X041103Y009411D01*
X041103Y009253D02*
X031725Y009253D01*
X031770Y009094D02*
X041103Y009094D01*
X041103Y008936D02*
X033254Y008936D01*
X033418Y008777D02*
X041103Y008777D01*
X041103Y008619D02*
X033576Y008619D01*
X034031Y008460D02*
X034047Y008460D01*
X034356Y008460D02*
X034392Y008460D01*
X034392Y008515D02*
X034392Y008078D01*
X034751Y008078D01*
X034751Y008359D01*
X034739Y008405D01*
X034715Y008446D01*
X034681Y008479D01*
X034640Y008503D01*
X034595Y008515D01*
X034392Y008515D01*
X034392Y008302D02*
X034356Y008302D01*
X034356Y008143D02*
X034392Y008143D01*
X034751Y008143D02*
X041103Y008143D01*
X041103Y007985D02*
X040189Y007985D01*
X040347Y007826D02*
X041103Y007826D01*
X041103Y007668D02*
X040490Y007668D01*
X040490Y007509D02*
X041103Y007509D01*
X041103Y007351D02*
X040490Y007351D01*
X040490Y007192D02*
X041103Y007192D01*
X041103Y007034D02*
X040454Y007034D01*
X040295Y006875D02*
X041103Y006875D01*
X041103Y006717D02*
X040137Y006717D01*
X040110Y006558D02*
X041103Y006558D01*
X041103Y006400D02*
X040110Y006400D01*
X040110Y006241D02*
X041103Y006241D01*
X041103Y006083D02*
X040110Y006083D01*
X040056Y005924D02*
X041103Y005924D01*
X041103Y005766D02*
X039898Y005766D01*
X039740Y005607D02*
X041103Y005607D01*
X041103Y005449D02*
X039581Y005449D01*
X039490Y005290D02*
X041103Y005290D01*
X041103Y005132D02*
X039429Y005132D01*
X039400Y004973D02*
X041103Y004973D01*
X041103Y004815D02*
X039400Y004815D01*
X039400Y004656D02*
X041103Y004656D01*
X041103Y004498D02*
X039400Y004498D01*
X039400Y004339D02*
X041103Y004339D01*
X041103Y004181D02*
X039400Y004181D01*
X039400Y004022D02*
X041103Y004022D01*
X041103Y003864D02*
X039400Y003864D01*
X039400Y003705D02*
X041103Y003705D01*
X041103Y003547D02*
X039400Y003547D01*
X039400Y003388D02*
X041103Y003388D01*
X041103Y003230D02*
X039400Y003230D01*
X039400Y003071D02*
X041103Y003071D01*
X041103Y002913D02*
X039344Y002913D01*
X039193Y002754D02*
X041103Y002754D01*
X041103Y002596D02*
X040671Y002596D01*
X040655Y002611D02*
X040335Y002744D01*
X039989Y002744D01*
X039670Y002611D01*
X039425Y002367D01*
X039292Y002047D01*
X039292Y001701D01*
X039425Y001381D01*
X039670Y001136D01*
X039989Y001004D01*
X040335Y001004D01*
X040655Y001136D01*
X040900Y001381D01*
X041032Y001701D01*
X041032Y002047D01*
X040900Y002367D01*
X040655Y002611D01*
X040829Y002437D02*
X041103Y002437D01*
X041103Y002279D02*
X040936Y002279D01*
X041002Y002120D02*
X041103Y002120D01*
X041103Y001962D02*
X041032Y001962D01*
X041032Y001803D02*
X041103Y001803D01*
X041103Y001645D02*
X041009Y001645D01*
X040943Y001486D02*
X041103Y001486D01*
X041103Y001328D02*
X040847Y001328D01*
X040688Y001169D02*
X041103Y001169D01*
X041103Y001011D02*
X040352Y001011D01*
X039973Y001011D02*
X038411Y001011D01*
X038477Y001169D02*
X039637Y001169D01*
X039478Y001328D02*
X038500Y001328D01*
X038492Y001486D02*
X039381Y001486D01*
X039316Y001645D02*
X038427Y001645D01*
X038296Y001803D02*
X039292Y001803D01*
X039292Y001962D02*
X013290Y001962D01*
X013290Y001803D02*
X014704Y001803D01*
X014573Y001645D02*
X013290Y001645D01*
X013290Y001486D02*
X014508Y001486D01*
X014500Y001328D02*
X013290Y001328D01*
X013269Y001169D02*
X014523Y001169D01*
X014589Y001011D02*
X013198Y001011D01*
X012380Y000933D02*
X011025Y000933D01*
X011063Y000961D01*
X011116Y001014D01*
X011161Y001075D01*
X011195Y001142D01*
X011218Y001214D01*
X011230Y001289D01*
X011230Y001607D01*
X010770Y001607D01*
X010770Y001647D01*
X011230Y001647D01*
X011230Y001964D01*
X011218Y002039D01*
X011195Y002111D01*
X011161Y002178D01*
X011125Y002227D01*
X012290Y002227D01*
X012210Y002034D01*
X012210Y001219D01*
X012292Y001021D01*
X012380Y000933D01*
X012302Y001011D02*
X011113Y001011D01*
X011204Y001169D02*
X012231Y001169D01*
X012210Y001328D02*
X011230Y001328D01*
X011230Y001486D02*
X012210Y001486D01*
X012210Y001645D02*
X010770Y001645D01*
X010730Y001645D02*
X009290Y001645D01*
X009290Y001803D02*
X010270Y001803D01*
X010270Y001647D02*
X010270Y001964D01*
X010282Y002039D01*
X010305Y002111D01*
X010339Y002178D01*
X010375Y002227D01*
X009210Y002227D01*
X009290Y002034D01*
X009290Y001219D01*
X009208Y001021D01*
X009120Y000933D01*
X010475Y000933D01*
X010437Y000961D01*
X010384Y001014D01*
X010339Y001075D01*
X010305Y001142D01*
X010282Y001214D01*
X010270Y001289D01*
X010270Y001607D01*
X010730Y001607D01*
X010730Y001647D01*
X010270Y001647D01*
X010270Y001486D02*
X009290Y001486D01*
X009290Y001328D02*
X010270Y001328D01*
X010296Y001169D02*
X009269Y001169D01*
X009198Y001011D02*
X010387Y001011D01*
X010270Y001962D02*
X009290Y001962D01*
X009254Y002120D02*
X010310Y002120D01*
X011190Y002120D02*
X012246Y002120D01*
X012210Y001962D02*
X011230Y001962D01*
X011230Y001803D02*
X012210Y001803D01*
X013254Y002120D02*
X039323Y002120D01*
X039389Y002279D02*
X038705Y002279D01*
X038876Y002437D02*
X039496Y002437D01*
X039654Y002596D02*
X039035Y002596D01*
X037890Y003907D02*
X037890Y003987D01*
X036750Y005127D01*
X032000Y005127D01*
X030250Y006877D01*
X030250Y007627D01*
X029250Y007627D02*
X029250Y006877D01*
X031500Y004627D01*
X034250Y004627D01*
X034890Y003987D01*
X034890Y003907D01*
X035296Y001803D02*
X035704Y001803D01*
X035573Y001645D02*
X035427Y001645D01*
X035492Y001486D02*
X035508Y001486D01*
X035500Y001468D02*
X035500Y001225D01*
X035407Y001001D01*
X035339Y000933D01*
X035661Y000933D01*
X035593Y001001D01*
X035500Y001225D01*
X035500Y001468D01*
X035500Y001328D02*
X035500Y001328D01*
X035477Y001169D02*
X035523Y001169D01*
X035589Y001011D02*
X035411Y001011D01*
X034369Y001011D02*
X033631Y001011D01*
X033697Y001169D02*
X034303Y001169D01*
X034280Y001328D02*
X033720Y001328D01*
X033712Y001486D02*
X034288Y001486D01*
X034353Y001645D02*
X033647Y001645D01*
X033516Y001803D02*
X034484Y001803D01*
X032704Y001803D02*
X032296Y001803D01*
X032427Y001645D02*
X032573Y001645D01*
X032508Y001486D02*
X032492Y001486D01*
X032500Y001468D02*
X032500Y001225D01*
X032407Y001001D01*
X032339Y000933D01*
X032661Y000933D01*
X032593Y001001D01*
X032500Y001225D01*
X032500Y001468D01*
X032500Y001328D02*
X032500Y001328D01*
X032477Y001169D02*
X032523Y001169D01*
X032589Y001011D02*
X032411Y001011D01*
X031369Y001011D02*
X030631Y001011D01*
X030697Y001169D02*
X031303Y001169D01*
X031280Y001328D02*
X030720Y001328D01*
X030712Y001486D02*
X031288Y001486D01*
X031353Y001645D02*
X030647Y001645D01*
X030516Y001803D02*
X031484Y001803D01*
X029704Y001803D02*
X029296Y001803D01*
X029427Y001645D02*
X029573Y001645D01*
X029508Y001486D02*
X029492Y001486D01*
X029500Y001468D02*
X029500Y001225D01*
X029407Y001001D01*
X029339Y000933D01*
X029661Y000933D01*
X029593Y001001D01*
X029500Y001225D01*
X029500Y001468D01*
X029500Y001328D02*
X029500Y001328D01*
X029477Y001169D02*
X029523Y001169D01*
X029589Y001011D02*
X029411Y001011D01*
X028369Y001011D02*
X027631Y001011D01*
X027697Y001169D02*
X028303Y001169D01*
X028280Y001328D02*
X027720Y001328D01*
X027712Y001486D02*
X028288Y001486D01*
X028353Y001645D02*
X027647Y001645D01*
X027516Y001803D02*
X028484Y001803D01*
X026704Y001803D02*
X026296Y001803D01*
X026427Y001645D02*
X026573Y001645D01*
X026508Y001486D02*
X026492Y001486D01*
X026500Y001468D02*
X026500Y001225D01*
X026407Y001001D01*
X026339Y000933D01*
X026661Y000933D01*
X026593Y001001D01*
X026500Y001225D01*
X026500Y001468D01*
X026500Y001328D02*
X026500Y001328D01*
X026477Y001169D02*
X026523Y001169D01*
X026589Y001011D02*
X026411Y001011D01*
X025484Y001803D02*
X024516Y001803D01*
X024647Y001645D02*
X025353Y001645D01*
X025288Y001486D02*
X024712Y001486D01*
X024720Y001328D02*
X025280Y001328D01*
X025303Y001169D02*
X024697Y001169D01*
X024631Y001011D02*
X025369Y001011D01*
X023661Y000933D02*
X023339Y000933D01*
X023407Y001001D01*
X023500Y001225D01*
X023500Y001468D01*
X023500Y001225D01*
X023593Y001001D01*
X023661Y000933D01*
X023589Y001011D02*
X023411Y001011D01*
X023477Y001169D02*
X023523Y001169D01*
X023500Y001328D02*
X023500Y001328D01*
X023492Y001486D02*
X023508Y001486D01*
X023573Y001645D02*
X023427Y001645D01*
X023296Y001803D02*
X023704Y001803D01*
X022484Y001803D02*
X021516Y001803D01*
X021647Y001645D02*
X022353Y001645D01*
X022288Y001486D02*
X021712Y001486D01*
X021720Y001328D02*
X022280Y001328D01*
X022303Y001169D02*
X021697Y001169D01*
X021631Y001011D02*
X022369Y001011D01*
X020661Y000933D02*
X020339Y000933D01*
X020407Y001001D01*
X020500Y001225D01*
X020500Y001468D01*
X020500Y001225D01*
X020593Y001001D01*
X020661Y000933D01*
X020589Y001011D02*
X020411Y001011D01*
X020477Y001169D02*
X020523Y001169D01*
X020500Y001328D02*
X020500Y001328D01*
X020492Y001486D02*
X020508Y001486D01*
X020573Y001645D02*
X020427Y001645D01*
X020296Y001803D02*
X020704Y001803D01*
X019484Y001803D02*
X018516Y001803D01*
X018647Y001645D02*
X019353Y001645D01*
X019288Y001486D02*
X018712Y001486D01*
X018720Y001328D02*
X019280Y001328D01*
X019303Y001169D02*
X018697Y001169D01*
X018631Y001011D02*
X019369Y001011D01*
X017661Y000933D02*
X017339Y000933D01*
X017407Y001001D01*
X017500Y001225D01*
X017500Y001468D01*
X017500Y001225D01*
X017593Y001001D01*
X017661Y000933D01*
X017589Y001011D02*
X017411Y001011D01*
X017477Y001169D02*
X017523Y001169D01*
X017500Y001328D02*
X017500Y001328D01*
X017492Y001486D02*
X017508Y001486D01*
X017573Y001645D02*
X017427Y001645D01*
X017296Y001803D02*
X017704Y001803D01*
X016484Y001803D02*
X015516Y001803D01*
X015647Y001645D02*
X016353Y001645D01*
X016288Y001486D02*
X015712Y001486D01*
X015720Y001328D02*
X016280Y001328D01*
X016303Y001169D02*
X015697Y001169D01*
X015631Y001011D02*
X016369Y001011D01*
X011869Y005449D02*
X010775Y005449D01*
X010933Y005607D02*
X012028Y005607D01*
X012186Y005766D02*
X011092Y005766D01*
X011250Y005924D02*
X012345Y005924D01*
X012503Y006083D02*
X011409Y006083D01*
X011567Y006241D02*
X012662Y006241D01*
X012820Y006400D02*
X011726Y006400D01*
X011884Y006558D02*
X012930Y006558D01*
X012930Y006717D02*
X012043Y006717D01*
X012370Y006875D02*
X012930Y006875D01*
X012876Y007034D02*
X012624Y007034D01*
X012719Y007192D02*
X012781Y007192D01*
X012750Y007351D02*
X012750Y007351D01*
X012750Y007509D02*
X012750Y007509D01*
X011250Y007627D02*
X011250Y007377D01*
X010000Y006127D01*
X008750Y006127D01*
X008250Y006627D01*
X007250Y006627D01*
X007609Y007127D02*
X007793Y007051D01*
X007897Y006947D01*
X008227Y006947D01*
X007882Y007292D01*
X007793Y007203D01*
X007609Y007127D01*
X007768Y007192D02*
X007982Y007192D01*
X008140Y007034D02*
X007810Y007034D01*
X008000Y007627D02*
X007250Y007627D01*
X007609Y008127D02*
X007793Y008051D01*
X007897Y007947D01*
X008064Y007947D01*
X008181Y007898D01*
X008750Y007329D01*
X008750Y007674D01*
X008117Y008307D01*
X007897Y008307D01*
X007793Y008203D01*
X007609Y008127D01*
X007649Y008143D02*
X008281Y008143D01*
X008439Y007985D02*
X007859Y007985D01*
X007892Y008302D02*
X008122Y008302D01*
X008250Y008627D02*
X009250Y007627D01*
X008750Y007668D02*
X008412Y007668D01*
X008570Y007509D02*
X008750Y007509D01*
X008750Y007351D02*
X008729Y007351D01*
X008598Y007826D02*
X008253Y007826D01*
X008000Y007627D02*
X009000Y006627D01*
X009500Y006627D01*
X010250Y007377D01*
X010250Y007627D01*
X009775Y009253D02*
X009725Y009253D01*
X009725Y009411D02*
X009775Y009411D01*
X010725Y009411D02*
X010775Y009411D01*
X010775Y009253D02*
X010725Y009253D01*
X011725Y009253D02*
X011775Y009253D01*
X011775Y009411D02*
X011725Y009411D01*
X009859Y010838D02*
X013638Y010838D01*
X013540Y010936D02*
X013809Y010667D01*
X013990Y010667D01*
X013990Y011117D01*
X013540Y011117D01*
X013540Y010936D01*
X013540Y010996D02*
X009941Y010996D01*
X009949Y011019D02*
X009960Y011090D01*
X009960Y011117D01*
X009510Y011117D01*
X009510Y011137D01*
X009490Y011137D01*
X009490Y011587D01*
X009464Y011587D01*
X009392Y011575D01*
X009323Y011553D01*
X009259Y011520D01*
X009200Y011478D01*
X009149Y011426D01*
X009107Y011368D01*
X009074Y011303D01*
X009051Y011234D01*
X009040Y011163D01*
X009040Y011137D01*
X009490Y011137D01*
X009490Y011117D01*
X009040Y011117D01*
X009040Y011090D01*
X009051Y011019D01*
X009074Y010950D01*
X009107Y010886D01*
X009149Y010827D01*
X009200Y010776D01*
X009259Y010733D01*
X009323Y010700D01*
X009392Y010678D01*
X009464Y010667D01*
X009490Y010667D01*
X009490Y011117D01*
X009510Y011117D01*
X009510Y010667D01*
X009536Y010667D01*
X009608Y010678D01*
X009677Y010700D01*
X009741Y010733D01*
X009800Y010776D01*
X009851Y010827D01*
X009893Y010886D01*
X009926Y010950D01*
X009949Y011019D01*
X009960Y011137D02*
X009960Y011163D01*
X009949Y011234D01*
X009926Y011303D01*
X009893Y011368D01*
X009851Y011426D01*
X009800Y011478D01*
X009741Y011520D01*
X009677Y011553D01*
X009608Y011575D01*
X009536Y011587D01*
X009510Y011587D01*
X009510Y011137D01*
X009960Y011137D01*
X009960Y011155D02*
X013540Y011155D01*
X013540Y011137D02*
X013990Y011137D01*
X013990Y011587D01*
X013809Y011587D01*
X013540Y011317D01*
X013540Y011137D01*
X013540Y011313D02*
X009921Y011313D01*
X009806Y011472D02*
X013694Y011472D01*
X013761Y011630D02*
X009739Y011630D01*
X009897Y011789D02*
X013603Y011789D01*
X013480Y011947D02*
X010020Y011947D01*
X010020Y012106D02*
X013480Y012106D01*
X013480Y012264D02*
X010020Y012264D01*
X009939Y012423D02*
X013561Y012423D01*
X013719Y012581D02*
X009781Y012581D01*
X009261Y011630D02*
X008739Y011630D01*
X008691Y011587D02*
X008510Y011587D01*
X008510Y011137D01*
X008490Y011137D01*
X008490Y011587D01*
X008309Y011587D01*
X008040Y011317D01*
X008040Y011137D01*
X008490Y011137D01*
X008490Y011117D01*
X008040Y011117D01*
X008040Y010936D01*
X008309Y010667D01*
X008490Y010667D01*
X008490Y011117D01*
X008510Y011117D01*
X008510Y011137D01*
X008960Y011137D01*
X008960Y011317D01*
X008691Y011587D01*
X008806Y011472D02*
X009194Y011472D01*
X009079Y011313D02*
X008960Y011313D01*
X008960Y011155D02*
X009040Y011155D01*
X008960Y011117D02*
X008510Y011117D01*
X008510Y010667D01*
X008691Y010667D01*
X008960Y010936D01*
X008960Y011117D01*
X008960Y010996D02*
X009059Y010996D01*
X009141Y010838D02*
X008862Y010838D01*
X008703Y010679D02*
X009389Y010679D01*
X009490Y010679D02*
X009510Y010679D01*
X009611Y010679D02*
X013797Y010679D01*
X013990Y010679D02*
X014010Y010679D01*
X014010Y010667D02*
X014191Y010667D01*
X014460Y010936D01*
X014460Y011117D01*
X014010Y011117D01*
X014010Y011137D01*
X013990Y011137D01*
X013990Y011117D01*
X014010Y011117D01*
X014010Y010667D01*
X014010Y010838D02*
X013990Y010838D01*
X013990Y010996D02*
X014010Y010996D01*
X014010Y011137D02*
X014460Y011137D01*
X014460Y011317D01*
X014191Y011587D01*
X014010Y011587D01*
X014010Y011137D01*
X014010Y011155D02*
X013990Y011155D01*
X013990Y011313D02*
X014010Y011313D01*
X014010Y011472D02*
X013990Y011472D01*
X014239Y011630D02*
X014761Y011630D01*
X014809Y011587D02*
X014540Y011317D01*
X014540Y011137D01*
X014990Y011137D01*
X014990Y011587D01*
X014809Y011587D01*
X014694Y011472D02*
X014306Y011472D01*
X014460Y011313D02*
X014540Y011313D01*
X014540Y011155D02*
X014460Y011155D01*
X014540Y011117D02*
X014540Y010936D01*
X014809Y010667D01*
X014990Y010667D01*
X014990Y011117D01*
X014540Y011117D01*
X014540Y010996D02*
X014460Y010996D01*
X014362Y010838D02*
X014638Y010838D01*
X014797Y010679D02*
X014203Y010679D01*
X014990Y010679D02*
X015010Y010679D01*
X015010Y010667D02*
X015191Y010667D01*
X015460Y010936D01*
X015460Y011117D01*
X015010Y011117D01*
X015010Y011137D01*
X014990Y011137D01*
X014990Y011117D01*
X015010Y011117D01*
X015010Y010667D01*
X015010Y010838D02*
X014990Y010838D01*
X014990Y010996D02*
X015010Y010996D01*
X015010Y011137D02*
X015460Y011137D01*
X015460Y011317D01*
X015191Y011587D01*
X015010Y011587D01*
X015010Y011137D01*
X015010Y011155D02*
X014990Y011155D01*
X014990Y011313D02*
X015010Y011313D01*
X015010Y011472D02*
X014990Y011472D01*
X015239Y011630D02*
X015761Y011630D01*
X015809Y011587D02*
X015540Y011317D01*
X015540Y011137D01*
X015990Y011137D01*
X015990Y011587D01*
X015809Y011587D01*
X015694Y011472D02*
X015306Y011472D01*
X015460Y011313D02*
X015540Y011313D01*
X015540Y011155D02*
X015460Y011155D01*
X015540Y011117D02*
X015540Y010936D01*
X015809Y010667D01*
X015990Y010667D01*
X015990Y011117D01*
X015540Y011117D01*
X015540Y010996D02*
X015460Y010996D01*
X015362Y010838D02*
X015638Y010838D01*
X015797Y010679D02*
X015203Y010679D01*
X015990Y010679D02*
X016010Y010679D01*
X016010Y010667D02*
X016191Y010667D01*
X016460Y010936D01*
X016460Y011117D01*
X016010Y011117D01*
X016010Y011137D01*
X015990Y011137D01*
X015990Y011117D01*
X016010Y011117D01*
X016010Y010667D01*
X016010Y010838D02*
X015990Y010838D01*
X015990Y010996D02*
X016010Y010996D01*
X016010Y011137D02*
X016460Y011137D01*
X016460Y011317D01*
X016191Y011587D01*
X016010Y011587D01*
X016010Y011137D01*
X016010Y011155D02*
X015990Y011155D01*
X015990Y011313D02*
X016010Y011313D01*
X016010Y011472D02*
X015990Y011472D01*
X016239Y011630D02*
X016761Y011630D01*
X016809Y011587D02*
X016540Y011317D01*
X016540Y011137D01*
X016990Y011137D01*
X016990Y011587D01*
X016809Y011587D01*
X016694Y011472D02*
X016306Y011472D01*
X016460Y011313D02*
X016540Y011313D01*
X016540Y011155D02*
X016460Y011155D01*
X016540Y011117D02*
X016540Y010936D01*
X016809Y010667D01*
X016990Y010667D01*
X016990Y011117D01*
X016540Y011117D01*
X016540Y010996D02*
X016460Y010996D01*
X016362Y010838D02*
X016638Y010838D01*
X016797Y010679D02*
X016203Y010679D01*
X016990Y010679D02*
X017010Y010679D01*
X017010Y010667D02*
X017191Y010667D01*
X017460Y010936D01*
X017460Y011117D01*
X017010Y011117D01*
X017010Y011137D01*
X016990Y011137D01*
X016990Y011117D01*
X017010Y011117D01*
X017010Y010667D01*
X017010Y010838D02*
X016990Y010838D01*
X016990Y010996D02*
X017010Y010996D01*
X017010Y011137D02*
X017460Y011137D01*
X017460Y011317D01*
X017191Y011587D01*
X017010Y011587D01*
X017010Y011137D01*
X017010Y011155D02*
X016990Y011155D01*
X016990Y011313D02*
X017010Y011313D01*
X017010Y011472D02*
X016990Y011472D01*
X017239Y011630D02*
X017761Y011630D01*
X017809Y011587D02*
X017540Y011317D01*
X017540Y011137D01*
X017990Y011137D01*
X017990Y011587D01*
X017809Y011587D01*
X017694Y011472D02*
X017306Y011472D01*
X017460Y011313D02*
X017540Y011313D01*
X017540Y011155D02*
X017460Y011155D01*
X017540Y011117D02*
X017540Y010936D01*
X017809Y010667D01*
X017990Y010667D01*
X017990Y011117D01*
X017540Y011117D01*
X017540Y010996D02*
X017460Y010996D01*
X017362Y010838D02*
X017638Y010838D01*
X017797Y010679D02*
X017203Y010679D01*
X017990Y010679D02*
X018010Y010679D01*
X018010Y010667D02*
X018191Y010667D01*
X018460Y010936D01*
X018460Y011117D01*
X018010Y011117D01*
X018010Y011137D01*
X017990Y011137D01*
X017990Y011117D01*
X018010Y011117D01*
X018010Y010667D01*
X018010Y010838D02*
X017990Y010838D01*
X017990Y010996D02*
X018010Y010996D01*
X018010Y011137D02*
X018460Y011137D01*
X018460Y011317D01*
X018191Y011587D01*
X018010Y011587D01*
X018010Y011137D01*
X018010Y011155D02*
X017990Y011155D01*
X017990Y011313D02*
X018010Y011313D01*
X018010Y011472D02*
X017990Y011472D01*
X018239Y011630D02*
X018761Y011630D01*
X018823Y011553D02*
X018759Y011520D01*
X018700Y011478D01*
X018649Y011426D01*
X018607Y011368D01*
X018574Y011303D01*
X018551Y011234D01*
X018540Y011163D01*
X018540Y011137D01*
X018990Y011137D01*
X018990Y011587D01*
X018964Y011587D01*
X018892Y011575D01*
X018823Y011553D01*
X018694Y011472D02*
X018306Y011472D01*
X018460Y011313D02*
X018579Y011313D01*
X018540Y011155D02*
X018460Y011155D01*
X018540Y011117D02*
X018540Y011090D01*
X018551Y011019D01*
X018574Y010950D01*
X018607Y010886D01*
X018649Y010827D01*
X018700Y010776D01*
X018759Y010733D01*
X018823Y010700D01*
X018892Y010678D01*
X018964Y010667D01*
X018990Y010667D01*
X018990Y011117D01*
X018540Y011117D01*
X018559Y010996D02*
X018460Y010996D01*
X018362Y010838D02*
X018641Y010838D01*
X018889Y010679D02*
X018203Y010679D01*
X018990Y010679D02*
X019010Y010679D01*
X019010Y010667D02*
X019036Y010667D01*
X019108Y010678D01*
X019177Y010700D01*
X019241Y010733D01*
X019300Y010776D01*
X019351Y010827D01*
X019393Y010886D01*
X019426Y010950D01*
X019449Y011019D01*
X019460Y011090D01*
X019460Y011117D01*
X019010Y011117D01*
X019010Y011137D01*
X018990Y011137D01*
X018990Y011117D01*
X019010Y011117D01*
X019010Y010667D01*
X019111Y010679D02*
X025047Y010679D01*
X025059Y010667D02*
X025240Y010667D01*
X025240Y011117D01*
X024790Y011117D01*
X024790Y010936D01*
X025059Y010667D01*
X025240Y010679D02*
X025260Y010679D01*
X025260Y010667D02*
X025441Y010667D01*
X025710Y010936D01*
X025710Y011117D01*
X025260Y011117D01*
X025260Y011137D01*
X025240Y011137D01*
X025240Y011587D01*
X025059Y011587D01*
X024790Y011317D01*
X024790Y011137D01*
X025240Y011137D01*
X025240Y011117D01*
X025260Y011117D01*
X025260Y010667D01*
X025260Y010838D02*
X025240Y010838D01*
X025240Y010996D02*
X025260Y010996D01*
X025260Y011137D02*
X025710Y011137D01*
X025710Y011317D01*
X025441Y011587D01*
X025260Y011587D01*
X025260Y011137D01*
X025260Y011155D02*
X025240Y011155D01*
X025240Y011313D02*
X025260Y011313D01*
X025260Y011472D02*
X025240Y011472D01*
X025011Y011630D02*
X019239Y011630D01*
X019177Y011553D02*
X019108Y011575D01*
X019036Y011587D01*
X019010Y011587D01*
X019010Y011137D01*
X019460Y011137D01*
X019460Y011163D01*
X019449Y011234D01*
X019426Y011303D01*
X019393Y011368D01*
X019351Y011426D01*
X019300Y011478D01*
X019241Y011520D01*
X019177Y011553D01*
X019306Y011472D02*
X024944Y011472D01*
X024790Y011313D02*
X019421Y011313D01*
X019460Y011155D02*
X024790Y011155D01*
X024790Y010996D02*
X019441Y010996D01*
X019359Y010838D02*
X024888Y010838D01*
X025453Y010679D02*
X026047Y010679D01*
X026059Y010667D02*
X026240Y010667D01*
X026240Y011117D01*
X025790Y011117D01*
X025790Y010936D01*
X026059Y010667D01*
X026240Y010679D02*
X026260Y010679D01*
X026260Y010667D02*
X026441Y010667D01*
X026710Y010936D01*
X026710Y011117D01*
X026260Y011117D01*
X026260Y011137D01*
X026240Y011137D01*
X026240Y011587D01*
X026059Y011587D01*
X025790Y011317D01*
X025790Y011137D01*
X026240Y011137D01*
X026240Y011117D01*
X026260Y011117D01*
X026260Y010667D01*
X026260Y010838D02*
X026240Y010838D01*
X026240Y010996D02*
X026260Y010996D01*
X026260Y011137D02*
X026710Y011137D01*
X026710Y011317D01*
X026441Y011587D01*
X026260Y011587D01*
X026260Y011137D01*
X026260Y011155D02*
X026240Y011155D01*
X026240Y011313D02*
X026260Y011313D01*
X026260Y011472D02*
X026240Y011472D01*
X026011Y011630D02*
X025489Y011630D01*
X025556Y011472D02*
X025944Y011472D01*
X025790Y011313D02*
X025710Y011313D01*
X025710Y011155D02*
X025790Y011155D01*
X025790Y010996D02*
X025710Y010996D01*
X025612Y010838D02*
X025888Y010838D01*
X026453Y010679D02*
X027047Y010679D01*
X027059Y010667D02*
X027240Y010667D01*
X027240Y011117D01*
X026790Y011117D01*
X026790Y010936D01*
X027059Y010667D01*
X027240Y010679D02*
X027260Y010679D01*
X027260Y010667D02*
X027441Y010667D01*
X027710Y010936D01*
X027710Y011117D01*
X027260Y011117D01*
X027260Y011137D01*
X027240Y011137D01*
X027240Y011587D01*
X027059Y011587D01*
X026790Y011317D01*
X026790Y011137D01*
X027240Y011137D01*
X027240Y011117D01*
X027260Y011117D01*
X027260Y010667D01*
X027260Y010838D02*
X027240Y010838D01*
X027240Y010996D02*
X027260Y010996D01*
X027260Y011137D02*
X027710Y011137D01*
X027710Y011317D01*
X027441Y011587D01*
X027260Y011587D01*
X027260Y011137D01*
X027260Y011155D02*
X027240Y011155D01*
X027240Y011313D02*
X027260Y011313D01*
X027260Y011472D02*
X027240Y011472D01*
X027011Y011630D02*
X026489Y011630D01*
X026556Y011472D02*
X026944Y011472D01*
X026790Y011313D02*
X026710Y011313D01*
X026710Y011155D02*
X026790Y011155D01*
X026790Y010996D02*
X026710Y010996D01*
X026612Y010838D02*
X026888Y010838D01*
X027453Y010679D02*
X028047Y010679D01*
X028059Y010667D02*
X028240Y010667D01*
X028240Y011117D01*
X027790Y011117D01*
X027790Y010936D01*
X028059Y010667D01*
X028240Y010679D02*
X028260Y010679D01*
X028260Y010667D02*
X028441Y010667D01*
X028710Y010936D01*
X028710Y011117D01*
X028260Y011117D01*
X028260Y011137D01*
X028240Y011137D01*
X028240Y011587D01*
X028059Y011587D01*
X027790Y011317D01*
X027790Y011137D01*
X028240Y011137D01*
X028240Y011117D01*
X028260Y011117D01*
X028260Y010667D01*
X028260Y010838D02*
X028240Y010838D01*
X028240Y010996D02*
X028260Y010996D01*
X028260Y011137D02*
X028710Y011137D01*
X028710Y011317D01*
X028441Y011587D01*
X028260Y011587D01*
X028260Y011137D01*
X028260Y011155D02*
X028240Y011155D01*
X028240Y011313D02*
X028260Y011313D01*
X028260Y011472D02*
X028240Y011472D01*
X028011Y011630D02*
X027489Y011630D01*
X027556Y011472D02*
X027944Y011472D01*
X027790Y011313D02*
X027710Y011313D01*
X027710Y011155D02*
X027790Y011155D01*
X027790Y010996D02*
X027710Y010996D01*
X027612Y010838D02*
X027888Y010838D01*
X028453Y010679D02*
X029047Y010679D01*
X029059Y010667D02*
X029240Y010667D01*
X029240Y011117D01*
X028790Y011117D01*
X028790Y010936D01*
X029059Y010667D01*
X029240Y010679D02*
X029260Y010679D01*
X029260Y010667D02*
X029441Y010667D01*
X029710Y010936D01*
X029710Y011117D01*
X029260Y011117D01*
X029260Y011137D01*
X029240Y011137D01*
X029240Y011587D01*
X029059Y011587D01*
X028790Y011317D01*
X028790Y011137D01*
X029240Y011137D01*
X029240Y011117D01*
X029260Y011117D01*
X029260Y010667D01*
X029260Y010838D02*
X029240Y010838D01*
X029240Y010996D02*
X029260Y010996D01*
X029260Y011137D02*
X029710Y011137D01*
X029710Y011317D01*
X029441Y011587D01*
X029260Y011587D01*
X029260Y011137D01*
X029260Y011155D02*
X029240Y011155D01*
X029240Y011313D02*
X029260Y011313D01*
X029260Y011472D02*
X029240Y011472D01*
X029011Y011630D02*
X028489Y011630D01*
X028556Y011472D02*
X028944Y011472D01*
X028790Y011313D02*
X028710Y011313D01*
X028710Y011155D02*
X028790Y011155D01*
X028790Y010996D02*
X028710Y010996D01*
X028612Y010838D02*
X028888Y010838D01*
X029453Y010679D02*
X030139Y010679D01*
X030142Y010678D02*
X030214Y010667D01*
X030240Y010667D01*
X030240Y011117D01*
X029790Y011117D01*
X029790Y011090D01*
X029801Y011019D01*
X029824Y010950D01*
X029857Y010886D01*
X029899Y010827D01*
X029950Y010776D01*
X030009Y010733D01*
X030073Y010700D01*
X030142Y010678D01*
X030240Y010679D02*
X030260Y010679D01*
X030260Y010667D02*
X030286Y010667D01*
X030358Y010678D01*
X030427Y010700D01*
X030491Y010733D01*
X030550Y010776D01*
X030601Y010827D01*
X030643Y010886D01*
X030676Y010950D01*
X030699Y011019D01*
X030710Y011090D01*
X030710Y011117D01*
X030260Y011117D01*
X030260Y011137D01*
X030240Y011137D01*
X030240Y011587D01*
X030214Y011587D01*
X030142Y011575D01*
X030073Y011553D01*
X030009Y011520D01*
X029950Y011478D01*
X029899Y011426D01*
X029857Y011368D01*
X029824Y011303D01*
X029801Y011234D01*
X029790Y011163D01*
X029790Y011137D01*
X030240Y011137D01*
X030240Y011117D01*
X030260Y011117D01*
X030260Y010667D01*
X030361Y010679D02*
X034547Y010679D01*
X034559Y010667D02*
X034740Y010667D01*
X034740Y011117D01*
X034290Y011117D01*
X034290Y010936D01*
X034559Y010667D01*
X034740Y010679D02*
X034760Y010679D01*
X034760Y010667D02*
X034941Y010667D01*
X035210Y010936D01*
X035210Y011117D01*
X034760Y011117D01*
X034760Y011137D01*
X034740Y011137D01*
X034740Y011587D01*
X034559Y011587D01*
X034290Y011317D01*
X034290Y011137D01*
X034740Y011137D01*
X034740Y011117D01*
X034760Y011117D01*
X034760Y010667D01*
X034760Y010838D02*
X034740Y010838D01*
X034740Y010996D02*
X034760Y010996D01*
X034760Y011137D02*
X035210Y011137D01*
X035210Y011317D01*
X034941Y011587D01*
X034760Y011587D01*
X034760Y011137D01*
X034760Y011155D02*
X034740Y011155D01*
X034740Y011313D02*
X034760Y011313D01*
X034760Y011472D02*
X034740Y011472D01*
X034511Y011630D02*
X030489Y011630D01*
X030427Y011553D02*
X030358Y011575D01*
X030286Y011587D01*
X030260Y011587D01*
X030260Y011137D01*
X030710Y011137D01*
X030710Y011163D01*
X030699Y011234D01*
X030676Y011303D01*
X030643Y011368D01*
X030601Y011426D01*
X030550Y011478D01*
X030491Y011520D01*
X030427Y011553D01*
X030556Y011472D02*
X034444Y011472D01*
X034290Y011313D02*
X030671Y011313D01*
X030710Y011155D02*
X034290Y011155D01*
X034290Y010996D02*
X030691Y010996D01*
X030609Y010838D02*
X034388Y010838D01*
X034953Y010679D02*
X035547Y010679D01*
X035559Y010667D02*
X035740Y010667D01*
X035740Y011117D01*
X035290Y011117D01*
X035290Y010936D01*
X035559Y010667D01*
X035740Y010679D02*
X035760Y010679D01*
X035760Y010667D02*
X035941Y010667D01*
X036210Y010936D01*
X036210Y011117D01*
X035760Y011117D01*
X035760Y011137D01*
X035740Y011137D01*
X035740Y011587D01*
X035559Y011587D01*
X035290Y011317D01*
X035290Y011137D01*
X035740Y011137D01*
X035740Y011117D01*
X035760Y011117D01*
X035760Y010667D01*
X035760Y010838D02*
X035740Y010838D01*
X035740Y010996D02*
X035760Y010996D01*
X035760Y011137D02*
X036210Y011137D01*
X036210Y011317D01*
X035941Y011587D01*
X035760Y011587D01*
X035760Y011137D01*
X035760Y011155D02*
X035740Y011155D01*
X035740Y011313D02*
X035760Y011313D01*
X035760Y011472D02*
X035740Y011472D01*
X035511Y011630D02*
X034989Y011630D01*
X035056Y011472D02*
X035444Y011472D01*
X035290Y011313D02*
X035210Y011313D01*
X035210Y011155D02*
X035290Y011155D01*
X035290Y010996D02*
X035210Y010996D01*
X035112Y010838D02*
X035388Y010838D01*
X035953Y010679D02*
X036547Y010679D01*
X036559Y010667D02*
X036740Y010667D01*
X036740Y011117D01*
X036290Y011117D01*
X036290Y010936D01*
X036559Y010667D01*
X036740Y010679D02*
X036760Y010679D01*
X036760Y010667D02*
X036941Y010667D01*
X037210Y010936D01*
X037210Y011117D01*
X036760Y011117D01*
X036760Y011137D01*
X036740Y011137D01*
X036740Y011587D01*
X036559Y011587D01*
X036290Y011317D01*
X036290Y011137D01*
X036740Y011137D01*
X036740Y011117D01*
X036760Y011117D01*
X036760Y010667D01*
X036760Y010838D02*
X036740Y010838D01*
X036740Y010996D02*
X036760Y010996D01*
X036760Y011137D02*
X037210Y011137D01*
X037210Y011317D01*
X036941Y011587D01*
X036760Y011587D01*
X036760Y011137D01*
X036760Y011155D02*
X036740Y011155D01*
X036740Y011313D02*
X036760Y011313D01*
X036760Y011472D02*
X036740Y011472D01*
X036511Y011630D02*
X035989Y011630D01*
X036056Y011472D02*
X036444Y011472D01*
X036290Y011313D02*
X036210Y011313D01*
X036210Y011155D02*
X036290Y011155D01*
X036290Y010996D02*
X036210Y010996D01*
X036112Y010838D02*
X036388Y010838D01*
X036953Y010679D02*
X037547Y010679D01*
X037559Y010667D02*
X037740Y010667D01*
X037740Y011117D01*
X037290Y011117D01*
X037290Y010936D01*
X037559Y010667D01*
X037740Y010679D02*
X037760Y010679D01*
X037760Y010667D02*
X037941Y010667D01*
X038210Y010936D01*
X038210Y011117D01*
X037760Y011117D01*
X037760Y011137D01*
X037740Y011137D01*
X037740Y011587D01*
X037559Y011587D01*
X037290Y011317D01*
X037290Y011137D01*
X037740Y011137D01*
X037740Y011117D01*
X037760Y011117D01*
X037760Y010667D01*
X037760Y010838D02*
X037740Y010838D01*
X037740Y010996D02*
X037760Y010996D01*
X037760Y011137D02*
X038210Y011137D01*
X038210Y011317D01*
X037941Y011587D01*
X037760Y011587D01*
X037760Y011137D01*
X037760Y011155D02*
X037740Y011155D01*
X037740Y011313D02*
X037760Y011313D01*
X037760Y011472D02*
X037740Y011472D01*
X037511Y011630D02*
X036989Y011630D01*
X037056Y011472D02*
X037444Y011472D01*
X037290Y011313D02*
X037210Y011313D01*
X037210Y011155D02*
X037290Y011155D01*
X037290Y010996D02*
X037210Y010996D01*
X037112Y010838D02*
X037388Y010838D01*
X037953Y010679D02*
X038547Y010679D01*
X038559Y010667D02*
X038740Y010667D01*
X038740Y011117D01*
X038290Y011117D01*
X038290Y010936D01*
X038559Y010667D01*
X038740Y010679D02*
X038760Y010679D01*
X038760Y010667D02*
X038941Y010667D01*
X039210Y010936D01*
X039210Y011117D01*
X038760Y011117D01*
X038760Y011137D01*
X038740Y011137D01*
X038740Y011587D01*
X038559Y011587D01*
X038290Y011317D01*
X038290Y011137D01*
X038740Y011137D01*
X038740Y011117D01*
X038760Y011117D01*
X038760Y010667D01*
X038760Y010838D02*
X038740Y010838D01*
X038740Y010996D02*
X038760Y010996D01*
X038760Y011137D02*
X039210Y011137D01*
X039210Y011317D01*
X038941Y011587D01*
X038760Y011587D01*
X038760Y011137D01*
X038760Y011155D02*
X038740Y011155D01*
X038740Y011313D02*
X038760Y011313D01*
X038760Y011472D02*
X038740Y011472D01*
X038511Y011630D02*
X037989Y011630D01*
X038056Y011472D02*
X038444Y011472D01*
X038290Y011313D02*
X038210Y011313D01*
X038210Y011155D02*
X038290Y011155D01*
X038290Y010996D02*
X038210Y010996D01*
X038112Y010838D02*
X038388Y010838D01*
X038953Y010679D02*
X039639Y010679D01*
X039642Y010678D02*
X039714Y010667D01*
X039740Y010667D01*
X039740Y011117D01*
X039290Y011117D01*
X039290Y011090D01*
X039301Y011019D01*
X039324Y010950D01*
X039357Y010886D01*
X039399Y010827D01*
X039450Y010776D01*
X039509Y010733D01*
X039573Y010700D01*
X039642Y010678D01*
X039740Y010679D02*
X039760Y010679D01*
X039760Y010667D02*
X039786Y010667D01*
X039858Y010678D01*
X039927Y010700D01*
X039991Y010733D01*
X040050Y010776D01*
X040101Y010827D01*
X040143Y010886D01*
X040176Y010950D01*
X040199Y011019D01*
X040210Y011090D01*
X040210Y011117D01*
X039760Y011117D01*
X039760Y011137D01*
X039740Y011137D01*
X039740Y011587D01*
X039714Y011587D01*
X039642Y011575D01*
X039573Y011553D01*
X039509Y011520D01*
X039450Y011478D01*
X039399Y011426D01*
X039357Y011368D01*
X039324Y011303D01*
X039301Y011234D01*
X039290Y011163D01*
X039290Y011137D01*
X039740Y011137D01*
X039740Y011117D01*
X039760Y011117D01*
X039760Y010667D01*
X039861Y010679D02*
X041103Y010679D01*
X041103Y010521D02*
X002928Y010521D01*
X002928Y010679D02*
X004297Y010679D01*
X004309Y010667D02*
X004490Y010667D01*
X004490Y011117D01*
X004040Y011117D01*
X004040Y010936D01*
X004309Y010667D01*
X004490Y010679D02*
X004510Y010679D01*
X004510Y010667D02*
X004691Y010667D01*
X004960Y010936D01*
X004960Y011117D01*
X004510Y011117D01*
X004510Y011137D01*
X004490Y011137D01*
X004490Y011587D01*
X004309Y011587D01*
X004040Y011317D01*
X004040Y011137D01*
X004490Y011137D01*
X004490Y011117D01*
X004510Y011117D01*
X004510Y010667D01*
X004510Y010838D02*
X004490Y010838D01*
X004490Y010996D02*
X004510Y010996D01*
X004510Y011137D02*
X004960Y011137D01*
X004960Y011317D01*
X004691Y011587D01*
X004510Y011587D01*
X004510Y011137D01*
X004510Y011155D02*
X004490Y011155D01*
X004490Y011313D02*
X004510Y011313D01*
X004510Y011472D02*
X004490Y011472D01*
X004261Y011630D02*
X002928Y011630D01*
X002928Y011472D02*
X004194Y011472D01*
X004040Y011313D02*
X002928Y011313D01*
X002928Y011155D02*
X004040Y011155D01*
X004040Y010996D02*
X002928Y010996D01*
X002928Y010838D02*
X004138Y010838D01*
X004703Y010679D02*
X005297Y010679D01*
X005309Y010667D02*
X005490Y010667D01*
X005490Y011117D01*
X005040Y011117D01*
X005040Y010936D01*
X005309Y010667D01*
X005490Y010679D02*
X005510Y010679D01*
X005510Y010667D02*
X005691Y010667D01*
X005960Y010936D01*
X005960Y011117D01*
X005510Y011117D01*
X005510Y011137D01*
X005490Y011137D01*
X005490Y011587D01*
X005309Y011587D01*
X005040Y011317D01*
X005040Y011137D01*
X005490Y011137D01*
X005490Y011117D01*
X005510Y011117D01*
X005510Y010667D01*
X005510Y010838D02*
X005490Y010838D01*
X005490Y010996D02*
X005510Y010996D01*
X005510Y011137D02*
X005960Y011137D01*
X005960Y011317D01*
X005691Y011587D01*
X005510Y011587D01*
X005510Y011137D01*
X005510Y011155D02*
X005490Y011155D01*
X005490Y011313D02*
X005510Y011313D01*
X005510Y011472D02*
X005490Y011472D01*
X005261Y011630D02*
X004739Y011630D01*
X004806Y011472D02*
X005194Y011472D01*
X005040Y011313D02*
X004960Y011313D01*
X004960Y011155D02*
X005040Y011155D01*
X005040Y010996D02*
X004960Y010996D01*
X004862Y010838D02*
X005138Y010838D01*
X005703Y010679D02*
X006297Y010679D01*
X006309Y010667D02*
X006490Y010667D01*
X006490Y011117D01*
X006040Y011117D01*
X006040Y010936D01*
X006309Y010667D01*
X006490Y010679D02*
X006510Y010679D01*
X006510Y010667D02*
X006691Y010667D01*
X006960Y010936D01*
X006960Y011117D01*
X006510Y011117D01*
X006510Y011137D01*
X006490Y011137D01*
X006490Y011587D01*
X006309Y011587D01*
X006040Y011317D01*
X006040Y011137D01*
X006490Y011137D01*
X006490Y011117D01*
X006510Y011117D01*
X006510Y010667D01*
X006510Y010838D02*
X006490Y010838D01*
X006490Y010996D02*
X006510Y010996D01*
X006510Y011137D02*
X006960Y011137D01*
X006960Y011317D01*
X006691Y011587D01*
X006510Y011587D01*
X006510Y011137D01*
X006510Y011155D02*
X006490Y011155D01*
X006490Y011313D02*
X006510Y011313D01*
X006510Y011472D02*
X006490Y011472D01*
X006261Y011630D02*
X005739Y011630D01*
X005806Y011472D02*
X006194Y011472D01*
X006040Y011313D02*
X005960Y011313D01*
X005960Y011155D02*
X006040Y011155D01*
X006040Y010996D02*
X005960Y010996D01*
X005862Y010838D02*
X006138Y010838D01*
X006703Y010679D02*
X007297Y010679D01*
X007309Y010667D02*
X007490Y010667D01*
X007490Y011117D01*
X007040Y011117D01*
X007040Y010936D01*
X007309Y010667D01*
X007490Y010679D02*
X007510Y010679D01*
X007510Y010667D02*
X007691Y010667D01*
X007960Y010936D01*
X007960Y011117D01*
X007510Y011117D01*
X007510Y011137D01*
X007490Y011137D01*
X007490Y011587D01*
X007309Y011587D01*
X007040Y011317D01*
X007040Y011137D01*
X007490Y011137D01*
X007490Y011117D01*
X007510Y011117D01*
X007510Y010667D01*
X007510Y010838D02*
X007490Y010838D01*
X007490Y010996D02*
X007510Y010996D01*
X007510Y011137D02*
X007960Y011137D01*
X007960Y011317D01*
X007691Y011587D01*
X007510Y011587D01*
X007510Y011137D01*
X007510Y011155D02*
X007490Y011155D01*
X007490Y011313D02*
X007510Y011313D01*
X007510Y011472D02*
X007490Y011472D01*
X007261Y011630D02*
X006739Y011630D01*
X006806Y011472D02*
X007194Y011472D01*
X007040Y011313D02*
X006960Y011313D01*
X006960Y011155D02*
X007040Y011155D01*
X007040Y010996D02*
X006960Y010996D01*
X006862Y010838D02*
X007138Y010838D01*
X007703Y010679D02*
X008297Y010679D01*
X008490Y010679D02*
X008510Y010679D01*
X008510Y010838D02*
X008490Y010838D01*
X008490Y010996D02*
X008510Y010996D01*
X008510Y011155D02*
X008490Y011155D01*
X008490Y011313D02*
X008510Y011313D01*
X008510Y011472D02*
X008490Y011472D01*
X008261Y011630D02*
X007739Y011630D01*
X007806Y011472D02*
X008194Y011472D01*
X008040Y011313D02*
X007960Y011313D01*
X007960Y011155D02*
X008040Y011155D01*
X008040Y010996D02*
X007960Y010996D01*
X007862Y010838D02*
X008138Y010838D01*
X009490Y010838D02*
X009510Y010838D01*
X009510Y010996D02*
X009490Y010996D01*
X009490Y011155D02*
X009510Y011155D01*
X009510Y011313D02*
X009490Y011313D01*
X009490Y011472D02*
X009510Y011472D01*
X008775Y009411D02*
X002928Y009411D01*
X002928Y009253D02*
X008775Y009253D01*
X008730Y009094D02*
X007688Y009094D01*
X007250Y008627D02*
X008250Y008627D01*
X008340Y008936D02*
X008715Y008936D01*
X008715Y008777D02*
X008552Y008777D01*
X008711Y008619D02*
X008715Y008619D01*
X006812Y009094D02*
X004688Y009094D01*
X004609Y009127D02*
X003891Y009127D01*
X003707Y009051D01*
X003566Y008910D01*
X003490Y008726D01*
X003490Y008527D01*
X003566Y008343D01*
X003707Y008203D01*
X003850Y008143D01*
X002928Y008143D01*
X002928Y007985D02*
X003641Y007985D01*
X003707Y008051D02*
X003566Y007910D01*
X003490Y007726D01*
X003490Y007527D01*
X003566Y007343D01*
X003707Y007203D01*
X003850Y007143D01*
X003850Y007110D01*
X003707Y007051D01*
X003566Y006910D01*
X003490Y006726D01*
X003490Y006527D01*
X003566Y006343D01*
X003707Y006203D01*
X003850Y006143D01*
X003850Y006110D01*
X003707Y006051D01*
X003566Y005910D01*
X003490Y005726D01*
X003490Y005527D01*
X003566Y005343D01*
X003707Y005203D01*
X003850Y005143D01*
X003850Y004047D01*
X003911Y003900D01*
X005411Y002400D01*
X005523Y002288D01*
X005670Y002227D01*
X006375Y002227D01*
X006339Y002178D01*
X006305Y002111D01*
X006282Y002039D01*
X006270Y001964D01*
X006270Y001647D01*
X006730Y001647D01*
X006730Y001607D01*
X006270Y001607D01*
X006270Y001289D01*
X006282Y001214D01*
X006305Y001142D01*
X006339Y001075D01*
X006384Y001014D01*
X006437Y000961D01*
X006475Y000933D01*
X002928Y000933D01*
X002928Y039108D01*
X002928Y038892D02*
X003362Y038892D01*
X003375Y038906D02*
X003131Y038661D01*
X002998Y038341D01*
X002998Y037995D01*
X003131Y037675D01*
X003375Y037431D01*
X003695Y037298D01*
X004041Y037298D01*
X004361Y037431D01*
X004606Y037675D01*
X004738Y037995D01*
X004738Y038341D01*
X004606Y038661D01*
X004361Y038906D01*
X004041Y039038D01*
X003695Y039038D01*
X003375Y038906D01*
X003203Y038734D02*
X002928Y038734D01*
X002928Y038575D02*
X003095Y038575D01*
X003030Y038417D02*
X002928Y038417D01*
X002928Y038258D02*
X002998Y038258D01*
X002998Y038100D02*
X002928Y038100D01*
X002928Y037941D02*
X003020Y037941D01*
X003086Y037783D02*
X002928Y037783D01*
X002928Y037624D02*
X003182Y037624D01*
X003340Y037466D02*
X002928Y037466D01*
X002928Y037307D02*
X003673Y037307D01*
X004063Y037307D02*
X006056Y037307D01*
X005960Y037466D02*
X004396Y037466D01*
X004555Y037624D02*
X005960Y037624D01*
X005960Y037783D02*
X004650Y037783D01*
X004716Y037941D02*
X006051Y037941D01*
X006209Y038100D02*
X004738Y038100D01*
X004738Y038258D02*
X039292Y038258D01*
X039324Y038417D02*
X004707Y038417D01*
X004641Y038575D02*
X039389Y038575D01*
X039498Y038734D02*
X004533Y038734D01*
X004374Y038892D02*
X039656Y038892D01*
X039635Y037466D02*
X037980Y037466D01*
X037859Y037307D02*
X039967Y037307D01*
X036209Y038100D02*
X035791Y038100D01*
X035949Y037941D02*
X036051Y037941D01*
X035209Y038100D02*
X034791Y038100D01*
X034949Y037941D02*
X035051Y037941D01*
X034209Y038100D02*
X033791Y038100D01*
X033949Y037941D02*
X034051Y037941D01*
X033209Y038100D02*
X032791Y038100D01*
X032949Y037941D02*
X033051Y037941D01*
X032209Y038100D02*
X031791Y038100D01*
X031949Y037941D02*
X032051Y037941D01*
X031209Y038100D02*
X030791Y038100D01*
X030949Y037941D02*
X031051Y037941D01*
X030209Y038100D02*
X029791Y038100D01*
X029949Y037941D02*
X030051Y037941D01*
X029209Y038100D02*
X028791Y038100D01*
X028949Y037941D02*
X029051Y037941D01*
X028209Y038100D02*
X027791Y038100D01*
X027949Y037941D02*
X028051Y037941D01*
X027209Y038100D02*
X026791Y038100D01*
X026949Y037941D02*
X027051Y037941D01*
X026209Y038100D02*
X025791Y038100D01*
X025949Y037941D02*
X026051Y037941D01*
X025209Y038100D02*
X024791Y038100D01*
X024949Y037941D02*
X025051Y037941D01*
X024209Y038100D02*
X023791Y038100D01*
X023949Y037941D02*
X024051Y037941D01*
X023209Y038100D02*
X022791Y038100D01*
X022949Y037941D02*
X023051Y037941D01*
X022209Y038100D02*
X021791Y038100D01*
X021949Y037941D02*
X022051Y037941D01*
X021209Y038100D02*
X020791Y038100D01*
X020949Y037941D02*
X021051Y037941D01*
X020209Y038100D02*
X019791Y038100D01*
X019949Y037941D02*
X020051Y037941D01*
X019209Y038100D02*
X018791Y038100D01*
X018949Y037941D02*
X019051Y037941D01*
X018209Y038100D02*
X017791Y038100D01*
X017949Y037941D02*
X018051Y037941D01*
X017209Y038100D02*
X016791Y038100D01*
X016949Y037941D02*
X017051Y037941D01*
X016209Y038100D02*
X015791Y038100D01*
X015949Y037941D02*
X016051Y037941D01*
X015209Y038100D02*
X014791Y038100D01*
X014949Y037941D02*
X015051Y037941D01*
X014209Y038100D02*
X013791Y038100D01*
X013949Y037941D02*
X014051Y037941D01*
X013209Y038100D02*
X012791Y038100D01*
X012949Y037941D02*
X013051Y037941D01*
X012209Y038100D02*
X011791Y038100D01*
X011949Y037941D02*
X012051Y037941D01*
X011209Y038100D02*
X010791Y038100D01*
X010949Y037941D02*
X011051Y037941D01*
X010209Y038100D02*
X009791Y038100D01*
X009949Y037941D02*
X010051Y037941D01*
X009209Y038100D02*
X008791Y038100D01*
X008949Y037941D02*
X009051Y037941D01*
X008209Y038100D02*
X007791Y038100D01*
X007949Y037941D02*
X008051Y037941D01*
X007209Y038100D02*
X006791Y038100D01*
X006949Y037941D02*
X007051Y037941D01*
X006214Y037149D02*
X002928Y037149D01*
X002928Y036990D02*
X006100Y036990D01*
X005960Y036832D02*
X002928Y036832D01*
X002928Y036673D02*
X005960Y036673D01*
X005936Y036515D02*
X002928Y036515D01*
X002928Y036356D02*
X004159Y036356D01*
X004480Y036356D02*
X004520Y036356D01*
X004520Y036357D02*
X004520Y035897D01*
X005280Y035897D01*
X005280Y035914D01*
X005268Y035989D01*
X005245Y036061D01*
X005211Y036128D01*
X005166Y036189D01*
X005113Y036243D01*
X005052Y036287D01*
X004984Y036321D01*
X004912Y036345D01*
X004838Y036357D01*
X004520Y036357D01*
X004520Y036198D02*
X004480Y036198D01*
X004480Y036039D02*
X004520Y036039D01*
X004520Y035881D02*
X005680Y035881D01*
X005680Y036039D02*
X005252Y036039D01*
X005158Y036198D02*
X005683Y036198D01*
X005777Y036356D02*
X004841Y036356D01*
X004480Y035881D02*
X002928Y035881D01*
X002928Y036039D02*
X003748Y036039D01*
X003842Y036198D02*
X002928Y036198D01*
X002928Y035722D02*
X003745Y035722D01*
X003834Y035564D02*
X002928Y035564D01*
X002928Y035405D02*
X004065Y035405D01*
X003806Y035247D02*
X002928Y035247D01*
X002928Y035088D02*
X003703Y035088D01*
X003660Y034930D02*
X002928Y034930D01*
X002928Y034771D02*
X003660Y034771D01*
X003567Y034613D02*
X002928Y034613D01*
X002928Y034454D02*
X003510Y034454D01*
X003510Y034296D02*
X002928Y034296D01*
X002928Y034137D02*
X003510Y034137D01*
X003510Y033979D02*
X002928Y033979D01*
X002928Y033820D02*
X003510Y033820D01*
X003360Y033662D02*
X002928Y033662D01*
X002928Y033503D02*
X003257Y033503D01*
X003191Y033345D02*
X002928Y033345D01*
X002928Y033186D02*
X003169Y033186D01*
X003169Y033028D02*
X002928Y033028D01*
X002928Y032869D02*
X003208Y032869D01*
X003273Y032711D02*
X002928Y032711D01*
X002928Y032552D02*
X003400Y032552D01*
X003510Y032394D02*
X002928Y032394D01*
X002928Y032235D02*
X003434Y032235D01*
X003287Y032077D02*
X002928Y032077D01*
X002928Y031918D02*
X003222Y031918D01*
X003169Y031760D02*
X002928Y031760D01*
X002928Y031601D02*
X003169Y031601D01*
X003177Y031443D02*
X002928Y031443D01*
X002928Y031284D02*
X003243Y031284D01*
X003326Y031126D02*
X002928Y031126D01*
X002928Y030967D02*
X003485Y030967D01*
X003507Y030809D02*
X002928Y030809D01*
X002928Y030650D02*
X003349Y030650D01*
X003252Y030492D02*
X002928Y030492D01*
X002928Y030333D02*
X003187Y030333D01*
X003169Y030175D02*
X002928Y030175D01*
X002928Y030016D02*
X003169Y030016D01*
X003212Y029858D02*
X002928Y029858D01*
X002928Y029699D02*
X003278Y029699D01*
X003411Y029541D02*
X002928Y029541D01*
X002928Y029382D02*
X003627Y029382D01*
X004210Y029224D02*
X002928Y029224D01*
X002928Y029065D02*
X004260Y029065D01*
X004260Y028907D02*
X002928Y028907D01*
X002928Y028748D02*
X004260Y028748D01*
X004178Y028590D02*
X003737Y028590D01*
X003895Y028431D02*
X004025Y028431D01*
X003500Y028431D02*
X003500Y028431D01*
X003500Y028273D02*
X003500Y028273D01*
X003500Y028127D02*
X003500Y027632D01*
X003500Y028127D01*
X003500Y028127D01*
X003500Y028114D02*
X003500Y028114D01*
X003500Y027956D02*
X003500Y027956D01*
X003500Y027797D02*
X003500Y027797D01*
X003500Y027639D02*
X003500Y027639D01*
X003712Y027639D02*
X004228Y027639D01*
X004260Y027480D02*
X002928Y027480D01*
X002928Y027322D02*
X004260Y027322D01*
X004260Y027163D02*
X002928Y027163D01*
X002928Y027005D02*
X004260Y027005D01*
X004260Y026846D02*
X002928Y026846D01*
X002928Y026688D02*
X004260Y026688D01*
X004260Y026529D02*
X002928Y026529D01*
X002928Y026371D02*
X004260Y026371D01*
X004260Y026212D02*
X002928Y026212D01*
X002928Y026054D02*
X004260Y026054D01*
X004260Y025895D02*
X002928Y025895D01*
X002928Y025737D02*
X004278Y025737D01*
X004355Y025578D02*
X002928Y025578D01*
X002928Y025420D02*
X004514Y025420D01*
X004874Y024877D02*
X005750Y024877D01*
X005465Y024469D02*
X005343Y024469D01*
X005623Y024310D02*
X002928Y024310D01*
X002928Y024152D02*
X005782Y024152D01*
X005940Y023993D02*
X002928Y023993D01*
X002928Y023835D02*
X006099Y023835D01*
X006257Y023676D02*
X002928Y023676D01*
X002928Y023518D02*
X006416Y023518D01*
X006494Y023359D02*
X002928Y023359D01*
X002928Y023201D02*
X006510Y023201D01*
X006510Y023042D02*
X002928Y023042D01*
X002928Y022884D02*
X006510Y022884D01*
X006510Y022725D02*
X002928Y022725D01*
X002928Y022567D02*
X006510Y022567D01*
X006510Y022408D02*
X002928Y022408D01*
X002928Y022250D02*
X006510Y022250D01*
X006510Y022091D02*
X002928Y022091D01*
X002928Y021933D02*
X006510Y021933D01*
X006510Y021774D02*
X002928Y021774D01*
X002928Y021616D02*
X006510Y021616D01*
X006510Y021457D02*
X002928Y021457D01*
X002928Y021299D02*
X006510Y021299D01*
X006510Y021140D02*
X002928Y021140D01*
X002928Y020982D02*
X006510Y020982D01*
X006510Y020823D02*
X002928Y020823D01*
X002928Y020665D02*
X006510Y020665D01*
X006510Y020506D02*
X002928Y020506D01*
X002928Y020348D02*
X006510Y020348D01*
X006510Y020189D02*
X002928Y020189D01*
X002928Y020031D02*
X006510Y020031D01*
X006510Y019872D02*
X002928Y019872D01*
X002928Y019714D02*
X006510Y019714D01*
X006510Y019555D02*
X002928Y019555D01*
X002928Y019397D02*
X006510Y019397D01*
X006510Y019238D02*
X002928Y019238D01*
X002928Y019080D02*
X006510Y019080D01*
X006510Y018921D02*
X002928Y018921D01*
X002928Y018763D02*
X006510Y018763D01*
X006510Y018604D02*
X002928Y018604D01*
X002928Y018446D02*
X006510Y018446D01*
X006510Y018287D02*
X002928Y018287D01*
X002928Y018129D02*
X006510Y018129D01*
X006510Y017970D02*
X002928Y017970D01*
X002928Y017812D02*
X006510Y017812D01*
X006510Y017653D02*
X002928Y017653D01*
X002928Y017495D02*
X006510Y017495D01*
X006510Y017336D02*
X002928Y017336D01*
X002928Y017178D02*
X006510Y017178D01*
X006510Y017019D02*
X002928Y017019D01*
X002928Y016861D02*
X006510Y016861D01*
X006510Y016702D02*
X002928Y016702D01*
X002928Y016544D02*
X006510Y016544D01*
X006510Y016385D02*
X002928Y016385D01*
X002928Y016227D02*
X006510Y016227D01*
X006510Y016068D02*
X002928Y016068D01*
X002928Y015910D02*
X006510Y015910D01*
X006510Y015751D02*
X002928Y015751D01*
X002928Y015593D02*
X006510Y015593D01*
X006510Y015434D02*
X002928Y015434D01*
X002928Y015276D02*
X006510Y015276D01*
X006510Y015117D02*
X002928Y015117D01*
X002928Y014959D02*
X006510Y014959D01*
X006510Y014800D02*
X002928Y014800D01*
X002928Y014642D02*
X006510Y014642D01*
X006510Y014483D02*
X002928Y014483D01*
X002928Y014325D02*
X006510Y014325D01*
X006510Y014166D02*
X002928Y014166D01*
X002928Y014008D02*
X006510Y014008D01*
X006510Y013849D02*
X002928Y013849D01*
X002928Y013691D02*
X006510Y013691D01*
X006510Y013532D02*
X002928Y013532D01*
X002928Y013374D02*
X006510Y013374D01*
X006510Y013215D02*
X002928Y013215D01*
X002928Y013057D02*
X006510Y013057D01*
X006510Y012898D02*
X002928Y012898D01*
X002928Y012740D02*
X006510Y012740D01*
X007490Y012740D02*
X016010Y012740D01*
X016010Y012898D02*
X007490Y012898D01*
X007490Y013057D02*
X016010Y013057D01*
X016010Y013215D02*
X007490Y013215D01*
X007490Y013374D02*
X016010Y013374D01*
X016010Y013532D02*
X007490Y013532D01*
X007490Y013691D02*
X016010Y013691D01*
X016010Y013849D02*
X007490Y013849D01*
X007490Y014008D02*
X016010Y014008D01*
X016010Y014166D02*
X007490Y014166D01*
X007490Y014325D02*
X016010Y014325D01*
X016010Y014483D02*
X007490Y014483D01*
X007490Y014642D02*
X016010Y014642D01*
X016010Y014800D02*
X007490Y014800D01*
X007490Y014959D02*
X015104Y014959D01*
X015008Y015117D02*
X013928Y015117D01*
X013932Y015131D02*
X013932Y015547D01*
X013320Y015547D01*
X013320Y015707D01*
X013160Y015707D01*
X013160Y016279D01*
X012705Y016279D01*
X012659Y016267D01*
X012618Y016243D01*
X012584Y016210D01*
X012561Y016169D01*
X012548Y016123D01*
X012548Y015707D01*
X013160Y015707D01*
X013160Y015547D01*
X012548Y015547D01*
X012548Y015131D01*
X012561Y015085D01*
X012584Y015044D01*
X012618Y015010D01*
X012659Y014986D01*
X012705Y014974D01*
X013160Y014974D01*
X013160Y015547D01*
X013320Y015547D01*
X013320Y014974D01*
X013776Y014974D01*
X013821Y014986D01*
X013862Y015010D01*
X013896Y015044D01*
X013920Y015085D01*
X013932Y015131D01*
X013932Y015276D02*
X015008Y015276D01*
X015008Y015434D02*
X013932Y015434D01*
X013932Y015707D02*
X013932Y016123D01*
X013920Y016169D01*
X013896Y016210D01*
X013862Y016243D01*
X013821Y016267D01*
X013776Y016279D01*
X013320Y016279D01*
X013320Y015707D01*
X013932Y015707D01*
X013932Y015751D02*
X015008Y015751D01*
X015008Y015593D02*
X013320Y015593D01*
X013320Y015751D02*
X013160Y015751D01*
X013160Y015593D02*
X007490Y015593D01*
X007490Y015751D02*
X012548Y015751D01*
X012548Y015910D02*
X007490Y015910D01*
X007490Y016068D02*
X012548Y016068D01*
X012601Y016227D02*
X007490Y016227D01*
X007490Y016385D02*
X016010Y016385D01*
X016010Y016544D02*
X007490Y016544D01*
X007490Y016702D02*
X016010Y016702D01*
X015134Y016861D02*
X007490Y016861D01*
X007490Y017970D02*
X013038Y017970D01*
X013038Y018129D02*
X007490Y018129D01*
X007490Y018287D02*
X013038Y018287D01*
X013038Y018446D02*
X007490Y018446D01*
X007490Y018604D02*
X013038Y018604D01*
X013086Y018763D02*
X007490Y018763D01*
X007490Y018921D02*
X016010Y018921D01*
X016010Y018763D02*
X014414Y018763D01*
X014462Y018604D02*
X016010Y018604D01*
X016010Y018446D02*
X014462Y018446D01*
X014462Y018287D02*
X016010Y018287D01*
X016010Y018129D02*
X014462Y018129D01*
X014462Y017970D02*
X015141Y017970D01*
X015627Y019238D02*
X007490Y019238D01*
X007490Y019080D02*
X016010Y019080D01*
X015551Y019397D02*
X007490Y019397D01*
X007490Y019555D02*
X013118Y019555D01*
X013110Y019569D02*
X013134Y019528D01*
X013167Y019494D01*
X013208Y019471D01*
X013254Y019458D01*
X013670Y019458D01*
X013670Y020031D01*
X013098Y020031D01*
X013098Y019615D01*
X013110Y019569D01*
X013098Y019714D02*
X007490Y019714D01*
X007490Y019872D02*
X013098Y019872D01*
X013098Y020031D02*
X007490Y020031D01*
X007490Y020189D02*
X013670Y020189D01*
X013670Y020191D02*
X013670Y020031D01*
X013830Y020031D01*
X013830Y020191D01*
X013670Y020191D01*
X013670Y020763D01*
X013254Y020763D01*
X013208Y020751D01*
X013167Y020727D01*
X013134Y020694D01*
X013110Y020653D01*
X013098Y020607D01*
X013098Y020191D01*
X013670Y020191D01*
X013670Y020348D02*
X013830Y020348D01*
X013830Y020191D02*
X013830Y020763D01*
X014246Y020763D01*
X014292Y020751D01*
X014333Y020727D01*
X014366Y020694D01*
X014390Y020653D01*
X014402Y020607D01*
X014402Y020191D01*
X013830Y020191D01*
X013830Y020189D02*
X015551Y020189D01*
X015551Y020031D02*
X014402Y020031D01*
X014402Y019615D01*
X014390Y019569D01*
X014366Y019528D01*
X014333Y019494D01*
X014292Y019471D01*
X014246Y019458D01*
X013830Y019458D01*
X013830Y020031D01*
X014402Y020031D01*
X014402Y019872D02*
X015551Y019872D01*
X015551Y019714D02*
X014402Y019714D01*
X014382Y019555D02*
X015551Y019555D01*
X015560Y020348D02*
X014402Y020348D01*
X014402Y020506D02*
X015711Y020506D01*
X014383Y020665D02*
X041103Y020665D01*
X041103Y020823D02*
X007490Y020823D01*
X007490Y020665D02*
X013117Y020665D01*
X013098Y020506D02*
X007490Y020506D01*
X007490Y020348D02*
X013098Y020348D01*
X013670Y020506D02*
X013830Y020506D01*
X013830Y020665D02*
X013670Y020665D01*
X013670Y020031D02*
X013830Y020031D01*
X013830Y019872D02*
X013670Y019872D01*
X013670Y019714D02*
X013830Y019714D01*
X013830Y019555D02*
X013670Y019555D01*
X013750Y018142D02*
X013750Y017377D01*
X013879Y016227D02*
X015041Y016227D01*
X015008Y016068D02*
X013932Y016068D01*
X013932Y015910D02*
X015008Y015910D01*
X015760Y015627D02*
X016500Y015627D01*
X016990Y015593D02*
X024410Y015593D01*
X024410Y015547D02*
X024410Y015707D01*
X024410Y016279D01*
X023955Y016279D01*
X023909Y016267D01*
X023868Y016243D01*
X023834Y016210D01*
X023811Y016169D01*
X023798Y016123D01*
X023798Y015707D01*
X024410Y015707D01*
X024570Y015707D01*
X024570Y016279D01*
X025026Y016279D01*
X025071Y016267D01*
X025112Y016243D01*
X025146Y016210D01*
X025170Y016169D01*
X025182Y016123D01*
X025182Y015707D01*
X024570Y015707D01*
X024570Y015547D01*
X025182Y015547D01*
X025182Y015131D01*
X025170Y015085D01*
X025146Y015044D01*
X025112Y015010D01*
X025071Y014986D01*
X025026Y014974D01*
X024570Y014974D01*
X024570Y015547D01*
X024410Y015547D01*
X023798Y015547D01*
X023798Y015131D01*
X023811Y015085D01*
X023834Y015044D01*
X023868Y015010D01*
X023909Y014986D01*
X023955Y014974D01*
X024410Y014974D01*
X024410Y015547D01*
X024410Y015434D02*
X024570Y015434D01*
X024570Y015276D02*
X024410Y015276D01*
X024410Y015117D02*
X024570Y015117D01*
X023802Y015117D02*
X016990Y015117D01*
X016990Y014959D02*
X026354Y014959D01*
X026258Y015117D02*
X025178Y015117D01*
X025182Y015276D02*
X026258Y015276D01*
X026258Y015434D02*
X025182Y015434D01*
X025182Y015751D02*
X026258Y015751D01*
X026258Y015593D02*
X024570Y015593D01*
X024570Y015751D02*
X024410Y015751D01*
X024410Y015910D02*
X024570Y015910D01*
X024570Y016068D02*
X024410Y016068D01*
X024410Y016227D02*
X024570Y016227D01*
X023851Y016227D02*
X016990Y016227D01*
X016990Y016385D02*
X027260Y016385D01*
X027260Y016544D02*
X016990Y016544D01*
X016990Y016702D02*
X027260Y016702D01*
X026384Y016861D02*
X017797Y016861D01*
X017794Y016856D02*
X017818Y016897D01*
X017830Y016943D01*
X017830Y017367D01*
X017450Y017367D01*
X017450Y017447D01*
X017370Y017447D01*
X017370Y018027D01*
X017146Y018027D01*
X017101Y018014D01*
X017059Y017991D01*
X017026Y017957D01*
X017002Y017916D01*
X016990Y017870D01*
X016990Y017447D01*
X017370Y017447D01*
X017370Y017367D01*
X016990Y017367D01*
X016990Y016943D01*
X017002Y016897D01*
X017026Y016856D01*
X017059Y016823D01*
X017101Y016799D01*
X017146Y016787D01*
X017370Y016787D01*
X017370Y017367D01*
X017450Y017367D01*
X017450Y016787D01*
X017674Y016787D01*
X017719Y016799D01*
X017761Y016823D01*
X017794Y016856D01*
X017830Y017019D02*
X026360Y017019D01*
X026360Y017178D02*
X017830Y017178D01*
X017830Y017336D02*
X026348Y017336D01*
X026189Y017495D02*
X017830Y017495D01*
X017830Y017447D02*
X017830Y017870D01*
X017818Y017916D01*
X017794Y017957D01*
X017761Y017991D01*
X017719Y018014D01*
X017674Y018027D01*
X017450Y018027D01*
X017450Y017447D01*
X017830Y017447D01*
X017830Y017653D02*
X026031Y017653D01*
X025872Y017812D02*
X017830Y017812D01*
X017781Y017970D02*
X025714Y017970D01*
X025555Y018129D02*
X016990Y018129D01*
X016990Y018287D02*
X025397Y018287D01*
X025238Y018446D02*
X016990Y018446D01*
X016990Y018604D02*
X025080Y018604D01*
X024921Y018763D02*
X016990Y018763D01*
X016990Y018921D02*
X024763Y018921D01*
X024604Y019080D02*
X016990Y019080D01*
X017373Y019238D02*
X024446Y019238D01*
X025197Y019872D02*
X026801Y019872D01*
X026801Y019714D02*
X025356Y019714D01*
X025514Y019555D02*
X026801Y019555D01*
X026801Y019397D02*
X025673Y019397D01*
X025831Y019238D02*
X026877Y019238D01*
X027260Y019080D02*
X025990Y019080D01*
X026148Y018921D02*
X027260Y018921D01*
X027260Y018763D02*
X026307Y018763D01*
X026465Y018604D02*
X027260Y018604D01*
X027260Y018446D02*
X026624Y018446D01*
X026782Y018287D02*
X027260Y018287D01*
X027260Y018129D02*
X026941Y018129D01*
X028240Y018129D02*
X035055Y018129D01*
X034897Y018287D02*
X028240Y018287D01*
X028240Y018446D02*
X034738Y018446D01*
X034580Y018604D02*
X028240Y018604D01*
X028240Y018763D02*
X034421Y018763D01*
X034263Y018921D02*
X028240Y018921D01*
X028240Y019080D02*
X034104Y019080D01*
X033946Y019238D02*
X028623Y019238D01*
X028690Y020348D02*
X033665Y020348D01*
X034335Y020348D02*
X036310Y020348D01*
X036301Y020189D02*
X034488Y020189D01*
X034553Y020031D02*
X036301Y020031D01*
X036301Y019872D02*
X034697Y019872D01*
X034856Y019714D02*
X036301Y019714D01*
X036301Y019555D02*
X035014Y019555D01*
X035173Y019397D02*
X036301Y019397D01*
X036377Y019238D02*
X035331Y019238D01*
X035490Y019080D02*
X036760Y019080D01*
X036760Y018921D02*
X035648Y018921D01*
X035807Y018763D02*
X036760Y018763D01*
X036760Y018604D02*
X035965Y018604D01*
X036124Y018446D02*
X036760Y018446D01*
X036760Y018287D02*
X036282Y018287D01*
X036441Y018129D02*
X036760Y018129D01*
X037740Y018129D02*
X041103Y018129D01*
X041103Y018287D02*
X037740Y018287D01*
X037740Y018446D02*
X041103Y018446D01*
X041103Y018604D02*
X037740Y018604D01*
X037740Y018763D02*
X041103Y018763D01*
X041103Y018921D02*
X037740Y018921D01*
X037740Y019080D02*
X041103Y019080D01*
X041103Y019238D02*
X038123Y019238D01*
X038199Y019397D02*
X041103Y019397D01*
X041103Y019555D02*
X038199Y019555D01*
X038199Y019714D02*
X041103Y019714D01*
X041103Y019872D02*
X038199Y019872D01*
X038199Y020031D02*
X041103Y020031D01*
X041103Y020189D02*
X038199Y020189D01*
X038190Y020348D02*
X041103Y020348D01*
X041103Y020506D02*
X038039Y020506D01*
X036461Y020506D02*
X028539Y020506D01*
X026961Y020506D02*
X017289Y020506D01*
X017440Y020348D02*
X024165Y020348D01*
X024835Y020348D02*
X026810Y020348D01*
X026801Y020189D02*
X024988Y020189D01*
X025053Y020031D02*
X026801Y020031D01*
X028240Y017970D02*
X028289Y017970D01*
X028276Y017957D02*
X028252Y017916D01*
X028240Y017870D01*
X028240Y017447D01*
X028620Y017447D01*
X028620Y018027D01*
X028396Y018027D01*
X028351Y018014D01*
X028309Y017991D01*
X028276Y017957D01*
X028240Y017812D02*
X028240Y017812D01*
X028240Y017653D02*
X028240Y017653D01*
X028240Y017495D02*
X028240Y017495D01*
X028240Y017367D02*
X028240Y016943D01*
X028252Y016897D01*
X028276Y016856D01*
X028309Y016823D01*
X028351Y016799D01*
X028396Y016787D01*
X028620Y016787D01*
X028620Y017367D01*
X028240Y017367D01*
X028240Y017336D02*
X028240Y017336D01*
X028240Y017178D02*
X028240Y017178D01*
X028240Y017019D02*
X028240Y017019D01*
X028240Y016861D02*
X028273Y016861D01*
X028240Y016702D02*
X036760Y016702D01*
X036760Y016544D02*
X028240Y016544D01*
X028240Y016385D02*
X036760Y016385D01*
X036510Y015627D02*
X037250Y015627D01*
X037740Y015593D02*
X041103Y015593D01*
X041103Y015751D02*
X037740Y015751D01*
X037740Y015910D02*
X041103Y015910D01*
X041103Y016068D02*
X037740Y016068D01*
X037740Y016227D02*
X041103Y016227D01*
X041103Y016385D02*
X037740Y016385D01*
X037740Y016544D02*
X041103Y016544D01*
X041103Y016702D02*
X037740Y016702D01*
X037809Y016823D02*
X037851Y016799D01*
X037896Y016787D01*
X038120Y016787D01*
X038120Y017367D01*
X037740Y017367D01*
X037740Y016943D01*
X037752Y016897D01*
X037776Y016856D01*
X037809Y016823D01*
X037773Y016861D02*
X037740Y016861D01*
X038120Y016861D02*
X038200Y016861D01*
X038200Y016787D02*
X038424Y016787D01*
X038469Y016799D01*
X038511Y016823D01*
X038544Y016856D01*
X038568Y016897D01*
X038580Y016943D01*
X038580Y017367D01*
X038200Y017367D01*
X038200Y017447D01*
X038120Y017447D01*
X038120Y018027D01*
X037896Y018027D01*
X037851Y018014D01*
X037809Y017991D01*
X037776Y017957D01*
X037752Y017916D01*
X037740Y017870D01*
X037740Y017447D01*
X038120Y017447D01*
X038120Y017367D01*
X038200Y017367D01*
X038200Y016787D01*
X038200Y017019D02*
X038120Y017019D01*
X038120Y017178D02*
X038200Y017178D01*
X038200Y017336D02*
X038120Y017336D01*
X038200Y017447D02*
X038580Y017447D01*
X038580Y017870D01*
X038568Y017916D01*
X038544Y017957D01*
X038511Y017991D01*
X038469Y018014D01*
X038424Y018027D01*
X038200Y018027D01*
X038200Y017447D01*
X038200Y017495D02*
X038120Y017495D01*
X038120Y017653D02*
X038200Y017653D01*
X038200Y017812D02*
X038120Y017812D01*
X038120Y017970D02*
X038200Y017970D01*
X038531Y017970D02*
X041103Y017970D01*
X041103Y017812D02*
X038580Y017812D01*
X038580Y017653D02*
X041103Y017653D01*
X041103Y017495D02*
X038580Y017495D01*
X038580Y017336D02*
X041103Y017336D01*
X041103Y017178D02*
X038580Y017178D01*
X038580Y017019D02*
X041103Y017019D01*
X041103Y016861D02*
X038547Y016861D01*
X037740Y017495D02*
X037740Y017495D01*
X037740Y017653D02*
X037740Y017653D01*
X037740Y017812D02*
X037740Y017812D01*
X037740Y017970D02*
X037789Y017970D01*
X035848Y017336D02*
X029080Y017336D01*
X029080Y017367D02*
X028700Y017367D01*
X028700Y017447D01*
X028620Y017447D01*
X028620Y017367D01*
X028700Y017367D01*
X028700Y016787D01*
X028924Y016787D01*
X028969Y016799D01*
X029011Y016823D01*
X029044Y016856D01*
X029068Y016897D01*
X029080Y016943D01*
X029080Y017367D01*
X029080Y017447D02*
X029080Y017870D01*
X029068Y017916D01*
X029044Y017957D01*
X029011Y017991D01*
X028969Y018014D01*
X028924Y018027D01*
X028700Y018027D01*
X028700Y017447D01*
X029080Y017447D01*
X029080Y017495D02*
X035689Y017495D01*
X035531Y017653D02*
X029080Y017653D01*
X029080Y017812D02*
X035372Y017812D01*
X035214Y017970D02*
X029031Y017970D01*
X028700Y017970D02*
X028620Y017970D01*
X028620Y017812D02*
X028700Y017812D01*
X028700Y017653D02*
X028620Y017653D01*
X028620Y017495D02*
X028700Y017495D01*
X028700Y017336D02*
X028620Y017336D01*
X028620Y017178D02*
X028700Y017178D01*
X028700Y017019D02*
X028620Y017019D01*
X028620Y016861D02*
X028700Y016861D01*
X029047Y016861D02*
X035884Y016861D01*
X035860Y017019D02*
X029080Y017019D01*
X029080Y017178D02*
X035860Y017178D01*
X035791Y016227D02*
X034629Y016227D01*
X034612Y016243D02*
X034571Y016267D01*
X034526Y016279D01*
X034070Y016279D01*
X034070Y015707D01*
X033910Y015707D01*
X033910Y016279D01*
X033455Y016279D01*
X033409Y016267D01*
X033368Y016243D01*
X033334Y016210D01*
X033311Y016169D01*
X033298Y016123D01*
X033298Y015707D01*
X033910Y015707D01*
X033910Y015547D01*
X033298Y015547D01*
X033298Y015131D01*
X033311Y015085D01*
X033334Y015044D01*
X033368Y015010D01*
X033409Y014986D01*
X033455Y014974D01*
X033910Y014974D01*
X033910Y015547D01*
X034070Y015547D01*
X034070Y015707D01*
X034682Y015707D01*
X034682Y016123D01*
X034670Y016169D01*
X034646Y016210D01*
X034612Y016243D01*
X034682Y016068D02*
X035758Y016068D01*
X035758Y015910D02*
X034682Y015910D01*
X034682Y015751D02*
X035758Y015751D01*
X035758Y015593D02*
X034070Y015593D01*
X034070Y015547D02*
X034682Y015547D01*
X034682Y015131D01*
X034670Y015085D01*
X034646Y015044D01*
X034612Y015010D01*
X034571Y014986D01*
X034526Y014974D01*
X034070Y014974D01*
X034070Y015547D01*
X034070Y015434D02*
X033910Y015434D01*
X033910Y015276D02*
X034070Y015276D01*
X034070Y015117D02*
X033910Y015117D01*
X033910Y015593D02*
X028240Y015593D01*
X028240Y015751D02*
X033298Y015751D01*
X033298Y015910D02*
X028240Y015910D01*
X028240Y016068D02*
X033298Y016068D01*
X033351Y016227D02*
X028240Y016227D01*
X027750Y015627D02*
X027010Y015627D01*
X026291Y016227D02*
X025129Y016227D01*
X025182Y016068D02*
X026258Y016068D01*
X026258Y015910D02*
X025182Y015910D01*
X023798Y015910D02*
X016990Y015910D01*
X016990Y016068D02*
X023798Y016068D01*
X023798Y015751D02*
X016990Y015751D01*
X016990Y015434D02*
X023798Y015434D01*
X023798Y015276D02*
X016990Y015276D01*
X016990Y014800D02*
X027260Y014800D01*
X027260Y014642D02*
X016990Y014642D01*
X016990Y014483D02*
X027260Y014483D01*
X027260Y014325D02*
X016990Y014325D01*
X016990Y014166D02*
X027260Y014166D01*
X027260Y014008D02*
X016990Y014008D01*
X016990Y013849D02*
X027260Y013849D01*
X027260Y013691D02*
X016990Y013691D01*
X016990Y013532D02*
X027260Y013532D01*
X027260Y013374D02*
X016990Y013374D01*
X016990Y013215D02*
X027260Y013215D01*
X027260Y013057D02*
X016990Y013057D01*
X016990Y012898D02*
X027260Y012898D01*
X027260Y012740D02*
X016990Y012740D01*
X018990Y011472D02*
X019010Y011472D01*
X019010Y011313D02*
X018990Y011313D01*
X018990Y011155D02*
X019010Y011155D01*
X019010Y010996D02*
X018990Y010996D01*
X018990Y010838D02*
X019010Y010838D01*
X019397Y011789D02*
X024853Y011789D01*
X024730Y011947D02*
X019520Y011947D01*
X019520Y012106D02*
X024730Y012106D01*
X024730Y012264D02*
X019520Y012264D01*
X019439Y012423D02*
X024811Y012423D01*
X024969Y012581D02*
X019281Y012581D01*
X023202Y009887D02*
X023298Y009887D01*
X023298Y009937D02*
X023298Y009549D01*
X023725Y009549D01*
X023725Y009780D01*
X023713Y009826D01*
X023689Y009867D01*
X023656Y009901D01*
X023615Y009924D01*
X023569Y009937D01*
X023298Y009937D01*
X023298Y009728D02*
X023202Y009728D01*
X023202Y009570D02*
X023298Y009570D01*
X023725Y009570D02*
X023775Y009570D01*
X023775Y009728D02*
X023725Y009728D01*
X023670Y009887D02*
X023830Y009887D01*
X024202Y009887D02*
X024298Y009887D01*
X024298Y009937D02*
X024298Y009549D01*
X024725Y009549D01*
X024725Y009780D01*
X024713Y009826D01*
X024689Y009867D01*
X024656Y009901D01*
X024615Y009924D01*
X024569Y009937D01*
X024298Y009937D01*
X024298Y009728D02*
X024202Y009728D01*
X024202Y009570D02*
X024298Y009570D01*
X024725Y009570D02*
X024775Y009570D01*
X024775Y009728D02*
X024725Y009728D01*
X024670Y009887D02*
X024830Y009887D01*
X025202Y009887D02*
X025298Y009887D01*
X025298Y009937D02*
X025298Y009549D01*
X025725Y009549D01*
X025725Y009780D01*
X025713Y009826D01*
X025689Y009867D01*
X025656Y009901D01*
X025615Y009924D01*
X025569Y009937D01*
X025298Y009937D01*
X025298Y009728D02*
X025202Y009728D01*
X025202Y009570D02*
X025298Y009570D01*
X025725Y009570D02*
X025775Y009570D01*
X025775Y009728D02*
X025725Y009728D01*
X025670Y009887D02*
X025830Y009887D01*
X026202Y009887D02*
X026298Y009887D01*
X026298Y009937D02*
X026298Y009549D01*
X026725Y009549D01*
X026725Y009780D01*
X026713Y009826D01*
X026689Y009867D01*
X026656Y009901D01*
X026615Y009924D01*
X026569Y009937D01*
X026298Y009937D01*
X026298Y009728D02*
X026202Y009728D01*
X026202Y009570D02*
X026298Y009570D01*
X026725Y009570D02*
X026775Y009570D01*
X026775Y009728D02*
X026725Y009728D01*
X026670Y009887D02*
X026830Y009887D01*
X027202Y009887D02*
X027298Y009887D01*
X027298Y009937D02*
X027298Y009549D01*
X027725Y009549D01*
X027725Y009780D01*
X027713Y009826D01*
X027689Y009867D01*
X027656Y009901D01*
X027615Y009924D01*
X027569Y009937D01*
X027298Y009937D01*
X027298Y009728D02*
X027202Y009728D01*
X027202Y009570D02*
X027298Y009570D01*
X027725Y009570D02*
X027775Y009570D01*
X027775Y009728D02*
X027725Y009728D01*
X027670Y009887D02*
X027830Y009887D01*
X028202Y009887D02*
X028298Y009887D01*
X028298Y009937D02*
X028298Y009549D01*
X028725Y009549D01*
X028725Y009780D01*
X028713Y009826D01*
X028689Y009867D01*
X028656Y009901D01*
X028615Y009924D01*
X028569Y009937D01*
X028298Y009937D01*
X028298Y009728D02*
X028202Y009728D01*
X028202Y009570D02*
X028298Y009570D01*
X028725Y009570D02*
X028775Y009570D01*
X028775Y009728D02*
X028725Y009728D01*
X028670Y009887D02*
X028830Y009887D01*
X029202Y009887D02*
X029298Y009887D01*
X029298Y009937D02*
X029298Y009549D01*
X029725Y009549D01*
X029725Y009780D01*
X029713Y009826D01*
X029689Y009867D01*
X029656Y009901D01*
X029615Y009924D01*
X029569Y009937D01*
X029298Y009937D01*
X029298Y009728D02*
X029202Y009728D01*
X029202Y009570D02*
X029298Y009570D01*
X029725Y009570D02*
X029775Y009570D01*
X029775Y009728D02*
X029725Y009728D01*
X029670Y009887D02*
X029830Y009887D01*
X030202Y009887D02*
X030298Y009887D01*
X030298Y009937D02*
X030298Y009549D01*
X030725Y009549D01*
X030725Y009780D01*
X030713Y009826D01*
X030689Y009867D01*
X030656Y009901D01*
X030615Y009924D01*
X030569Y009937D01*
X030298Y009937D01*
X030298Y009728D02*
X030202Y009728D01*
X030202Y009570D02*
X030298Y009570D01*
X030725Y009570D02*
X030775Y009570D01*
X030775Y009728D02*
X030725Y009728D01*
X030670Y009887D02*
X030830Y009887D01*
X031202Y009887D02*
X031298Y009887D01*
X031298Y009728D02*
X031202Y009728D01*
X031202Y009570D02*
X031298Y009570D01*
X030775Y009411D02*
X030725Y009411D01*
X030725Y009253D02*
X030775Y009253D01*
X029775Y009253D02*
X029725Y009253D01*
X029725Y009411D02*
X029775Y009411D01*
X028775Y009411D02*
X028725Y009411D01*
X028725Y009253D02*
X028775Y009253D01*
X027775Y009253D02*
X027725Y009253D01*
X027725Y009411D02*
X027775Y009411D01*
X026775Y009411D02*
X026725Y009411D01*
X026725Y009253D02*
X026775Y009253D01*
X025775Y009253D02*
X025725Y009253D01*
X025725Y009411D02*
X025775Y009411D01*
X024775Y009411D02*
X024725Y009411D01*
X024725Y009253D02*
X024775Y009253D01*
X023775Y009253D02*
X023725Y009253D01*
X023725Y009411D02*
X023775Y009411D01*
X022810Y008302D02*
X022542Y008302D01*
X022685Y008143D02*
X022815Y008143D01*
X022750Y007986D02*
X022750Y007267D01*
X022674Y007083D01*
X022610Y007020D01*
X022610Y006990D01*
X022681Y006960D01*
X022749Y006893D01*
X022785Y006804D01*
X022785Y006197D01*
X022756Y006127D01*
X022785Y006056D01*
X022785Y005449D01*
X022749Y005361D01*
X022681Y005293D01*
X022661Y005285D01*
X022690Y005214D01*
X022690Y005116D01*
X022950Y005376D01*
X022950Y006960D01*
X022826Y007083D01*
X022750Y007267D01*
X022750Y007986D01*
X022750Y007985D02*
X022750Y007985D01*
X022750Y007826D02*
X022750Y007826D01*
X022750Y007668D02*
X022750Y007668D01*
X022750Y007509D02*
X022750Y007509D01*
X022750Y007351D02*
X022750Y007351D01*
X022719Y007192D02*
X022781Y007192D01*
X022876Y007034D02*
X022624Y007034D01*
X022756Y006875D02*
X022950Y006875D01*
X022950Y006717D02*
X022785Y006717D01*
X022785Y006558D02*
X022950Y006558D01*
X022950Y006400D02*
X022785Y006400D01*
X022785Y006241D02*
X022950Y006241D01*
X022950Y006083D02*
X022774Y006083D01*
X022785Y005924D02*
X022950Y005924D01*
X022950Y005766D02*
X022785Y005766D01*
X022785Y005607D02*
X022950Y005607D01*
X022950Y005449D02*
X022785Y005449D01*
X022864Y005290D02*
X022674Y005290D01*
X022690Y005132D02*
X022706Y005132D01*
X021750Y006889D02*
X021749Y006893D01*
X021681Y006960D01*
X021610Y006990D01*
X021610Y007020D01*
X021674Y007083D01*
X021750Y007267D01*
X021750Y007986D01*
X021750Y007267D01*
X021826Y007083D01*
X021890Y007020D01*
X021890Y006990D01*
X021819Y006960D01*
X021751Y006893D01*
X021750Y006889D01*
X021624Y007034D02*
X021876Y007034D01*
X021781Y007192D02*
X021719Y007192D01*
X021750Y007351D02*
X021750Y007351D01*
X021750Y007509D02*
X021750Y007509D01*
X021750Y007668D02*
X021750Y007668D01*
X021750Y007826D02*
X021750Y007826D01*
X021750Y007985D02*
X021750Y007985D01*
X021685Y008143D02*
X021815Y008143D01*
X021958Y008302D02*
X021542Y008302D01*
X020958Y008302D02*
X020542Y008302D01*
X020685Y008143D02*
X020815Y008143D01*
X020750Y007986D02*
X020750Y007267D01*
X020674Y007083D01*
X020610Y007020D01*
X020610Y006990D01*
X020681Y006960D01*
X020749Y006893D01*
X020750Y006889D01*
X020751Y006893D01*
X020819Y006960D01*
X020890Y006990D01*
X020890Y007020D01*
X020826Y007083D01*
X020750Y007267D01*
X020750Y007986D01*
X020750Y007985D02*
X020750Y007985D01*
X020750Y007826D02*
X020750Y007826D01*
X020750Y007668D02*
X020750Y007668D01*
X020750Y007509D02*
X020750Y007509D01*
X020750Y007351D02*
X020750Y007351D01*
X020719Y007192D02*
X020781Y007192D01*
X020876Y007034D02*
X020624Y007034D01*
X019890Y007020D02*
X019890Y006990D01*
X019819Y006960D01*
X019751Y006893D01*
X019750Y006889D01*
X019749Y006893D01*
X019681Y006960D01*
X019610Y006990D01*
X019610Y007020D01*
X019674Y007083D01*
X019750Y007267D01*
X019750Y007986D01*
X019750Y007267D01*
X019826Y007083D01*
X019890Y007020D01*
X019876Y007034D02*
X019624Y007034D01*
X019719Y007192D02*
X019781Y007192D01*
X019750Y007351D02*
X019750Y007351D01*
X019750Y007509D02*
X019750Y007509D01*
X019750Y007668D02*
X019750Y007668D01*
X019750Y007826D02*
X019750Y007826D01*
X019750Y007985D02*
X019750Y007985D01*
X019685Y008143D02*
X019815Y008143D01*
X019958Y008302D02*
X019542Y008302D01*
X018958Y008302D02*
X018542Y008302D01*
X018685Y008143D02*
X018815Y008143D01*
X018750Y007986D02*
X018750Y007267D01*
X018674Y007083D01*
X018610Y007020D01*
X018610Y006990D01*
X018681Y006960D01*
X018749Y006893D01*
X018750Y006889D01*
X018751Y006893D01*
X018819Y006960D01*
X018890Y006990D01*
X018890Y007020D01*
X018826Y007083D01*
X018750Y007267D01*
X018750Y007986D01*
X018750Y007985D02*
X018750Y007985D01*
X018750Y007826D02*
X018750Y007826D01*
X018750Y007668D02*
X018750Y007668D01*
X018750Y007509D02*
X018750Y007509D01*
X018750Y007351D02*
X018750Y007351D01*
X018719Y007192D02*
X018781Y007192D01*
X018876Y007034D02*
X018624Y007034D01*
X017890Y007020D02*
X017890Y006990D01*
X017819Y006960D01*
X017751Y006893D01*
X017750Y006889D01*
X017749Y006893D01*
X017681Y006960D01*
X017610Y006990D01*
X017610Y007020D01*
X017674Y007083D01*
X017750Y007267D01*
X017750Y007986D01*
X017750Y007267D01*
X017826Y007083D01*
X017890Y007020D01*
X017876Y007034D02*
X017624Y007034D01*
X017719Y007192D02*
X017781Y007192D01*
X017750Y007351D02*
X017750Y007351D01*
X017750Y007509D02*
X017750Y007509D01*
X017750Y007668D02*
X017750Y007668D01*
X017750Y007826D02*
X017750Y007826D01*
X017750Y007985D02*
X017750Y007985D01*
X017685Y008143D02*
X017815Y008143D01*
X017958Y008302D02*
X017542Y008302D01*
X016958Y008302D02*
X016542Y008302D01*
X016685Y008143D02*
X016815Y008143D01*
X016750Y007986D02*
X016750Y007267D01*
X016674Y007083D01*
X016610Y007020D01*
X016610Y006990D01*
X016681Y006960D01*
X016749Y006893D01*
X016750Y006889D01*
X016751Y006893D01*
X016819Y006960D01*
X016890Y006990D01*
X016890Y007020D01*
X016826Y007083D01*
X016750Y007267D01*
X016750Y007986D01*
X016750Y007985D02*
X016750Y007985D01*
X016750Y007826D02*
X016750Y007826D01*
X016750Y007668D02*
X016750Y007668D01*
X016750Y007509D02*
X016750Y007509D01*
X016750Y007351D02*
X016750Y007351D01*
X016719Y007192D02*
X016781Y007192D01*
X016876Y007034D02*
X016624Y007034D01*
X015890Y007020D02*
X015890Y006990D01*
X015819Y006960D01*
X015751Y006893D01*
X015750Y006889D01*
X015749Y006893D01*
X015681Y006960D01*
X015610Y006990D01*
X015610Y007020D01*
X015674Y007083D01*
X015750Y007267D01*
X015750Y007986D01*
X015750Y007267D01*
X015826Y007083D01*
X015890Y007020D01*
X015876Y007034D02*
X015624Y007034D01*
X015719Y007192D02*
X015781Y007192D01*
X015750Y007351D02*
X015750Y007351D01*
X015750Y007509D02*
X015750Y007509D01*
X015750Y007668D02*
X015750Y007668D01*
X015750Y007826D02*
X015750Y007826D01*
X015750Y007985D02*
X015750Y007985D01*
X015685Y008143D02*
X015815Y008143D01*
X015958Y008302D02*
X015542Y008302D01*
X013320Y015117D02*
X013160Y015117D01*
X013160Y015276D02*
X013320Y015276D01*
X013320Y015434D02*
X013160Y015434D01*
X013160Y015910D02*
X013320Y015910D01*
X013320Y016068D02*
X013160Y016068D01*
X013160Y016227D02*
X013320Y016227D01*
X012548Y015434D02*
X007490Y015434D01*
X007490Y015276D02*
X012548Y015276D01*
X012552Y015117D02*
X007490Y015117D01*
X004219Y012581D02*
X002928Y012581D01*
X002928Y012423D02*
X004061Y012423D01*
X003980Y012264D02*
X002928Y012264D01*
X002928Y012106D02*
X003980Y012106D01*
X003980Y011947D02*
X002928Y011947D01*
X002928Y011789D02*
X004103Y011789D01*
X002928Y010362D02*
X041103Y010362D01*
X041103Y010204D02*
X002928Y010204D01*
X002928Y009094D02*
X003812Y009094D01*
X003592Y008936D02*
X002928Y008936D01*
X002928Y008777D02*
X003511Y008777D01*
X003490Y008619D02*
X002928Y008619D01*
X002928Y008460D02*
X003518Y008460D01*
X003608Y008302D02*
X002928Y008302D01*
X002928Y007826D02*
X003531Y007826D01*
X003490Y007668D02*
X002928Y007668D01*
X002928Y007509D02*
X003497Y007509D01*
X003563Y007351D02*
X002928Y007351D01*
X002928Y007192D02*
X003732Y007192D01*
X003690Y007034D02*
X002928Y007034D01*
X002928Y006875D02*
X003552Y006875D01*
X003490Y006717D02*
X002928Y006717D01*
X002928Y006558D02*
X003490Y006558D01*
X003543Y006400D02*
X002928Y006400D01*
X002928Y006241D02*
X003668Y006241D01*
X003784Y006083D02*
X002928Y006083D01*
X002928Y005924D02*
X003580Y005924D01*
X003506Y005766D02*
X002928Y005766D01*
X002928Y005607D02*
X003490Y005607D01*
X003523Y005449D02*
X002928Y005449D01*
X002928Y005290D02*
X003619Y005290D01*
X003850Y005132D02*
X002928Y005132D01*
X002928Y004973D02*
X003850Y004973D01*
X003850Y004815D02*
X002928Y004815D01*
X002928Y004656D02*
X003850Y004656D01*
X003850Y004498D02*
X002928Y004498D01*
X002928Y004339D02*
X003850Y004339D01*
X003850Y004181D02*
X002928Y004181D01*
X002928Y004022D02*
X003860Y004022D01*
X003947Y003864D02*
X002928Y003864D01*
X002928Y003705D02*
X004106Y003705D01*
X004264Y003547D02*
X002928Y003547D01*
X002928Y003388D02*
X004423Y003388D01*
X004581Y003230D02*
X002928Y003230D01*
X002928Y003071D02*
X004740Y003071D01*
X004898Y002913D02*
X002928Y002913D01*
X002928Y002754D02*
X005057Y002754D01*
X005215Y002596D02*
X004376Y002596D01*
X004361Y002611D02*
X004041Y002744D01*
X003695Y002744D01*
X003375Y002611D01*
X003131Y002367D01*
X002998Y002047D01*
X002998Y001701D01*
X003131Y001381D01*
X003375Y001136D01*
X003695Y001004D01*
X004041Y001004D01*
X004361Y001136D01*
X004606Y001381D01*
X004738Y001701D01*
X004738Y002047D01*
X004606Y002367D01*
X004361Y002611D01*
X004535Y002437D02*
X005374Y002437D01*
X005545Y002279D02*
X004642Y002279D01*
X004708Y002120D02*
X006310Y002120D01*
X006270Y001962D02*
X004738Y001962D01*
X004738Y001803D02*
X006270Y001803D01*
X006270Y001486D02*
X004649Y001486D01*
X004715Y001645D02*
X006730Y001645D01*
X006770Y001645D02*
X008210Y001645D01*
X008210Y001803D02*
X007230Y001803D01*
X007230Y001647D02*
X007230Y001964D01*
X007218Y002039D01*
X007195Y002111D01*
X007161Y002178D01*
X007125Y002227D01*
X008290Y002227D01*
X008210Y002034D01*
X008210Y001219D01*
X008292Y001021D01*
X008380Y000933D01*
X007025Y000933D01*
X007063Y000961D01*
X007116Y001014D01*
X007161Y001075D01*
X007195Y001142D01*
X007218Y001214D01*
X007230Y001289D01*
X007230Y001607D01*
X006770Y001607D01*
X006770Y001647D01*
X007230Y001647D01*
X007230Y001486D02*
X008210Y001486D01*
X008210Y001328D02*
X007230Y001328D01*
X007204Y001169D02*
X008231Y001169D01*
X008302Y001011D02*
X007113Y001011D01*
X006387Y001011D02*
X004058Y001011D01*
X004394Y001169D02*
X006296Y001169D01*
X006270Y001328D02*
X004552Y001328D01*
X003679Y001011D02*
X002928Y001011D01*
X002928Y001169D02*
X003342Y001169D01*
X003184Y001328D02*
X002928Y001328D01*
X002928Y001486D02*
X003087Y001486D01*
X003021Y001645D02*
X002928Y001645D01*
X002928Y001803D02*
X002998Y001803D01*
X002998Y001962D02*
X002928Y001962D01*
X002928Y002120D02*
X003029Y002120D01*
X003094Y002279D02*
X002928Y002279D01*
X002928Y002437D02*
X003201Y002437D01*
X003360Y002596D02*
X002928Y002596D01*
X007190Y002120D02*
X008246Y002120D01*
X008210Y001962D02*
X007230Y001962D01*
X007897Y005947D02*
X007793Y006051D01*
X007609Y006127D01*
X007793Y006203D01*
X007897Y006307D01*
X008117Y006307D01*
X008477Y005947D01*
X007897Y005947D01*
X007716Y006083D02*
X008341Y006083D01*
X008183Y006241D02*
X007832Y006241D01*
X006608Y008302D02*
X004892Y008302D01*
X004934Y008343D02*
X005010Y008527D01*
X005010Y008726D01*
X004934Y008910D01*
X004793Y009051D01*
X004609Y009127D01*
X004908Y008936D02*
X006592Y008936D01*
X006511Y008777D02*
X004989Y008777D01*
X005010Y008619D02*
X006490Y008619D01*
X006518Y008460D02*
X004982Y008460D01*
X004934Y008343D02*
X004793Y008203D01*
X004650Y008143D01*
X003850Y008143D02*
X003850Y008110D01*
X003707Y008051D01*
X007490Y020982D02*
X041103Y020982D01*
X041103Y021140D02*
X007490Y021140D01*
X007490Y021299D02*
X041103Y021299D01*
X041103Y021457D02*
X007490Y021457D01*
X007490Y021616D02*
X041103Y021616D01*
X041103Y021774D02*
X007490Y021774D01*
X004126Y024877D02*
X003500Y024877D01*
X003279Y025261D02*
X002928Y025261D01*
X002928Y025103D02*
X003117Y025103D01*
X003060Y024944D02*
X002928Y024944D01*
X002928Y024786D02*
X003061Y024786D01*
X003127Y024627D02*
X003251Y024504D01*
X003412Y024437D01*
X005266Y026054D02*
X041103Y026054D01*
X041103Y026212D02*
X005240Y026212D01*
X005240Y026371D02*
X041103Y026371D01*
X041103Y026529D02*
X005240Y026529D01*
X005240Y026688D02*
X041103Y026688D01*
X041103Y026846D02*
X005240Y026846D01*
X005240Y027322D02*
X006070Y027322D01*
X005980Y027480D02*
X005240Y027480D01*
X005240Y027639D02*
X005980Y027639D01*
X005980Y027797D02*
X005240Y027797D01*
X005240Y027956D02*
X006094Y027956D01*
X006252Y028114D02*
X005240Y028114D01*
X005240Y028273D02*
X006119Y028273D01*
X005980Y028431D02*
X005240Y028431D01*
X005240Y028590D02*
X005980Y028590D01*
X005926Y028748D02*
X005240Y028748D01*
X005240Y028907D02*
X005767Y028907D01*
X005680Y029065D02*
X005240Y029065D01*
X005240Y029224D02*
X005680Y029224D01*
X005680Y029382D02*
X005240Y029382D01*
X005212Y029541D02*
X005680Y029541D01*
X005680Y029699D02*
X005120Y029699D01*
X004962Y029858D02*
X005680Y029858D01*
X005680Y030016D02*
X004831Y030016D01*
X004831Y030175D02*
X005680Y030175D01*
X005680Y030333D02*
X004813Y030333D01*
X004748Y030492D02*
X005680Y030492D01*
X005680Y030650D02*
X004651Y030650D01*
X004493Y030809D02*
X005680Y030809D01*
X005680Y030967D02*
X004515Y030967D01*
X004674Y031126D02*
X005680Y031126D01*
X005680Y031284D02*
X004757Y031284D01*
X004823Y031443D02*
X005680Y031443D01*
X005680Y031601D02*
X004831Y031601D01*
X004831Y031760D02*
X005680Y031760D01*
X005680Y031918D02*
X004778Y031918D01*
X004713Y032077D02*
X005680Y032077D01*
X005680Y032235D02*
X004566Y032235D01*
X004490Y032394D02*
X005680Y032394D01*
X005680Y032552D02*
X004600Y032552D01*
X004727Y032711D02*
X005680Y032711D01*
X005680Y032869D02*
X004792Y032869D01*
X004831Y033028D02*
X005680Y033028D01*
X005680Y033186D02*
X004831Y033186D01*
X004809Y033345D02*
X005680Y033345D01*
X005680Y033503D02*
X004743Y033503D01*
X004640Y033662D02*
X005680Y033662D01*
X005680Y033820D02*
X004490Y033820D01*
X004490Y033979D02*
X005680Y033979D01*
X005680Y034137D02*
X004490Y034137D01*
X004612Y034296D02*
X005680Y034296D01*
X005680Y034454D02*
X005141Y034454D01*
X005275Y034613D02*
X005680Y034613D01*
X005680Y034771D02*
X005340Y034771D01*
X005340Y034930D02*
X005680Y034930D01*
X005680Y035088D02*
X005297Y035088D01*
X005194Y035247D02*
X005680Y035247D01*
X005680Y035405D02*
X004935Y035405D01*
X005166Y035564D02*
X005680Y035564D01*
X005680Y035722D02*
X005255Y035722D01*
X006000Y036127D02*
X006000Y029127D01*
X006500Y028627D01*
X007000Y029127D02*
X007500Y028627D01*
X007000Y029127D02*
X007000Y036127D01*
X007500Y036627D01*
X008000Y036127D02*
X008000Y029127D01*
X008500Y028627D01*
X009000Y029127D02*
X009500Y028627D01*
X009000Y029127D02*
X009000Y036127D01*
X009500Y036627D01*
X010000Y036127D02*
X010000Y029127D01*
X010500Y028627D01*
X011000Y029127D02*
X011500Y028627D01*
X011000Y029127D02*
X011000Y036127D01*
X011500Y036627D01*
X012000Y036127D02*
X012000Y029127D01*
X012500Y028627D01*
X013000Y029127D02*
X013500Y028627D01*
X013000Y029127D02*
X013000Y036127D01*
X013500Y036627D01*
X014000Y036127D02*
X014000Y029127D01*
X014500Y028627D01*
X015000Y029127D02*
X015500Y028627D01*
X015000Y029127D02*
X015000Y036127D01*
X015500Y036627D01*
X016000Y036127D02*
X016000Y029127D01*
X016500Y028627D01*
X017000Y029127D02*
X017500Y028627D01*
X017000Y029127D02*
X017000Y036127D01*
X017500Y036627D01*
X018000Y036127D02*
X018000Y029127D01*
X018500Y028627D01*
X019000Y029127D02*
X019500Y028627D01*
X019000Y029127D02*
X019000Y036127D01*
X019500Y036627D01*
X020000Y036127D02*
X020000Y029127D01*
X020500Y028627D01*
X021000Y029127D02*
X021500Y028627D01*
X021000Y029127D02*
X021000Y036127D01*
X021500Y036627D01*
X022000Y036127D02*
X022000Y029127D01*
X022500Y028627D01*
X023000Y029127D02*
X023500Y028627D01*
X023000Y029127D02*
X023000Y036127D01*
X023500Y036627D01*
X024000Y036127D02*
X024000Y029127D01*
X024500Y028627D01*
X025000Y029127D02*
X025500Y028627D01*
X025000Y029127D02*
X025000Y036127D01*
X025500Y036627D01*
X026000Y036127D02*
X026000Y029127D01*
X026500Y028627D01*
X027000Y029127D02*
X027500Y028627D01*
X027000Y029127D02*
X027000Y036127D01*
X027500Y036627D01*
X028000Y036127D02*
X028000Y029127D01*
X028500Y028627D01*
X029000Y029127D02*
X029500Y028627D01*
X029000Y029127D02*
X029000Y036127D01*
X029500Y036627D01*
X030000Y036127D02*
X030000Y029127D01*
X030500Y028627D01*
X031000Y029127D02*
X031500Y028627D01*
X031000Y029127D02*
X031000Y036127D01*
X031500Y036627D01*
X032000Y036127D02*
X032000Y029127D01*
X032500Y028627D01*
X033000Y029127D02*
X033500Y028627D01*
X033000Y029127D02*
X033000Y036127D01*
X033500Y036627D01*
X034000Y036127D02*
X034000Y029127D01*
X034500Y028627D01*
X035000Y029127D02*
X035500Y028627D01*
X035000Y029127D02*
X035000Y036127D01*
X035500Y036627D01*
X035500Y035627D02*
X035500Y029627D01*
X034500Y029627D02*
X034500Y035627D01*
X034000Y036127D02*
X034500Y036627D01*
X033500Y035627D02*
X033500Y029627D01*
X032500Y029627D02*
X032500Y035627D01*
X032000Y036127D02*
X032500Y036627D01*
X031500Y035627D02*
X031500Y029627D01*
X030500Y029627D02*
X030500Y035627D01*
X030000Y036127D02*
X030500Y036627D01*
X029500Y035627D02*
X029500Y029627D01*
X028500Y029627D02*
X028500Y035627D01*
X028000Y036127D02*
X028500Y036627D01*
X027500Y035627D02*
X027500Y029627D01*
X026500Y029627D02*
X026500Y035627D01*
X026000Y036127D02*
X026500Y036627D01*
X025500Y035627D02*
X025500Y029627D01*
X024500Y029627D02*
X024500Y035627D01*
X024000Y036127D02*
X024500Y036627D01*
X023500Y035627D02*
X023500Y029627D01*
X022500Y029627D02*
X022500Y035627D01*
X022000Y036127D02*
X022500Y036627D01*
X021500Y035627D02*
X021500Y029627D01*
X020500Y029627D02*
X020500Y035627D01*
X020000Y036127D02*
X020500Y036627D01*
X019500Y035627D02*
X019500Y029627D01*
X018500Y029627D02*
X018500Y035627D01*
X018000Y036127D02*
X018500Y036627D01*
X017500Y035627D02*
X017500Y029627D01*
X016500Y029627D02*
X016500Y035627D01*
X016000Y036127D02*
X016500Y036627D01*
X015500Y035627D02*
X015500Y029627D01*
X014500Y029627D02*
X014500Y035627D01*
X014000Y036127D02*
X014500Y036627D01*
X013500Y035627D02*
X013500Y029627D01*
X012500Y029627D02*
X012500Y035627D01*
X012000Y036127D02*
X012500Y036627D01*
X011500Y035627D02*
X011500Y029627D01*
X010500Y029627D02*
X010500Y035627D01*
X010000Y036127D02*
X010500Y036627D01*
X009500Y035627D02*
X009500Y029627D01*
X008500Y029627D02*
X008500Y035627D01*
X008000Y036127D02*
X008500Y036627D01*
X007500Y035627D02*
X007500Y029627D01*
X006500Y029627D02*
X006500Y035627D01*
X006000Y036127D02*
X006500Y036627D01*
X003500Y028590D02*
X003500Y028590D01*
X003263Y028590D02*
X002928Y028590D01*
X002928Y028431D02*
X003105Y028431D01*
X003005Y028273D02*
X002928Y028273D01*
X002928Y028114D02*
X003005Y028114D01*
X003005Y027956D02*
X002928Y027956D01*
X002928Y027797D02*
X003129Y027797D01*
X003288Y027639D02*
X002928Y027639D01*
X003871Y027797D02*
X004045Y027797D01*
X004500Y028127D02*
X004750Y028127D01*
X005424Y025895D02*
X041103Y025895D01*
X041103Y025737D02*
X005583Y025737D01*
X005741Y025578D02*
X041103Y025578D01*
X041103Y025420D02*
X005900Y025420D01*
X016990Y017970D02*
X017039Y017970D01*
X016990Y017812D02*
X016990Y017812D01*
X016990Y017653D02*
X016990Y017653D01*
X016990Y017495D02*
X016990Y017495D01*
X017370Y017495D02*
X017450Y017495D01*
X017450Y017653D02*
X017370Y017653D01*
X017370Y017812D02*
X017450Y017812D01*
X017450Y017970D02*
X017370Y017970D01*
X017370Y017336D02*
X017450Y017336D01*
X017450Y017178D02*
X017370Y017178D01*
X017370Y017019D02*
X017450Y017019D01*
X017450Y016861D02*
X017370Y016861D01*
X017023Y016861D02*
X016990Y016861D01*
X026250Y007627D02*
X026250Y004267D01*
X025890Y003907D01*
X027250Y006002D02*
X027250Y007627D01*
X028250Y007627D02*
X028250Y006877D01*
X031220Y003907D01*
X031890Y003907D01*
X033053Y006083D02*
X039197Y006083D01*
X039355Y006241D02*
X032895Y006241D01*
X032736Y006400D02*
X039390Y006400D01*
X039390Y006558D02*
X032610Y006558D01*
X032610Y006717D02*
X033665Y006717D01*
X033563Y006875D02*
X032610Y006875D01*
X032624Y007034D02*
X033563Y007034D01*
X033563Y007192D02*
X032719Y007192D01*
X032750Y007351D02*
X033563Y007351D01*
X033563Y007509D02*
X032750Y007509D01*
X032750Y007668D02*
X033218Y007668D01*
X033189Y007826D02*
X032750Y007826D01*
X032750Y007985D02*
X033189Y007985D01*
X033033Y008143D02*
X032685Y008143D01*
X034000Y007194D02*
X036567Y007194D01*
X036750Y007377D01*
X037490Y007351D02*
X039010Y007351D01*
X039010Y007509D02*
X037490Y007509D01*
X037490Y007668D02*
X039010Y007668D01*
X039153Y007826D02*
X037347Y007826D01*
X037189Y007985D02*
X039311Y007985D01*
X039010Y007192D02*
X037490Y007192D01*
X037454Y007034D02*
X039046Y007034D01*
X039205Y006875D02*
X037295Y006875D01*
X037137Y006717D02*
X039363Y006717D01*
X039038Y005924D02*
X038962Y005924D01*
X041103Y008302D02*
X034751Y008302D01*
X034701Y008460D02*
X041103Y008460D01*
X041103Y010838D02*
X040109Y010838D01*
X040191Y010996D02*
X041103Y010996D01*
X041103Y011155D02*
X040210Y011155D01*
X040210Y011163D02*
X040199Y011234D01*
X040176Y011303D01*
X040143Y011368D01*
X040101Y011426D01*
X040050Y011478D01*
X039991Y011520D01*
X039927Y011553D01*
X039858Y011575D01*
X039786Y011587D01*
X039760Y011587D01*
X039760Y011137D01*
X040210Y011137D01*
X040210Y011163D01*
X040171Y011313D02*
X041103Y011313D01*
X041103Y011472D02*
X040056Y011472D01*
X039989Y011630D02*
X041103Y011630D01*
X041103Y011789D02*
X040147Y011789D01*
X040270Y011947D02*
X041103Y011947D01*
X041103Y012106D02*
X040270Y012106D01*
X040270Y012264D02*
X041103Y012264D01*
X041103Y012423D02*
X040189Y012423D01*
X040031Y012581D02*
X041103Y012581D01*
X041103Y012740D02*
X037740Y012740D01*
X037740Y012898D02*
X041103Y012898D01*
X041103Y013057D02*
X037740Y013057D01*
X037740Y013215D02*
X041103Y013215D01*
X041103Y013374D02*
X037740Y013374D01*
X037740Y013532D02*
X041103Y013532D01*
X041103Y013691D02*
X037740Y013691D01*
X037740Y013849D02*
X041103Y013849D01*
X041103Y014008D02*
X037740Y014008D01*
X037740Y014166D02*
X041103Y014166D01*
X041103Y014325D02*
X037740Y014325D01*
X037740Y014483D02*
X041103Y014483D01*
X041103Y014642D02*
X037740Y014642D01*
X037740Y014800D02*
X041103Y014800D01*
X041103Y014959D02*
X037740Y014959D01*
X037740Y015117D02*
X041103Y015117D01*
X041103Y015276D02*
X037740Y015276D01*
X037740Y015434D02*
X041103Y015434D01*
X039511Y011630D02*
X038989Y011630D01*
X039056Y011472D02*
X039444Y011472D01*
X039329Y011313D02*
X039210Y011313D01*
X039210Y011155D02*
X039290Y011155D01*
X039309Y010996D02*
X039210Y010996D01*
X039112Y010838D02*
X039391Y010838D01*
X039740Y010838D02*
X039760Y010838D01*
X039760Y010996D02*
X039740Y010996D01*
X039740Y011155D02*
X039760Y011155D01*
X039760Y011313D02*
X039740Y011313D01*
X039740Y011472D02*
X039760Y011472D01*
X036760Y012740D02*
X028240Y012740D01*
X028240Y012898D02*
X036760Y012898D01*
X036760Y013057D02*
X028240Y013057D01*
X028240Y013215D02*
X036760Y013215D01*
X036760Y013374D02*
X028240Y013374D01*
X028240Y013532D02*
X036760Y013532D01*
X036760Y013691D02*
X028240Y013691D01*
X028240Y013849D02*
X036760Y013849D01*
X036760Y014008D02*
X028240Y014008D01*
X028240Y014166D02*
X036760Y014166D01*
X036760Y014325D02*
X028240Y014325D01*
X028240Y014483D02*
X036760Y014483D01*
X036760Y014642D02*
X028240Y014642D01*
X028240Y014800D02*
X036760Y014800D01*
X035854Y014959D02*
X028240Y014959D01*
X028240Y015117D02*
X033302Y015117D01*
X033298Y015276D02*
X028240Y015276D01*
X028240Y015434D02*
X033298Y015434D01*
X033910Y015751D02*
X034070Y015751D01*
X034070Y015910D02*
X033910Y015910D01*
X033910Y016068D02*
X034070Y016068D01*
X034070Y016227D02*
X033910Y016227D01*
X034682Y015434D02*
X035758Y015434D01*
X035758Y015276D02*
X034682Y015276D01*
X034678Y015117D02*
X035758Y015117D01*
X034469Y012581D02*
X030531Y012581D01*
X030689Y012423D02*
X034311Y012423D01*
X034230Y012264D02*
X030770Y012264D01*
X030770Y012106D02*
X034230Y012106D01*
X034230Y011947D02*
X030770Y011947D01*
X030647Y011789D02*
X034353Y011789D01*
X034751Y007985D02*
X036311Y007985D01*
X036153Y007826D02*
X034751Y007826D01*
X034709Y007668D02*
X036010Y007668D01*
X036363Y006717D02*
X034335Y006717D01*
X030260Y010838D02*
X030240Y010838D01*
X030240Y010996D02*
X030260Y010996D01*
X030260Y011155D02*
X030240Y011155D01*
X030240Y011313D02*
X030260Y011313D01*
X030260Y011472D02*
X030240Y011472D01*
X030011Y011630D02*
X029489Y011630D01*
X029556Y011472D02*
X029944Y011472D01*
X029829Y011313D02*
X029710Y011313D01*
X029710Y011155D02*
X029790Y011155D01*
X029809Y010996D02*
X029710Y010996D01*
X029612Y010838D02*
X029891Y010838D01*
X027250Y006002D02*
X028890Y004362D01*
X028890Y003907D01*
X036516Y001803D02*
X037484Y001803D01*
X037353Y001645D02*
X036647Y001645D01*
X036712Y001486D02*
X037288Y001486D01*
X037280Y001328D02*
X036720Y001328D01*
X036697Y001169D02*
X037303Y001169D01*
X037369Y001011D02*
X036631Y001011D01*
X035228Y027163D02*
X034772Y027163D01*
X034930Y027322D02*
X035070Y027322D01*
X034228Y027163D02*
X033772Y027163D01*
X033930Y027322D02*
X034070Y027322D01*
X033228Y027163D02*
X032772Y027163D01*
X032930Y027322D02*
X033070Y027322D01*
X032228Y027163D02*
X031772Y027163D01*
X031930Y027322D02*
X032070Y027322D01*
X031228Y027163D02*
X030772Y027163D01*
X030930Y027322D02*
X031070Y027322D01*
X030228Y027163D02*
X029772Y027163D01*
X029930Y027322D02*
X030070Y027322D01*
X029228Y027163D02*
X028772Y027163D01*
X028930Y027322D02*
X029070Y027322D01*
X028228Y027163D02*
X027772Y027163D01*
X027930Y027322D02*
X028070Y027322D01*
X027228Y027163D02*
X026772Y027163D01*
X026930Y027322D02*
X027070Y027322D01*
X026228Y027163D02*
X025772Y027163D01*
X025930Y027322D02*
X026070Y027322D01*
X025228Y027163D02*
X024772Y027163D01*
X024930Y027322D02*
X025070Y027322D01*
X024228Y027163D02*
X023772Y027163D01*
X023930Y027322D02*
X024070Y027322D01*
X023228Y027163D02*
X022772Y027163D01*
X022930Y027322D02*
X023070Y027322D01*
X022228Y027163D02*
X021772Y027163D01*
X021930Y027322D02*
X022070Y027322D01*
D12*
X003238Y038168D02*
X003240Y038218D01*
X003246Y038268D01*
X003256Y038317D01*
X003270Y038365D01*
X003287Y038412D01*
X003308Y038457D01*
X003333Y038501D01*
X003361Y038542D01*
X003393Y038581D01*
X003427Y038618D01*
X003464Y038652D01*
X003504Y038682D01*
X003546Y038709D01*
X003590Y038733D01*
X003636Y038754D01*
X003683Y038770D01*
X003731Y038783D01*
X003781Y038792D01*
X003830Y038797D01*
X003881Y038798D01*
X003931Y038795D01*
X003980Y038788D01*
X004029Y038777D01*
X004077Y038762D01*
X004123Y038744D01*
X004168Y038722D01*
X004211Y038696D01*
X004252Y038667D01*
X004291Y038635D01*
X004327Y038600D01*
X004359Y038562D01*
X004389Y038522D01*
X004416Y038479D01*
X004439Y038435D01*
X004458Y038389D01*
X004474Y038341D01*
X004486Y038292D01*
X004494Y038243D01*
X004498Y038193D01*
X004498Y038143D01*
X004494Y038093D01*
X004486Y038044D01*
X004474Y037995D01*
X004458Y037947D01*
X004439Y037901D01*
X004416Y037857D01*
X004389Y037814D01*
X004359Y037774D01*
X004327Y037736D01*
X004291Y037701D01*
X004252Y037669D01*
X004211Y037640D01*
X004168Y037614D01*
X004123Y037592D01*
X004077Y037574D01*
X004029Y037559D01*
X003980Y037548D01*
X003931Y037541D01*
X003881Y037538D01*
X003830Y037539D01*
X003781Y037544D01*
X003731Y037553D01*
X003683Y037566D01*
X003636Y037582D01*
X003590Y037603D01*
X003546Y037627D01*
X003504Y037654D01*
X003464Y037684D01*
X003427Y037718D01*
X003393Y037755D01*
X003361Y037794D01*
X003333Y037835D01*
X003308Y037879D01*
X003287Y037924D01*
X003270Y037971D01*
X003256Y038019D01*
X003246Y038068D01*
X003240Y038118D01*
X003238Y038168D01*
X003238Y001874D02*
X003240Y001924D01*
X003246Y001974D01*
X003256Y002023D01*
X003270Y002071D01*
X003287Y002118D01*
X003308Y002163D01*
X003333Y002207D01*
X003361Y002248D01*
X003393Y002287D01*
X003427Y002324D01*
X003464Y002358D01*
X003504Y002388D01*
X003546Y002415D01*
X003590Y002439D01*
X003636Y002460D01*
X003683Y002476D01*
X003731Y002489D01*
X003781Y002498D01*
X003830Y002503D01*
X003881Y002504D01*
X003931Y002501D01*
X003980Y002494D01*
X004029Y002483D01*
X004077Y002468D01*
X004123Y002450D01*
X004168Y002428D01*
X004211Y002402D01*
X004252Y002373D01*
X004291Y002341D01*
X004327Y002306D01*
X004359Y002268D01*
X004389Y002228D01*
X004416Y002185D01*
X004439Y002141D01*
X004458Y002095D01*
X004474Y002047D01*
X004486Y001998D01*
X004494Y001949D01*
X004498Y001899D01*
X004498Y001849D01*
X004494Y001799D01*
X004486Y001750D01*
X004474Y001701D01*
X004458Y001653D01*
X004439Y001607D01*
X004416Y001563D01*
X004389Y001520D01*
X004359Y001480D01*
X004327Y001442D01*
X004291Y001407D01*
X004252Y001375D01*
X004211Y001346D01*
X004168Y001320D01*
X004123Y001298D01*
X004077Y001280D01*
X004029Y001265D01*
X003980Y001254D01*
X003931Y001247D01*
X003881Y001244D01*
X003830Y001245D01*
X003781Y001250D01*
X003731Y001259D01*
X003683Y001272D01*
X003636Y001288D01*
X003590Y001309D01*
X003546Y001333D01*
X003504Y001360D01*
X003464Y001390D01*
X003427Y001424D01*
X003393Y001461D01*
X003361Y001500D01*
X003333Y001541D01*
X003308Y001585D01*
X003287Y001630D01*
X003270Y001677D01*
X003256Y001725D01*
X003246Y001774D01*
X003240Y001824D01*
X003238Y001874D01*
X039532Y001874D02*
X039534Y001924D01*
X039540Y001974D01*
X039550Y002023D01*
X039564Y002071D01*
X039581Y002118D01*
X039602Y002163D01*
X039627Y002207D01*
X039655Y002248D01*
X039687Y002287D01*
X039721Y002324D01*
X039758Y002358D01*
X039798Y002388D01*
X039840Y002415D01*
X039884Y002439D01*
X039930Y002460D01*
X039977Y002476D01*
X040025Y002489D01*
X040075Y002498D01*
X040124Y002503D01*
X040175Y002504D01*
X040225Y002501D01*
X040274Y002494D01*
X040323Y002483D01*
X040371Y002468D01*
X040417Y002450D01*
X040462Y002428D01*
X040505Y002402D01*
X040546Y002373D01*
X040585Y002341D01*
X040621Y002306D01*
X040653Y002268D01*
X040683Y002228D01*
X040710Y002185D01*
X040733Y002141D01*
X040752Y002095D01*
X040768Y002047D01*
X040780Y001998D01*
X040788Y001949D01*
X040792Y001899D01*
X040792Y001849D01*
X040788Y001799D01*
X040780Y001750D01*
X040768Y001701D01*
X040752Y001653D01*
X040733Y001607D01*
X040710Y001563D01*
X040683Y001520D01*
X040653Y001480D01*
X040621Y001442D01*
X040585Y001407D01*
X040546Y001375D01*
X040505Y001346D01*
X040462Y001320D01*
X040417Y001298D01*
X040371Y001280D01*
X040323Y001265D01*
X040274Y001254D01*
X040225Y001247D01*
X040175Y001244D01*
X040124Y001245D01*
X040075Y001250D01*
X040025Y001259D01*
X039977Y001272D01*
X039930Y001288D01*
X039884Y001309D01*
X039840Y001333D01*
X039798Y001360D01*
X039758Y001390D01*
X039721Y001424D01*
X039687Y001461D01*
X039655Y001500D01*
X039627Y001541D01*
X039602Y001585D01*
X039581Y001630D01*
X039564Y001677D01*
X039550Y001725D01*
X039540Y001774D01*
X039534Y001824D01*
X039532Y001874D01*
X039532Y038168D02*
X039534Y038218D01*
X039540Y038268D01*
X039550Y038317D01*
X039564Y038365D01*
X039581Y038412D01*
X039602Y038457D01*
X039627Y038501D01*
X039655Y038542D01*
X039687Y038581D01*
X039721Y038618D01*
X039758Y038652D01*
X039798Y038682D01*
X039840Y038709D01*
X039884Y038733D01*
X039930Y038754D01*
X039977Y038770D01*
X040025Y038783D01*
X040075Y038792D01*
X040124Y038797D01*
X040175Y038798D01*
X040225Y038795D01*
X040274Y038788D01*
X040323Y038777D01*
X040371Y038762D01*
X040417Y038744D01*
X040462Y038722D01*
X040505Y038696D01*
X040546Y038667D01*
X040585Y038635D01*
X040621Y038600D01*
X040653Y038562D01*
X040683Y038522D01*
X040710Y038479D01*
X040733Y038435D01*
X040752Y038389D01*
X040768Y038341D01*
X040780Y038292D01*
X040788Y038243D01*
X040792Y038193D01*
X040792Y038143D01*
X040788Y038093D01*
X040780Y038044D01*
X040768Y037995D01*
X040752Y037947D01*
X040733Y037901D01*
X040710Y037857D01*
X040683Y037814D01*
X040653Y037774D01*
X040621Y037736D01*
X040585Y037701D01*
X040546Y037669D01*
X040505Y037640D01*
X040462Y037614D01*
X040417Y037592D01*
X040371Y037574D01*
X040323Y037559D01*
X040274Y037548D01*
X040225Y037541D01*
X040175Y037538D01*
X040124Y037539D01*
X040075Y037544D01*
X040025Y037553D01*
X039977Y037566D01*
X039930Y037582D01*
X039884Y037603D01*
X039840Y037627D01*
X039798Y037654D01*
X039758Y037684D01*
X039721Y037718D01*
X039687Y037755D01*
X039655Y037794D01*
X039627Y037835D01*
X039602Y037879D01*
X039581Y037924D01*
X039564Y037971D01*
X039550Y038019D01*
X039540Y038068D01*
X039534Y038118D01*
X039532Y038168D01*
D13*
X037500Y037627D03*
X036500Y037627D03*
X035500Y037627D03*
X034500Y037627D03*
X033500Y037627D03*
X032500Y037627D03*
X031500Y037627D03*
X030500Y037627D03*
X029500Y037627D03*
X028500Y037627D03*
X027500Y037627D03*
X026500Y037627D03*
X025500Y037627D03*
X024500Y037627D03*
X023500Y037627D03*
X022500Y037627D03*
X021500Y037627D03*
X020500Y037627D03*
X019500Y037627D03*
X018500Y037627D03*
X017500Y037627D03*
X016500Y037627D03*
X015500Y037627D03*
X014500Y037627D03*
X013500Y037627D03*
X012500Y037627D03*
X011500Y037627D03*
X010500Y037627D03*
X009500Y037627D03*
X008500Y037627D03*
X007500Y037627D03*
X006500Y037627D03*
X006500Y036627D03*
X007500Y036627D03*
X007500Y035627D03*
X006500Y035627D03*
X008500Y035627D03*
X008500Y036627D03*
X009500Y036627D03*
X009500Y035627D03*
X010500Y035627D03*
X010500Y036627D03*
X011500Y036627D03*
X012500Y036627D03*
X012500Y035627D03*
X011500Y035627D03*
X013500Y035627D03*
X013500Y036627D03*
X014500Y036627D03*
X014500Y035627D03*
X015500Y035627D03*
X015500Y036627D03*
X016500Y036627D03*
X017500Y036627D03*
X017500Y035627D03*
X016500Y035627D03*
X018500Y035627D03*
X018500Y036627D03*
X019500Y036627D03*
X019500Y035627D03*
X020500Y035627D03*
X020500Y036627D03*
X021500Y036627D03*
X022500Y036627D03*
X022500Y035627D03*
X021500Y035627D03*
X023500Y035627D03*
X023500Y036627D03*
X024500Y036627D03*
X024500Y035627D03*
X025500Y035627D03*
X025500Y036627D03*
X026500Y036627D03*
X027500Y036627D03*
X027500Y035627D03*
X026500Y035627D03*
X028500Y035627D03*
X028500Y036627D03*
X029500Y036627D03*
X029500Y035627D03*
X030500Y035627D03*
X030500Y036627D03*
X031500Y036627D03*
X032500Y036627D03*
X032500Y035627D03*
X031500Y035627D03*
X033500Y035627D03*
X033500Y036627D03*
X034500Y036627D03*
X034500Y035627D03*
X035500Y035627D03*
X035500Y036627D03*
X036500Y036627D03*
X037500Y036627D03*
X037500Y035627D03*
X036500Y035627D03*
X039500Y034377D03*
X039500Y033377D03*
X040500Y033377D03*
X040500Y034377D03*
X040500Y032377D03*
X040500Y031377D03*
X039500Y031377D03*
X039500Y032377D03*
D14*
X012050Y003627D02*
X011450Y003627D01*
X010750Y001927D02*
X010750Y001327D01*
X008750Y001327D02*
X008750Y001927D01*
X008050Y003627D02*
X007450Y003627D01*
X006750Y001927D02*
X006750Y001327D01*
X012750Y001327D02*
X012750Y001927D01*
X004800Y034877D02*
X004200Y034877D01*
X004200Y035877D02*
X004800Y035877D01*
D15*
X004000Y033127D03*
X004000Y031627D03*
X004000Y030127D03*
D16*
X009250Y009501D03*
X009250Y008753D03*
X010250Y008753D03*
X010250Y009501D03*
X011250Y009501D03*
X011250Y008753D03*
X012250Y008753D03*
X012250Y009501D03*
X015250Y006501D03*
X015250Y005753D03*
X016250Y005753D03*
X016250Y006501D03*
X017250Y006501D03*
X017250Y005753D03*
X018250Y005753D03*
X018250Y006501D03*
X019250Y006501D03*
X019250Y005753D03*
X020250Y005753D03*
X020250Y006501D03*
X021250Y006501D03*
X021250Y005753D03*
X022250Y005753D03*
X022250Y006501D03*
X023250Y008753D03*
X023250Y009501D03*
X024250Y009501D03*
X024250Y008753D03*
X025250Y008753D03*
X025250Y009501D03*
X026250Y009501D03*
X026250Y008753D03*
X027250Y008753D03*
X027250Y009501D03*
X028250Y009501D03*
X028250Y008753D03*
X029250Y008753D03*
X029250Y009501D03*
X030250Y009501D03*
X030250Y008753D03*
X031250Y008753D03*
X031250Y009501D03*
D17*
X031250Y007887D02*
X031250Y007367D01*
X030250Y007367D02*
X030250Y007887D01*
X029250Y007887D02*
X029250Y007367D01*
X028250Y007367D02*
X028250Y007887D01*
X027250Y007887D02*
X027250Y007367D01*
X026250Y007367D02*
X026250Y007887D01*
X025250Y007887D02*
X025250Y007367D01*
X024250Y007367D02*
X024250Y007887D01*
X023250Y007887D02*
X023250Y007367D01*
X022250Y007367D02*
X022250Y007887D01*
X021250Y007887D02*
X021250Y007367D01*
X020250Y007367D02*
X020250Y007887D01*
X019250Y007887D02*
X019250Y007367D01*
X018250Y007367D02*
X018250Y007887D01*
X017250Y007887D02*
X017250Y007367D01*
X016250Y007367D02*
X016250Y007887D01*
X015250Y007887D02*
X015250Y007367D01*
X014250Y007367D02*
X014250Y007887D01*
X013250Y007887D02*
X013250Y007367D01*
X012250Y007367D02*
X012250Y007887D01*
X011250Y007887D02*
X011250Y007367D01*
X010250Y007367D02*
X010250Y007887D01*
X009250Y007887D02*
X009250Y007367D01*
X007510Y007627D02*
X006990Y007627D01*
X006990Y008627D02*
X007510Y008627D01*
X007510Y006627D02*
X006990Y006627D01*
X006990Y005627D02*
X007510Y005627D01*
X004510Y005627D02*
X003990Y005627D01*
X003990Y006627D02*
X004510Y006627D01*
X004510Y007627D02*
X003990Y007627D01*
X003990Y008627D02*
X004510Y008627D01*
X032250Y007887D02*
X032250Y007367D01*
D18*
X031890Y003907D03*
X033110Y003907D03*
X034890Y003907D03*
X036110Y003907D03*
X037890Y003907D03*
X037890Y001347D03*
X036110Y001347D03*
X034890Y001347D03*
X033110Y001347D03*
X031890Y001347D03*
X030110Y001347D03*
X028890Y001347D03*
X027110Y001347D03*
X025890Y001347D03*
X024110Y001347D03*
X022890Y001347D03*
X021110Y001347D03*
X019890Y001347D03*
X018110Y001347D03*
X016890Y001347D03*
X015110Y001347D03*
X015110Y003907D03*
X016890Y003907D03*
X018110Y003907D03*
X019890Y003907D03*
X021110Y003907D03*
X022890Y003907D03*
X024110Y003907D03*
X025890Y003907D03*
X027110Y003907D03*
X028890Y003907D03*
X030110Y003907D03*
D19*
X036750Y007377D03*
X039750Y007377D03*
D20*
X004874Y024877D03*
X004126Y024877D03*
D21*
X033626Y008060D03*
X034374Y008060D03*
X034000Y007194D03*
D22*
X030250Y011127D03*
X039750Y011127D03*
X019000Y011127D03*
X009500Y011127D03*
D23*
X009500Y012127D03*
X008500Y012127D03*
X008500Y011127D03*
X007500Y011127D03*
X007500Y012127D03*
X006500Y012127D03*
X005500Y012127D03*
X005500Y011127D03*
X006500Y011127D03*
X004500Y011127D03*
X004500Y012127D03*
X014000Y012127D03*
X015000Y012127D03*
X015000Y011127D03*
X014000Y011127D03*
X016000Y011127D03*
X016000Y012127D03*
X017000Y012127D03*
X017000Y011127D03*
X018000Y011127D03*
X018000Y012127D03*
X019000Y012127D03*
X025250Y012127D03*
X026250Y012127D03*
X026250Y011127D03*
X025250Y011127D03*
X027250Y011127D03*
X027250Y012127D03*
X028250Y012127D03*
X028250Y011127D03*
X029250Y011127D03*
X029250Y012127D03*
X030250Y012127D03*
X034750Y012127D03*
X035750Y012127D03*
X035750Y011127D03*
X034750Y011127D03*
X036750Y011127D03*
X036750Y012127D03*
X037750Y012127D03*
X038750Y012127D03*
X038750Y011127D03*
X037750Y011127D03*
X039750Y012127D03*
X035500Y027627D03*
X035500Y028627D03*
X035500Y029627D03*
X034500Y029627D03*
X033500Y029627D03*
X032500Y029627D03*
X031500Y029627D03*
X030500Y029627D03*
X029500Y029627D03*
X028500Y029627D03*
X027500Y029627D03*
X026500Y029627D03*
X025500Y029627D03*
X024500Y029627D03*
X023500Y029627D03*
X022500Y029627D03*
X021500Y029627D03*
X020500Y029627D03*
X019500Y029627D03*
X018500Y029627D03*
X017500Y029627D03*
X016500Y029627D03*
X015500Y029627D03*
X014500Y029627D03*
X013500Y029627D03*
X012500Y029627D03*
X011500Y029627D03*
X010500Y029627D03*
X009500Y029627D03*
X008500Y029627D03*
X007500Y029627D03*
X006500Y029627D03*
X006500Y028627D03*
X007500Y028627D03*
X007500Y027627D03*
X006500Y027627D03*
X008500Y027627D03*
X008500Y028627D03*
X009500Y028627D03*
X009500Y027627D03*
X010500Y027627D03*
X010500Y028627D03*
X011500Y028627D03*
X012500Y028627D03*
X012500Y027627D03*
X011500Y027627D03*
X013500Y027627D03*
X013500Y028627D03*
X014500Y028627D03*
X014500Y027627D03*
X015500Y027627D03*
X015500Y028627D03*
X016500Y028627D03*
X017500Y028627D03*
X017500Y027627D03*
X016500Y027627D03*
X018500Y027627D03*
X018500Y028627D03*
X019500Y028627D03*
X019500Y027627D03*
X020500Y027627D03*
X020500Y028627D03*
X021500Y028627D03*
X022500Y028627D03*
X022500Y027627D03*
X021500Y027627D03*
X023500Y027627D03*
X023500Y028627D03*
X024500Y028627D03*
X024500Y027627D03*
X025500Y027627D03*
X025500Y028627D03*
X026500Y028627D03*
X027500Y028627D03*
X027500Y027627D03*
X026500Y027627D03*
X028500Y027627D03*
X028500Y028627D03*
X029500Y028627D03*
X029500Y027627D03*
X030500Y027627D03*
X030500Y028627D03*
X031500Y028627D03*
X032500Y028627D03*
X032500Y027627D03*
X031500Y027627D03*
X033500Y027627D03*
X033500Y028627D03*
X034500Y028627D03*
X034500Y027627D03*
D24*
X036340Y017407D03*
X037250Y017407D03*
X038160Y017407D03*
X028660Y017407D03*
X027750Y017407D03*
X026840Y017407D03*
X017410Y017407D03*
X016500Y017407D03*
X015590Y017407D03*
D25*
X016500Y019847D03*
X027750Y019847D03*
X037250Y019847D03*
D26*
X003500Y028127D03*
D27*
X004500Y028127D03*
D28*
X013240Y015627D03*
X015760Y015627D03*
X024490Y015627D03*
X027010Y015627D03*
X033990Y015627D03*
X036510Y015627D03*
D29*
X013750Y018142D03*
X013750Y020111D03*
D30*
X014250Y005127D03*
X039000Y005377D03*
D31*
X038750Y012127D02*
X037750Y012127D01*
X037250Y012127D01*
X037250Y015627D01*
X037250Y017407D01*
X037250Y019847D01*
X036340Y017537D02*
X036340Y017407D01*
X036340Y017537D02*
X034250Y019627D01*
X034030Y019847D01*
X027750Y019847D01*
X027750Y017407D01*
X027750Y015627D01*
X027750Y012127D01*
X028250Y012127D01*
X029250Y012127D01*
X030250Y012127D01*
X027750Y012127D02*
X027250Y012127D01*
X026250Y012127D01*
X025250Y012127D01*
X026840Y017407D02*
X026840Y017537D01*
X024530Y019847D01*
X024470Y019847D01*
X024250Y019847D01*
X016500Y019847D01*
X016500Y017407D01*
X016500Y015627D01*
X016500Y012127D01*
X017000Y012127D01*
X018000Y012127D01*
X019000Y012127D01*
X016500Y012127D02*
X016000Y012127D01*
X015000Y012127D01*
X014000Y012127D01*
X009500Y012127D02*
X008500Y012127D01*
X007500Y012127D01*
X007000Y012127D01*
X007000Y017377D01*
X013750Y017377D01*
X015250Y017377D01*
X015590Y017217D01*
X015590Y017407D01*
X007000Y017377D02*
X007000Y023627D01*
X005750Y024877D01*
X004750Y025877D01*
X004750Y028127D01*
X004750Y029377D01*
X004000Y030127D01*
X004000Y031627D02*
X004000Y033127D01*
X004000Y034377D01*
X004500Y034877D01*
X024470Y019847D02*
X024500Y019877D01*
X034750Y012127D02*
X035750Y012127D01*
X036750Y012127D01*
X037250Y012127D01*
X038750Y012127D02*
X039750Y012127D01*
X007000Y012127D02*
X006500Y012127D01*
X005500Y012127D01*
X004500Y012127D01*
D32*
X007000Y023627D03*
X024500Y019877D03*
X034000Y019877D03*
D33*
X033059Y008627D02*
X031500Y008627D01*
X031250Y008377D01*
X031250Y008753D01*
X031250Y008377D02*
X031250Y007627D01*
X030250Y007627D02*
X030250Y008753D01*
X029250Y008753D02*
X029250Y007627D01*
X028250Y007627D02*
X028250Y008753D01*
X027250Y008753D02*
X027250Y007627D01*
X026250Y007627D02*
X026250Y008753D01*
X025250Y008753D02*
X025250Y007627D01*
X024250Y007627D02*
X024250Y008753D01*
X023250Y008753D02*
X023250Y007627D01*
X022250Y007627D02*
X022250Y006501D01*
X022250Y005753D02*
X022250Y005127D01*
X021250Y005127D02*
X021250Y005753D01*
X021250Y006501D02*
X021250Y007627D01*
X020250Y007627D02*
X020250Y006501D01*
X020250Y005753D02*
X020250Y005127D01*
X019250Y005127D02*
X019250Y005753D01*
X019250Y006501D02*
X019250Y007627D01*
X018250Y007627D02*
X018250Y006501D01*
X018250Y005753D02*
X018250Y005127D01*
X017250Y005127D02*
X017250Y005753D01*
X017250Y006501D02*
X017250Y007627D01*
X016250Y007627D02*
X016250Y006501D01*
X016250Y005753D02*
X016250Y005127D01*
X015250Y005127D02*
X015250Y005753D01*
X015250Y006501D02*
X015250Y007627D01*
X012250Y007627D02*
X012250Y008753D01*
X011250Y008753D02*
X011250Y007627D01*
X010250Y007627D02*
X010250Y008753D01*
X009250Y008753D02*
X009250Y007627D01*
X018000Y002627D02*
X018110Y002737D01*
X021000Y002627D02*
X021110Y002737D01*
X024000Y002627D02*
X024110Y002737D01*
X027110Y002767D02*
X027250Y002627D01*
X030110Y002767D02*
X030250Y002627D01*
X033110Y002767D02*
X033250Y002627D01*
X036000Y002627D02*
X036110Y002737D01*
X038750Y005627D02*
X033000Y005627D01*
X032250Y006377D01*
X032250Y007627D01*
X033059Y008627D02*
X033626Y008060D01*
X038750Y005627D02*
X039000Y005377D01*
X039750Y006127D01*
X039750Y007377D01*
D34*
X022250Y005127D03*
X021250Y005127D03*
X020250Y005127D03*
X019250Y005127D03*
X018250Y005127D03*
X017250Y005127D03*
X016250Y005127D03*
X015250Y005127D03*
X003500Y024877D03*
D35*
X004250Y008627D02*
X004250Y007627D01*
X004250Y006627D01*
X004250Y005627D01*
X004250Y004127D01*
X005750Y002627D01*
X008750Y002627D01*
X008750Y001627D01*
X008750Y002627D02*
X012750Y002627D01*
X015250Y002627D01*
X015110Y002737D01*
X015110Y003907D01*
X015250Y002627D02*
X018000Y002627D01*
X021000Y002627D01*
X024000Y002627D01*
X027250Y002627D01*
X030250Y002627D01*
X033250Y002627D01*
X036000Y002627D01*
X038500Y002627D01*
X039000Y003127D01*
X039000Y005377D01*
X036110Y003907D02*
X036110Y002737D01*
X033110Y002767D02*
X033110Y003907D01*
X030110Y003907D02*
X030110Y002767D01*
X027110Y002767D02*
X027110Y003907D01*
X024110Y003907D02*
X024110Y002737D01*
X021110Y002737D02*
X021110Y003907D01*
X018110Y003907D02*
X018110Y002737D01*
X012750Y002627D02*
X012750Y001627D01*
D36*
X016890Y003907D02*
X016890Y004392D01*
X017250Y004752D01*
X022750Y004752D01*
X023250Y005252D01*
X023250Y007627D01*
X024250Y007627D02*
X024250Y005877D01*
X022875Y004502D01*
X020375Y004502D01*
X019890Y004017D01*
X019890Y003907D01*
X022890Y003907D02*
X022890Y004142D01*
X025250Y006502D01*
X025250Y007627D01*
M02*
